<svg xmlns="http://www.w3.org/2000/svg" viewBox="0 0 1920 1080" xml:space="preserve"><path fill="#FFF" d="M1102 1081H1V1h1920v1080h-819M958 551l-9-4c-14-11-31-10-49-9 1 4 2 8 4 10l9 9 15 15c9 6 20 5 31 5h12l3 8 6 17c-9 1-15 10-11 17 2 3 5 6 9 8 3 1 4 3 4 7l1 20 5 19 5 3-7-45 5 1h7l3 1 7-1h2l5-4 1-16-5-13c-6-4-11-4-17-1l-10 2-1-26 1-2c3-3 6-6 10-7 6-2 10-6 12-12l12-43 1-20h-3c-31 21-37 54-38 90l-5-8-11-16-4-5m585-120-1-2V299c0-7 0-13-4-19-6-8-15-10-25-10-15 1-24 7-25 25v150l1 14c2 8 12 17 20 17h107c10 0 17-6 20-16v-10c0-8-5-15-12-17l-13-2h-68m-672-15v38c1 13 9 21 23 22h62c14-1 28-2 42-5 32-8 55-28 65-61 7-21 7-43 3-65-6-28-21-49-47-62-15-8-31-12-48-12l-77-1c-9 1-18 4-21 14l-3 25v22l-1 2v34l2 4-1 4-1 2v35l2 4m-520-48 4 8 32 55c3 6 7 12 12 15 11 5 22 3 30-8l16-27 26-43 1 1v82l1 12c3 13 15 17 28 15 9-1 15-5 18-14l1-13V291c0-9-3-17-11-21-10-4-21-5-30 2-5 3-8 9-11 14l-29 50-18 34-10 18-57-102c-9-17-21-21-39-17-5 1-10 5-12 10l-2 16v167l1 3c5 12 15 15 26 14 13-2 18-7 20-19l1-9 1-81 1-2m325 111 4-1c9-1 16-6 18-14l1-16 1-83v-6l10 13 39 48 34 43c7 9 15 17 28 16 10-1 18-6 21-15l1-13V289c0-9-5-16-13-20-8-3-17-2-25 1l-8 6c-4 6-3 12-3 18v93l-28-33-55-69c-6-8-13-17-25-18-10 0-20 2-24 13l-2 17v165l4 8c5 7 13 9 22 9m192 187-1-4c-9-34-30-57-63-68-20-7-41-8-62-4-32 6-55 23-69 51-8 16-11 33-12 50l3 30c5 23 16 42 34 57 16 14 36 21 58 22 17 1 34 0 50-6 25-10 44-26 55-51 6-14 9-28 10-43l-3-34m36-65-3 15v104l8 34c4 12 12 22 23 30 13 10 29 14 45 16 14 1 29-1 44-2 16-2 30-10 42-22 15-15 21-34 22-54V614c0-13-8-24-23-25-16-2-29 6-29 23a8558 8558 0 0 1-2 111c-1 7-3 14-8 20-9 10-21 13-34 12-13 0-26-9-30-22-2-8-4-16-4-24v-98c0-7-4-12-8-16-4-5-11-6-17-7-10-1-21 4-26 13m548-238v-72c0-8-3-15-9-19-5-2-11-4-16-4-10-1-19 0-24 12-3 5-3 12-3 18l-1 88c0 8 0 16-3 23-4 15-15 23-30 25-20 3-38-7-42-28l-2-19v-91c0-11-3-20-12-25-8-4-17-4-25-2-11 2-17 13-17 21v89c0 11 0 22 2 33 4 18 11 34 24 47 15 13 32 18 50 20 15 1 30 0 44-3 18-2 34-11 46-26s17-33 18-52v-35M632 765c5-8 7-17 8-26 3-24-9-43-28-52-17-9-35-11-53-15l-25-8c-9-4-9-16-3-22 5-5 11-8 18-9h18c5 0 10 0 15 2 8 1 15 4 23 6 6 2 11 1 16-2 13-8 14-30-3-38-32-15-65-18-99-6-16 5-28 14-37 28a60 60 0 0 0-4 55 61 61 0 0 0 44 32l26 8 30 7c3 1 6 5 8 8 2 2 1 6 1 9l-1 2c-3 5-8 9-14 10-12 3-25 2-37 1l-24-6c-4-2-9-5-14-5-8-2-15-2-20 5-9 12-9 25 2 34 5 4 11 6 17 8a158 158 0 0 0 91 5c19-5 34-14 45-31m787 25c9-5 17-10 24-18 19-23 21-68-17-86-16-8-34-10-51-14l-25-7c-7-3-11-12-6-20 4-8 12-11 21-12h19c9 0 18 1 27 5 7 3 14 6 22 3 7-2 12-8 13-16 1-9-1-17-9-22-11-7-22-10-34-12-23-5-45-4-67 3-14 5-25 12-34 23a61 61 0 0 0-12 49c3 14 9 25 20 34 13 8 27 12 41 15l42 10c12 4 14 17 5 23-3 2-7 5-11 6-14 4-29 2-43-1-11-2-21-6-31-9-12-3-19 0-24 10-7 14-3 27 13 34a213 213 0 0 0 49 12l37-1c11-1 21-4 31-9m-191-396c3-3 8-6 10-10 6-12 3-32-19-31h-64v-41h6l62-1 13-1c11-4 13-20 9-30-4-8-11-10-19-10h-103c-10 2-18 6-21 17l-1 12a68227 68227 0 0 0 0 160c2 6 4 11 9 15 9 6 19 6 28 3 10-3 16-11 16-22v-61h74m-53 296v-73c0-15-7-24-21-26-18-2-33 3-33 27v151l1 11c2 9 12 17 21 17a41730 41730 0 0 0 111-1c11-3 15-9 15-23 0-11-6-18-17-20l-8-1h-69v-62M586 267c-19 0-27 9-28 27v159l2 11c5 13 16 16 28 15 6-1 12-2 16-7 7-6 8-14 8-22V293c0-10-4-18-12-22l-14-4m308 651 4 13 3 3c2 0 3-2 4-3l6-16 6 17 3 2 3-2 14-40c-5-1-7 1-8 5l-9 25-5-15c-1-2-1-5-4-4l-4 4-4 12h-2l-5-13-4-14h-7l9 26m-115-6c1-7 4-12 10-14s14 1 16 5 5 4 9 4c-2-11-14-18-27-15-9 2-17 14-14 28 3 10 11 16 23 15 11-2 19-12 18-21h-22v6h14c-4 7-10 10-15 9-7-2-12-8-12-17m203-5c-4-11-15-17-26-15s-19 13-17 25c1 10 14 21 25 17 14-4 18-10 18-27m-232 13 7 11c2 2 4 4 8 2v-41h-6v29l-3-4-15-22-7-5v44h6v-28l10 14m320-28h-13v41h21c9-1 16-12 15-22-2-12-10-20-23-19m-483 23c7-7 5-20-5-23l-19-1v43h6v-36c10-1 16 1 16 6-1 10-8 9-17 9l13 15c5 7 5 7 12 5l-12-14 6-4m409 6v-23c10-2 16 1 16 7 1 5-2 7-14 8l1 5 12 13c2 2 6 3 9 4l1-2-12-14 4-2c4-3 7-8 6-13-1-6-3-10-9-11-6-2-13-2-20-2v43h6v-13m361 7v6h6v-36c10-1 15 1 16 6 1 6-2 8-15 9l1 3 11 14c3 5 7 4 12 4l-13-15c7-3 11-8 11-14s-4-12-10-13l-19-1v37m55 6h6v-6h-19v-12h14c5 0 5-1 4-7h-18v-11h19v-6h-26v42h20m42-12c0-6-2-9-8-11l-12-2c-2-1-4-3-4-5l3-5c4-2 8-2 11 1s5 4 9 2c-2-9-12-12-21-9-5 1-9 6-9 11s3 9 9 11l10 2c4 0 6 4 4 7-3 5-12 6-15 1-2-3-4-3-8-3 0 6 4 11 10 12 10 1 19-2 21-12m-150-25c-4-6-18-7-24-3-8 6-13 15-9 26 4 9 9 15 22 14 8-1 16-7 18-16-4 0-6 0-8 3-2 4-5 7-10 7-7 1-14-3-16-10s1-14 7-18 12-3 18 3c2 3 4 5 9 3l-7-9m-761 4 6 6h5c-2-11-11-16-23-15-10 1-16 9-17 23 0 8 8 18 16 19 12 2 21-4 25-16h-6c-3 6-7 10-14 10-6 0-10-2-13-7-3-6-3-12 2-18 4-5 10-6 19-2m608 33c2 0 3 0 3-3v-16h17v19h7v-42h-6v17h-18v-17h-6v40l3 2m-548-42h-5v42h26v-6h-19v-12h18v-7h-19v-11h15c5 0 6-2 4-6h-20m723 8-5 14-8 20h7l4-10h12c5-1 6 1 7 5 0 6 4 6 8 5l-15-40-4-2-4 3-2 5m-131 2-13 32c10 3 8-6 11-10h14c2 0 3 0 4 3 2 4 3 9 10 7l-5-12-11-27c0-1-2-3-4-3l-3 3-3 7m-351 22h11c5-1 6 1 7 5 0 5 4 6 8 5l-15-39c-1-1-3-4-4-3-2 0-3 2-4 4l-7 18-8 20h6l6-10m-213-3-5 13h7l4-10h13c3 0 5 1 6 5 0 5 3 6 8 5l-16-40c0-1-2-3-3-2-2 0-3 2-4 3l-10 26m93-28-22-2v6h7v31h-8v6h22c1-5 1-5-7-6v-26c0-4 1-6 5-5 2 0 3-1 3-4m516 10v-6h13v-5h-31v6h12v36h6v-31m-556 3v-9h12v-5h-31v6h13v36h6v-28m431-9h9v37h6v-37h12v-5h-31c1 2-2 5 4 5m-74 31h-9v-36h-6v42h26v-6h-11z"/><path fill="#112959" d="m470 367-25 44-16 27c-8 11-19 13-30 8-5-3-9-9-12-15l-32-55-5-9h-1v84l-1 9c-2 12-7 17-20 19-11 1-21-2-26-14l-1-3V295l2-16c2-5 7-9 12-10 18-4 30 0 39 17l57 102 10-18 18-34 29-50c3-5 6-11 11-14 9-7 20-6 30-2 8 4 11 12 11 21v160l-1 13c-3 9-9 13-18 14-13 2-25-2-28-15l-1-12v-87l-2 3zM871 331l-1-22 3-25c3-10 12-13 21-14l77 1c17 0 33 4 48 12 26 13 41 34 47 62 4 22 4 44-3 65a87 87 0 0 1-65 61c-14 3-28 4-42 5h-62c-14-1-22-9-23-22v-39a136503 136503 0 0 0 0-45v-39m142 35-1-8c-3-22-15-36-37-42-16-4-33-2-50-3v119h40c25-3 40-15 45-38 2-9 2-18 3-28zM676 479c-9 0-17-2-22-9l-4-8V297l2-17c4-11 14-13 24-13 12 1 19 10 25 18l55 69 28 33v-93c0-6-1-12 3-18l8-6c8-3 17-4 25-1 8 4 13 11 13 20v162l-1 13c-3 9-11 14-21 15-13 1-21-7-28-16l-34-43-39-48-10-13v6l-1 83-1 16c-2 8-9 13-18 14l-4 1zM868 667l3 33c-1 15-4 29-10 43a96 96 0 0 1-55 51c-16 6-33 7-50 6-22-1-42-8-58-22a95 95 0 0 1-34-57l-3-30c1-17 4-34 12-50 14-28 37-45 69-51 21-4 42-3 62 4 33 11 54 34 63 68l1 5m-150 24c-1 13 1 26 6 38 8 15 20 25 38 26s34-4 43-21c14-26 14-53 1-79-15-30-64-29-79-1-6 11-9 23-9 37zM904 601c5-9 16-14 26-13 6 1 13 2 17 7 4 4 8 9 8 16v98c0 8 2 16 4 24 4 13 17 22 30 22 13 1 25-2 34-12 5-6 7-13 8-20l2-21v-90c0-17 13-25 29-23 15 1 23 12 23 25v108c-1 20-7 39-22 54a70 70 0 0 1-42 22c-15 1-30 3-44 2-16-2-32-6-45-16-11-8-19-18-23-30l-8-34V616l3-15zM1452 363v35c-1 19-6 37-18 52a70 70 0 0 1-46 26c-14 3-29 4-44 3-18-2-35-7-50-20a79 79 0 0 1-24-47c-2-11-2-22-2-33v-89c0-8 6-19 17-21 8-2 17-2 25 2 9 5 12 14 12 25v91l2 19c4 21 22 31 42 28 15-2 26-10 30-25 3-7 3-15 3-23l1-88c0-6 0-13 3-18 5-12 14-13 24-12 5 0 11 2 16 4 6 4 9 11 9 19v72z"/><path fill="#122959" d="M632 765a75 75 0 0 1-45 31 158 158 0 0 1-91-5c-6-2-12-4-17-8-11-9-11-22-2-34 5-7 12-7 20-5 5 0 10 3 14 5l24 6c12 1 25 2 37-1 6-1 11-5 14-10l1-2c0-3 1-7-1-9-2-3-5-7-8-8l-30-7-25-7c-11-2-21-5-28-12-7-6-13-13-17-20a60 60 0 0 1 4-56c9-14 21-23 37-28 34-12 67-9 99 6 17 8 16 30 3 38-5 3-10 4-16 2-8-2-15-5-23-6-5-2-10-2-15-2h-18c-7 1-13 4-18 9-6 6-6 18 3 22l25 8c18 4 36 6 53 15 19 9 31 28 28 52-1 9-3 18-8 26z"/><path fill="#112959" d="M1419 790c-10 5-20 8-31 9l-37 1c-7 0-14-2-21-4l-28-8c-16-7-20-20-13-34 5-10 12-13 24-10 10 3 20 7 31 9 14 3 29 5 43 1 4-1 8-4 11-6 9-6 7-19-5-23l-42-10c-14-3-28-7-41-15a61 61 0 0 1-9-82c10-12 21-19 35-24a131 131 0 0 1 101 9c8 5 10 13 9 22-1 8-6 14-13 16-8 3-15 0-22-3-9-4-18-5-27-5h-19c-9 1-17 4-21 12-5 8-1 17 6 20l25 7c17 4 35 6 51 14 38 18 36 63 17 86-7 8-15 13-24 18z"/><path fill="#102858" d="M1227 394h-73v61c0 11-6 19-16 22-9 3-19 3-28-3-5-4-7-9-9-15v-10a68227 68227 0 0 1 1-162c3-11 11-15 21-17h103c8 0 15 2 19 10 4 10 2 26-9 30l-13 1-62 1h-6v41h64c22-1 25 19 19 31-2 4-7 7-11 10z"/><path fill="#122959" d="M1175 690v62h69l8 1c11 2 17 9 17 20 0 14-4 20-15 23l-8 1h-103c-9 0-19-8-21-17l-1-11V618c0-24 15-29 33-27 14 2 21 11 21 26v73z"/><path fill="#112959" d="M1543 431h68l13 2c7 2 12 9 12 17v10c-3 10-10 16-20 16h-107c-8 0-18-9-20-17l-1-14V295c1-18 10-24 25-25 10 0 19 2 25 10 4 6 4 12 4 19v131l1 1z"/><path fill="#122959" d="m587 267 13 4c8 4 12 12 12 22v157c0 8-1 16-8 22-4 5-10 6-16 7-12 1-23-2-28-15l-2-11V294c1-18 9-27 29-27z"/><path fill="#108743" d="m973 573 5 7c1-36 7-69 38-90h3l-1 20-12 43c-2 6-6 10-12 12-4 1-7 4-10 7l-1 2 1 27-4 1-6-17-3-9 2-3m15-41 10 3v-1l-8-2 5-1-5-2-2 3z"/><path fill="#128945" d="M958 577c-10 0-21 1-30-5l-15-15-9-9c-2-2-3-6-4-10 18-1 35-2 49 10 0 7 1 13 9 15l4 3h2c2 3 2 6 0 8l-2 3h-2l-1-2-1 2m-11-21 1-1-1 1m-1-4h1-1m-2 9 1 1-1-1zM980 602l4-1 10-3c6-3 11-3 16 2l-21 5 1 3c3 0 3 2 3 4l-3 19h-4l7 45-5-3-5-19-1-20c0-4-1-6-4-7-4-2-7-5-9-8-4-7 2-16 11-17z"/><path fill="#1D3461" d="m894 917-9-25h7l4 14 5 13h2l4-12 4-4c3-1 3 2 4 4l5 15 9-25c1-4 3-6 8-5l-14 40-3 2-3-2-6-17-6 16c-1 1-2 3-4 3l-3-3-4-14zM779 912c0 9 5 15 12 17 5 1 11-2 15-9h-14v-6h22c1 9-7 19-18 21-12 1-20-5-23-15-3-14 5-26 14-28 13-3 25 4 27 15-4 0-7 0-9-4s-10-7-16-5-9 7-10 14z"/><path fill="#1A315F" d="M982 908c0 16-4 22-18 26-11 4-24-7-25-17-2-12 6-23 17-25s22 4 26 16m-6 6c0-8-4-13-10-16-7-2-14 0-18 6a15 15 0 0 0 15 24c7-1 11-5 13-14z"/><path fill="#122959" d="m750 919-10-13v28h-6v-44l7 5 15 22 3 4v-29h6v41c-4 2-6 0-8-2l-7-12z"/><path fill="#1A315F" d="M1071 892c12-1 20 7 22 19 1 10-6 21-15 22h-21v-41h14m-8 31v5c9 0 17 1 22-7 3-6 3-12-1-17-5-8-13-6-21-6v25z"/><path fill="#1D3461" d="m587 916-6 3 12 14c-7 2-7 2-12-5l-13-15c9 0 16 1 17-9 0-5-6-7-16-6v36h-6v-43l19 1c10 3 12 16 5 24z"/><path fill="#1A315F" d="M996 921v13h-6v-43c7 0 14 0 20 2 6 1 8 5 9 11 1 5-2 10-6 13l-4 2 12 14-1 2c-3-1-7-2-9-4l-12-13-1-5c12-1 15-3 14-8 0-6-6-9-16-7v23z"/><path fill="#1D3461" d="M1357 928v-37l19 1c6 1 10 7 10 13s-4 11-11 14l13 15c-5 0-9 1-12-4l-11-14-1-3c13-1 16-3 15-9-1-5-6-7-16-6v36h-6v-6zM1412 934h-20v-42h26v6h-19v11h18c1 6 1 7-4 7h-14v12h19v6h-6z"/><path fill="#1A315F" d="M1454 923c-2 9-11 12-21 11-6-1-10-6-10-12 4 0 6 0 8 3 3 5 12 4 15-1 2-3 0-7-4-7l-10-2c-6-2-9-6-9-11s4-10 9-11c9-3 19 0 21 9-4 2-6 1-9-2s-7-3-11-1l-3 5c0 2 2 4 4 5l12 2c6 2 8 5 8 12z"/><path fill="#1D3461" d="m1305 897 6 9c-5 2-7 0-9-3-6-6-12-7-18-3s-9 11-7 18 9 11 16 10c5 0 8-3 10-7 2-3 4-3 8-3-2 9-10 15-18 16-13 1-18-5-22-14-4-11 1-20 9-26 6-4 20-3 25 3z"/><path fill="#1A315F" d="M543 901c-9-4-15-3-19 2-5 6-5 12-2 18 3 5 7 7 13 7 7 0 11-4 14-10h6c-4 12-13 18-25 16-8-1-16-11-16-19 1-14 7-22 17-23 12-1 21 4 23 15h-5l-6-6z"/><path fill="#122959" d="m1150 934-2-2v-40h6v17h18v-17h6v42h-7v-19h-17v16c0 3-1 3-4 3z"/><path fill="#1D3461" d="M603 892h20c2 4 1 6-4 6h-15v11h19v7h-18v12h19v6h-26v-42h5z"/><path fill="#1A315F" d="m1326 899 2-4 4-3 4 2 15 40c-4 1-8 1-8-5-1-4-2-6-7-5h-12l-4 10h-7l8-20 5-15m8 6-2-4-6 16h13l-5-12zM1195 902l3-7 3-3c2 0 4 2 4 3l11 27 5 12c-7 2-8-3-10-7-1-3-2-3-4-3h-14c-3 4-1 13-11 10l13-32m4 7-3 9h12l-6-17-3 8zM844 924l-6 10h-6l8-20 7-18c1-2 2-4 4-4 1-1 3 2 4 3l15 39c-4 1-8 0-8-5-1-4-2-6-7-5h-11m9-19-2-4-6 16h13l-5-12zM631 921a760 760 0 0 1 14-29c1-1 3 1 3 2l16 40c-5 1-8 0-8-5-1-4-3-5-6-5h-13l-4 10h-7l5-13m16-15-2-5-6 16h13l-5-11z"/><path fill="#389B61" d="M993 612c0-2 0-4-3-4l-1-3 7 2c6 5 12 7 19 6v15c-1 2-4 3-6 4l-1-6-1-8h-1l-1 13 1 1 2-6v6h-8l-1-6 2 1 2-14c-5 6-6 12-6 19l-7-1a188 188 0 0 1 3-19m18 15v-3h-1v6h1v-3z"/><path fill="#1A315F" d="M724 893c0 3-1 4-3 4-4-1-5 1-5 5v26c8 1 8 1 7 6h-22v-6h8v-31h-7v-6l22 2z"/><path fill="#122959" d="M1240 903v31h-6v-36h-12v-6h31v5h-13v6z"/><path fill="#1A315F" d="M684 906v28h-6v-36h-13v-6h31v5h-12v9zM1114 897c-5 0-2-3-3-5h31v5h-12v37h-6v-37h-10z"/><path fill="#122959" d="M1042 928h10v6h-26v-42h6v36h10z"/><path fill="#108743" d="M1016 613c-8 1-14-1-20-6l-7-2 22-5 5 13z"/><path fill="#389B61" d="m962 577 2-3c2-2 2-5 0-8l-2-9 11 15-3 4-8 1zM958 563c-8-2-9-8-9-15l9 4v11z"/><path fill="#FEFEFE" d="M870 375a1116 1116 0 0 1-1 2l1-2zM870 331a1059 1059 0 0 1-1 2l1-2z"/><path fill="#108743" d="M997 632c0-7 1-13 6-19l-2 14-2-1 1 6h-3zM958 563v-11l4 4 2 10h-2l-1-7a134641 134641 0 0 0-3 4zM1008 632v-6l1 5-1 1z"/><path fill="#DCE0E6" d="M349 370v-3h1l-1 3z"/><path fill="#389B61" d="m958 577 1-2 1 2h-2z"/><path fill="#EDEFF3" d="m471 368 1-4v4h-1z"/><path fill="#DCE0E6" d="m1543 431-1-1 1 1z"/><path fill="#FEFFFF" d="M1013 366c-1 10-1 19-3 28-5 23-20 35-45 38h-40V313c17 1 34-1 50 3 22 6 34 20 37 42l1 8z"/><path fill="#FEFEFE" d="M718 690c0-13 3-25 9-36 15-28 64-29 79 1 13 26 13 53-1 79-9 17-25 22-43 21s-30-11-38-26c-5-12-7-25-6-39z"/><path fill="#389B61" d="m989 532 9 2v1l-9-3zM989 532l1-3 5 2-6 1zM958 563l3-4 1 7-4-3zM947 556l1-1-1 1zM946 552h1-1zM944 561l1 1-1-1zM941 565zM941 565z"/><path fill="#FEFEFE" d="M976 915c-2 8-6 12-13 13a15 15 0 0 1-15-24c4-6 11-8 18-6 6 3 10 8 10 17zM1063 923v-25c8 0 16-2 21 6 4 5 4 11 1 17-5 8-13 7-22 7v-5z"/><path fill="#EDEFF3" d="m1334 905 5 12h-13l6-16 2 4zM1199 908l3-7 6 17h-12l3-10zM853 905l5 12h-13l6-16 2 4zM647 907l5 10h-13l6-16 2 6z"/><path fill="#108743" d="m1008 626-2 6-1-1 1-13h1l1 8zM1011 627v3h-1v-6h1v3z"/><path fill="#128945" d="M993 612z"/></svg>