<svg xml:space="preserve" width="1000" height="666.7" xmlns="http://www.w3.org/2000/svg"><path d="M0 5000h7500V0H0v5000" style="fill:#c2ebeb;fill-opacity:1;fill-rule:nonzero;stroke:none" transform="matrix(.13333 0 0 -.13333 0 667)"/><path d="M7500 5000V3370a4682 4682 0 0 1-1171 704 6679 6679 0 0 1-3559 480A6684 6684 0 0 1 0 3495v1505h7500" style="fill:#a2e0e7;fill-opacity:1;fill-rule:nonzero;stroke:none" transform="matrix(.13333 0 0 -.13333 0 667)"/><path d="M4925 3024c13 66-28 165-92 190-63 25-144 0-181-56a177 177 0 0 1-236 58c16 103-70 209-176 219-106 9-210-82-212-186-36 34-94 42-139 21-45-22-73-72-75-150-34 28-87 31-125 9s-59-69-49-111c467-1 811 6 1285 6M-459 3721l2387 67c2 216-193 361-338 292a281 281 0 0 1-262 219 414 414 0 0 1-54 579 395 395 0 0 1-559-116c-28 128-186 206-302 149 28 126-8 266-93 362-86 96-218 146-298 134-235 30-471-114-597-319s-155-460-128-701c28-240 109-471 244-666M8249 3942c73 135 53 320-47 435a352 352 0 0 1-408 89c3 151-74 289-191 354a350 350 0 0 1-376-28c-24 225-152 409-327 481a488 488 0 0 1-522-110 553 553 0 0 1-126-545c-183 72-348 58-446-42a334 334 0 0 1-42-393c-95 52-215 48-306-10a343 343 0 0 1-382 158c-142-41-249-188-243-404 1112 1 2225 3 3415 15M-250 2936c72 50 167 65 251 39 83-27 153-94 182-176 83 22 177-2 239-61a296 296 0 0 0 286 228c132-2 255-107 277-238 84 34 189-48 177-138-492 9-983 2-1475-21-88 71-87 262 63 367M7534 2684a293 293 0 0 1-289 120 293 293 0 0 1-226-216c-29 31-78 42-118 25-39-17-65-60-63-102-63 48-154 55-224 19a215 215 0 0 1-113-195l1003-5c62-1 133 2 175 49 40 44 36 116 5 168-31 51-102 68-150 137" style="fill:#fff;fill-opacity:1;fill-rule:nonzero;stroke:none" transform="matrix(.13333 0 0 -.13333 0 667)"/><path d="M509 1333c-35 89-13 196 56 264 69 69 180 96 275 66 7 145 103 283 241 347 137 63 310 50 435-34 136 95 364 16 404-140 116 77 306 4 333-129a395 395 0 0 0 476 81 339 339 0 0 0 285 286c147 21 304-62 362-192 75 90 261 23 256-91 84 87 252 78 326-17a359 359 0 0 0 260 223c118 26 250-11 335-94 10 130 138 241 274 239 137-2 261-117 266-247 118 44 268-27 304-142 111 65 263 58 367-17-24 102 46 217 152 247 106 31 231-27 271-125 99 92 279 84 369-15a325 325 0 0 0 261 230c124 19 258-37 311-105 159 5 284-146 302-296 17-150-44-297-104-437a66799 66799 0 0 1-6817 98" style="fill:#99dde1;fill-opacity:1;fill-rule:nonzero;stroke:none" transform="matrix(.13333 0 0 -.13333 0 667)"/><path d="M7998 1235a7056 7056 0 0 1-1994 198 305 305 0 0 0 34 352 306 306 0 0 0 347 68c-12 79 25 164 93 208 67 44 160 44 227 0a383 383 0 0 0 354 436c107 2 208-51 277-132 70-80 109-187 92-292 93 20 196-13 260-83s88-175 60-266c104 53 235-34 272-145 36-111 7-231-22-344" style="fill:#0cada3;fill-opacity:1;fill-rule:nonzero;stroke:none" transform="matrix(.13333 0 0 -.13333 0 667)"/><path d="M7337 2365c-274 116-594-91-562-454-64 35-143 40-211 15s-125-80-151-148c-88 67-207 85-313 58 84 51 196 60 286 17-13 79 24 164 92 208 67 44 160 44 227 0a383 383 0 0 0 354 436c107 2 208-51 277-132" style="fill:#2bb7a9;fill-opacity:1;fill-rule:nonzero;stroke:none" transform="matrix(.13333 0 0 -.13333 0 667)"/><path d="M7104 2146c27-5 51-28 56-55 6-27-8-57-31-71 11 41 8 86-25 126M6507 1718c25-9 45-32 52-59 6-26-1-55-19-76-8 39-16 78-33 135M7022 1695c29-17 47-52 43-85-3-34-28-64-60-75 15 43 22 88 17 160M7494 1811c22-16 34-44 33-71s-17-53-41-67c0 42 0 83 8 138" style="fill:#089695;fill-opacity:1;fill-rule:nonzero;stroke:none" transform="matrix(.13333 0 0 -.13333 0 667)"/><path d="M1581 1253c-712 16-1426-48-2183-147-81 82-132 203-101 314 31 112 161 194 306 177a414 414 0 0 0 74 485c128 121 339 142 518 39 74 77 212 79 288-13 3 131 110 251 239 276 130 24 269-43 337-155 69-113 65-263 28-401 67 47 164 45 227-6 10-7 18-16 26-25 44-53 61-134 52-224 127-25 212-176 189-320" style="fill:#0cada3;fill-opacity:1;fill-rule:nonzero;stroke:none" transform="matrix(.13333 0 0 -.13333 0 667)"/><path d="M1340 1797a426 426 0 0 1-375-77c52 107 60 238 5 343-56 104-181 173-296 147-116-26-201-158-163-270a311 311 0 0 1-393 67 403 403 0 0 1-517-27c20 38 45 72 76 102 128 121 339 142 518 40 74 76 212 78 288-14 3 131 110 251 239 276 130 24 269-43 337-155 69-113 65-263 28-401 67 47 164 45 227-6 10-7 18-16 26-25" style="fill:#2bb7a9;fill-opacity:1;fill-rule:nonzero;stroke:none" transform="matrix(.13333 0 0 -.13333 0 667)"/><path d="M718 1962c26-1 50-19 60-43 9-24 3-53-16-71-3 46-27 89-44 114M307 1786c38-27 50-85 25-124-10 42-21 85-25 124M848 1652c34-31 38-88 10-123 2 42-9 85-10 123M47 1553c24-3 46-19 56-42 9-22 4-49-11-68-8 43-26 85-45 110" style="fill:#089695;fill-opacity:1;fill-rule:nonzero;stroke:none" transform="matrix(.13333 0 0 -.13333 0 667)"/><path d="M0 0v1396c2576 202 5078 208 7500 0V0H0" style="fill:#fbc396;fill-opacity:1;fill-rule:nonzero;stroke:none" transform="matrix(.13333 0 0 -.13333 0 667)"/><path d="M0 0v1235c3547 399 4839-84 7500-269V0H0" style="fill:#f9a981;fill-opacity:1;fill-rule:nonzero;stroke:none" transform="matrix(.13333 0 0 -.13333 0 667)"/><path d="M3844 907c434 0 785-36 785-79 0-44-351-80-785-80-434 1-786 36-786 80 0 43 352 79 786 79" style="fill:#e97e64;fill-opacity:1;fill-rule:nonzero;stroke:none" transform="matrix(.13333 0 0 -.13333 0 667)"/><path d="M4000 3926c55 24 124 11 166-31 43-43 57-111 34-167-8-21-22-42-17-65 9-36 56-42 92-52 60-18 109-70 122-131s-11-128-59-168c-32-27-77-45-91-85-8-22-5-45-10-67-10-40-46-69-84-83-70-27-154-14-213 33-58 46-90 125-79 200 6 39 22 76 32 115s12 82-8 117c-26 43-87 70-86 121 0 32 27 60 30 93 3 28-14 56-12 84 2 33 28 61 59 74 30 13 69-12 124 12" style="fill:#200c15;fill-opacity:1;fill-rule:nonzero;stroke:none" transform="matrix(.13333 0 0 -.13333 0 667)"/><path d="M3628 803c-6-35-371 49-378 89-2 13 17 26 43 38 53 23 133 40 133 40l185-34 7-35c6-32 13-77 10-98" style="fill:#f1486b;fill-opacity:1;fill-rule:nonzero;stroke:none" transform="matrix(.13333 0 0 -.13333 0 667)"/><path d="M3618 900c-108-42-278 13-325 30 53 23 133 40 133 40l185-35 7-35" style="fill:#f57d6c;fill-opacity:1;fill-rule:nonzero;stroke:none" transform="matrix(.13333 0 0 -.13333 0 667)"/><path d="M4398 1039c19-29-306-216-338-191-10 8-5 31 6 57 23 52 70 120 70 120l159 100 30-21c25-19 61-47 73-65" style="fill:#f1486b;fill-opacity:1;fill-rule:nonzero;stroke:none" transform="matrix(.13333 0 0 -.13333 0 667)"/><path d="M4325 1104c-50-105-213-179-259-199 23 52 70 120 70 120l159 100 30-21" style="fill:#f57d6c;fill-opacity:1;fill-rule:nonzero;stroke:none" transform="matrix(.13333 0 0 -.13333 0 667)"/><path d="m4302 1121-179-105s-328 537-366 625c-35 82-64 432-67 479v1l-1 4-34-556-39-645-222 38s-26 1252-20 1425c3 68 11 126 20 172 13 65 27 103 27 103l603 34c19-39 32-84 41-134 59-308-40-793-15-867 29-86 252-574 252-574" style="fill:#30abe7;fill-opacity:1;fill-rule:nonzero;stroke:none" transform="matrix(.13333 0 0 -.13333 0 667)"/><path d="M4065 2562a956 956 0 0 0-671-3c13 65 27 103 27 103l603 34c19-39 32-84 41-134M3689 2125l-34-556-116 724 141-48 10-119-1-1" style="fill:#288ad2;fill-opacity:1;fill-rule:nonzero;stroke:none" transform="matrix(.13333 0 0 -.13333 0 667)"/><path d="M4020 2642c39-319-33-910-24-953 12-53 169-359 254-538" style="fill:none;stroke:#216ec0;stroke-width:10;stroke-linecap:round;stroke-linejoin:miter;stroke-miterlimit:10;stroke-dasharray:none;stroke-opacity:1" transform="matrix(.13333 0 0 -.13333 0 667)"/><path d="M3966 2631c4-25 2-50 1-75-1-45 8-106 58-117M4274 1166c-52-38-107-72-165-102M3643 2590a967 967 0 0 1-6-323" style="fill:none;stroke:#216ec0;stroke-width:10;stroke-linecap:round;stroke-linejoin:miter;stroke-miterlimit:10;stroke-dasharray:none;stroke-opacity:1" transform="matrix(.13333 0 0 -.13333 0 667)"/><path d="M3689 2595c-11-49-17-100-19-150 0-14 0-29-6-42-7-13-22-22-35-18M3400 1010c69-15 139-24 210-26" style="fill:none;stroke:#216ec0;stroke-width:10;stroke-linecap:round;stroke-linejoin:miter;stroke-miterlimit:10;stroke-dasharray:none;stroke-opacity:1" transform="matrix(.13333 0 0 -.13333 0 667)"/><path d="M3735 3612c-92 5-177-54-229-128-53-75-79-165-103-253l223-34c39 131 78 262 109 415" style="fill:#f03462;fill-opacity:1;fill-rule:nonzero;stroke:none" transform="matrix(.13333 0 0 -.13333 0 667)"/><path d="M4010 3006c-7-47-11-95-10-146 2-68 37-174 68-234-218-86-463-90-684-38 13 66 26 118 36 197l1 14c24 202 19 403 93 586 64 139 227 281 352 293 97 10 226-135 203-360-11-108-42-206-59-313" style="fill:#f1486b;fill-opacity:1;fill-rule:nonzero;stroke:none" transform="matrix(.13333 0 0 -.13333 0 667)"/><path d="M4068 2626c-218-86-463-90-684-38 13 66 26 118 36 197l1 14c123-30 256-19 372 33 85 39 160 99 217 174-7-47-12-95-10-146 2-68 37-174 68-234" style="fill:#f14269;fill-opacity:1;fill-rule:nonzero;stroke:none" transform="matrix(.13333 0 0 -.13333 0 667)"/><path d="M3694 3633c3 41-2 82-16 119 65 29 128 62 219 114a408 408 0 0 1 31-202c-73-54-161-89-250-105 8 24 13 49 15 74" style="fill:#f57d6c;fill-opacity:1;fill-rule:nonzero;stroke:none" transform="matrix(.13333 0 0 -.13333 0 667)"/><path d="M3899 3767a390 390 0 0 0-205-134c3 41-2 82-16 119 65 29 128 62 219 114-4-33-3-66 2-99M3375 3954c10 31 54 46 97 32s71-50 61-82c-10-31-53-45-97-31-43 13-70 50-61 81" style="fill:#f46864;fill-opacity:1;fill-rule:nonzero;stroke:none" transform="matrix(.13333 0 0 -.13333 0 667)"/><path d="M3437 3906c10-77 43-164 110-202 44-25 92-32 147-19 96 24 212 125 239 239 12 56 11 115-9 169s-58 101-108 129a337 337 0 0 1-261 11c-135-50-127-249-118-327" style="fill:#f57d6c;fill-opacity:1;fill-rule:nonzero;stroke:none" transform="matrix(.13333 0 0 -.13333 0 667)"/><path d="M3891 3945c-80 26-145 92-167 174-77-36-166-50-251-40-23-32-38-69-45-107-3 73 9 146 37 212 119 38 244 57 375 52 41-73 56-161 51-291" style="fill:#f46864;fill-opacity:1;fill-rule:nonzero;stroke:none" transform="matrix(.13333 0 0 -.13333 0 667)"/><path d="M4034 4073c-10-58-32-117-61-174-22-8-35 13-72 7-90 67-160 176-156 262-73-52-187-71-278-60-26-52-32-100-32-175a362 362 0 0 0 11 323c54 96 163 162 274 154 38-2 78-15 109-42 10-9 20-20 28-33 142 18 195-160 177-262" style="fill:#200c15;fill-opacity:1;fill-rule:nonzero;stroke:none" transform="matrix(.13333 0 0 -.13333 0 667)"/><path d="M3829 4368c-66 21-140 16-204-11a365 365 0 0 1-178-180c-20-43-33-89-41-135-8 74 5 149 41 213 53 97 162 163 273 155 38-2 78-15 109-42" style="fill:#4b112a;fill-opacity:1;fill-rule:nonzero;stroke:none" transform="matrix(.13333 0 0 -.13333 0 667)"/><path d="M3901 3966c43 20 90 11 104-20 15-31-8-72-51-92s-89-12-104 19 8 72 51 93" style="fill:#f57d6c;fill-opacity:1;fill-rule:nonzero;stroke:none" transform="matrix(.13333 0 0 -.13333 0 667)"/><path d="M3660 3936c7 0 13-12 13-26 0-13-6-25-13-25-8 0-14 12-14 26 0 13 6 25 13 25M3490 3941c8 0 14-11 14-25s-6-25-14-25-14 11-14 25 6 25 14 25" style="fill:#16223b;fill-opacity:1;fill-rule:nonzero;stroke:none" transform="matrix(.13333 0 0 -.13333 0 667)"/><path d="M3629 4020c12 16 33 25 53 22s38-19 43-38c-26 18-61 22-96 16M3453 4028c4 17 22 30 39 29 18-1 34-16 37-33a98 98 0 0 1-76 4" style="fill:#200c15;fill-opacity:1;fill-rule:nonzero;stroke:none" transform="matrix(.13333 0 0 -.13333 0 667)"/><path d="M3544 3903c-6-17-5-37 4-52M3565 3800c37-4 75 5 105 26" style="fill:none;stroke:#ca2c3e;stroke-width:10;stroke-linecap:round;stroke-linejoin:miter;stroke-miterlimit:10;stroke-dasharray:none;stroke-opacity:1" transform="matrix(.13333 0 0 -.13333 0 667)"/><path d="M3319 3229c-35 155-68 312-63 471 3 55 11 113 48 153 15 17 38 31 61 29 43-4 64-54 70-96 26-178-45-355-47-535-25-10-51-20-69-23" style="fill:#0caea6;fill-opacity:1;fill-rule:nonzero;stroke:none" transform="matrix(.13333 0 0 -.13333 0 667)"/><path d="M3351 3245c-21 186-17 375 12 560-18-181-18-365 1-547-4-2-8-4-13-13" style="fill:#0e7685;fill-opacity:1;fill-rule:nonzero;stroke:none" transform="matrix(.13333 0 0 -.13333 0 667)"/><path d="M3349 3646c-22 34-39 70-52 109 11-40 27-78 46-115 2 4 5 8 6 6M3351 3684l65 64c-25-25-47-52-66-82l1 18M3341 3470l68 97c-15-14-31-28-44-45s-23-37-24-52M3350 3400l-55 91c11-33 29-64 55-91" style="fill:#0e7685;fill-opacity:1;fill-rule:nonzero;stroke:none" transform="matrix(.13333 0 0 -.13333 0 667)"/><path d="M3288 3214c-78 157-156 314-251 462-35 53-75 109-135 132-30 12-67 13-90-9-19-17-24-46-23-72 4-67 40-127 79-182 93-134 203-255 313-376 31 26 66 46 107 45" style="fill:#0caea6;fill-opacity:1;fill-rule:nonzero;stroke:none" transform="matrix(.13333 0 0 -.13333 0 667)"/><path d="M3218 3205a6017 6017 0 0 1-324 490l314-496 10 6" style="fill:#0e7685;fill-opacity:1;fill-rule:nonzero;stroke:none" transform="matrix(.13333 0 0 -.13333 0 667)"/><path d="m2975 3570 5 138c5-48 6-96-5-138M2959 3606l-117 60c32-31 73-53 117-60M3047 3464l13 129c6-47 3-95-13-129M3081 3408l-118 39c37-19 76-33 118-39M3150 3303c-1 44 2 87 7 131 10-41 8-85-7-131" style="fill:#0e7685;fill-opacity:1;fill-rule:nonzero;stroke:none" transform="matrix(.13333 0 0 -.13333 0 667)"/><path d="M3348 3231c-17 222-36 449-128 651-20 43-43 86-80 116-37 29-90 43-132 22-36-17-59-55-66-95-7-39-1-80 8-119 50-226 176-427 299-623 31 14 62 27 99 48" style="fill:#29b696;fill-opacity:1;fill-rule:nonzero;stroke:none" transform="matrix(.13333 0 0 -.13333 0 667)"/><path d="M3280 3235c-81 235-159 470-239 705 84-232 171-464 256-696-6-2-17-4-17-9" style="fill:#156e75;fill-opacity:1;fill-rule:nonzero;stroke:none" transform="matrix(.13333 0 0 -.13333 0 667)"/><path d="M3115 3737c14 48 28 101 47 148-21-41-38-83-51-127-1-7-1-20 4-21M3138 3664c-44 26-91 47-140 64 50-20 101-53 146-82-1 4-3 16-6 18M3185 3541c24 43 53 84 85 121-33-41-58-88-81-135 0 5-4 12-4 14M3217 3448c-39 10-79 13-118 9 39 2 81-11 119-24l-2 15M3251 3348c17 41 39 80 64 117-21-42-40-84-57-128-2 5-4 11-7 11" style="fill:#156e75;fill-opacity:1;fill-rule:nonzero;stroke:none" transform="matrix(.13333 0 0 -.13333 0 667)"/><path d="M3376 3222c-17 143-27 293 26 424 14 33 39 69 73 64 19-2 34-19 42-38 8-18 9-39 9-60 2-142-39-285-115-401-16-4-33-2-35 11" style="fill:#29b696;fill-opacity:1;fill-rule:nonzero;stroke:none" transform="matrix(.13333 0 0 -.13333 0 667)"/><path d="M3392 3252c15 131 41 261 77 388-27-129-47-259-65-390-3 0-8 0-12 2" style="fill:#156e75;fill-opacity:1;fill-rule:nonzero;stroke:none" transform="matrix(.13333 0 0 -.13333 0 667)"/><path d="M3441 3528c-6 26-17 50-33 72 12-26 23-52 33-79 2 4 3 8 0 7M3437 3494c25 18 51 34 79 48-28-17-54-36-78-57 1 4 1 8-1 9M3418 3392c-14 17-30 33-47 45 16-16 32-32 46-50 2 2 2 3 1 5M3410 3327c19 16 39 29 60 40l-60-45v5" style="fill:#156e75;fill-opacity:1;fill-rule:nonzero;stroke:none" transform="matrix(.13333 0 0 -.13333 0 667)"/><path d="M3201 3195c-98 133-202 270-348 348-18 11-39 20-60 20-22 0-45-10-53-30-11-29 12-59 34-81 113-112 246-204 392-269 9 6 18 12 35 12" style="fill:#29b696;fill-opacity:1;fill-rule:nonzero;stroke:none" transform="matrix(.13333 0 0 -.13333 0 667)"/><path d="M3183 3193a2667 2667 0 0 1-385 317c130-100 259-202 377-316 7 5-4 1 8-1" style="fill:#156e75;fill-opacity:1;fill-rule:nonzero;stroke:none" transform="matrix(.13333 0 0 -.13333 0 667)"/><path d="M2879 3452c-4 21-6 43-6 64 2-22 5-48 11-69-2 0-4 5-5 5M2975 3374c-3 23-4 46-2 70l7-68c-2 0-4 0-5-2M3071 3289c-2 19-2 38-1 57l6-51c-2-1-4-2-5-6M2869 3457c-20 0-39-4-57-10 23 3 42 5 63 5-1 3-6 4-6 5M2961 3384c-23-2-46-7-69-13l73 9-4 4M3049 3310l-57-19c19 7 43 13 63 15-1 2-5 3-6 4" style="fill:#156e75;fill-opacity:1;fill-rule:nonzero;stroke:none" transform="matrix(.13333 0 0 -.13333 0 667)"/><path d="m3581 2858-399-88-102 278-15 40-16 43-14 39-17 47 525 116 4-51 3-42 4-46 3-42 24-294" style="fill:#f8a31d;fill-opacity:1;fill-rule:nonzero;stroke:none" transform="matrix(.13333 0 0 -.13333 0 667)"/><path d="m3550 3240-501-109-14 39 512 112 3-42M3557 3152l-477-104-15 40 489 106 3-42" style="fill:#f3651e;fill-opacity:1;fill-rule:nonzero;stroke:none" transform="matrix(.13333 0 0 -.13333 0 667)"/><path d="m3985 3102-8-65c-12-76-34-192-65-207-71-34-596 29-596 29l-9 133s432 3 441 37c3 16 6 54 7 90l1 82 229-99" style="fill:#f57d6c;fill-opacity:1;fill-rule:nonzero;stroke:none" transform="matrix(.13333 0 0 -.13333 0 667)"/><path d="m3985 3102-8-65c-78 13-154 41-222 82l1 82 229-99" style="fill:#f46864;fill-opacity:1;fill-rule:nonzero;stroke:none" transform="matrix(.13333 0 0 -.13333 0 667)"/><path d="M3322 2980c-10 33-42 57-76 67s-70 8-106 6c-10 0-23-3-27-13-2-6 1-13 6-17 5-5 11-7 17-12-23-1-46-2-68-9-7-2-16-6-19-14-4-10 3-22 12-26 10-5 21-5 31-5-7-8-9-19-6-29s11-18 22-22c-6-7-8-18-4-27s13-16 23-17c-3-15 11-31 26-35 16-4 32-1 48 3 41 9 82 19 120 30 7 40 13 82 1 120" style="fill:#f57d6c;fill-opacity:1;fill-rule:nonzero;stroke:none" transform="matrix(.13333 0 0 -.13333 0 667)"/><path d="M3940 3576c-75 24-147-14-174-119-37-142-38-304-38-304 37-33 216-90 275-90 0 0 110 459-63 513" style="fill:#f03462;fill-opacity:1;fill-rule:nonzero;stroke:none" transform="matrix(.13333 0 0 -.13333 0 667)"/><path d="M4908 713c301 0 546-53 546-118s-245-118-547-118c-301 0-546 53-546 118s245 118 547 118M6391 729c494 0 895-56 895-126s-401-126-895-126c-495 0-895 56-895 126s400 126 895 126" style="fill:#e97e64;fill-opacity:1;fill-rule:nonzero;stroke:none" transform="matrix(.13333 0 0 -.13333 0 667)"/><path d="M5037 1519c-94-241-138-501-130-760M4724 1522a834 834 0 0 0 115-368c12-129 4-259-4-389M4868 1182c21-137 25-277 12-415" style="fill:none;stroke:#0c5c66;stroke-width:20;stroke-linecap:butt;stroke-linejoin:miter;stroke-miterlimit:10;stroke-dasharray:none;stroke-opacity:1" transform="matrix(.13333 0 0 -.13333 0 667)"/><path d="M5389 1155c0 14-11 25-22 34-28 22-58 40-89 57-100 53-214 84-314 141-47 27-92 63-114 112-21 50-9 117 38 144 29 16 65 15 96 4 31-12 58-32 85-56 43 25 87 50 137 56 10 2 21 2 31 1 96-5 181-86 208-181 29-104-3-217-56-312" style="fill:#0ba392;fill-opacity:1;fill-rule:nonzero;stroke:none" transform="matrix(.13333 0 0 -.13333 0 667)"/><path d="M5389 1155c0 14-11 25-22 34-28 22-58 40-89 57 35-7 69-19 101-36a284 284 0 0 1-142 438c96-5 182-86 208-181 29-104-3-217-56-312" style="fill:#1db29a;fill-opacity:1;fill-rule:nonzero;stroke:none" transform="matrix(.13333 0 0 -.13333 0 667)"/><path d="M5075 1584c77-43 143-105 195-176 53-71 93-150 124-233a620 620 0 0 1-319 409" style="fill:#0d707e;fill-opacity:1;fill-rule:nonzero;stroke:none" transform="matrix(.13333 0 0 -.13333 0 667)"/><path d="M5322 1344c-22-25-37-55-44-87 12 30 24 60 48 81-2 3-3 7-5 6M5248 1441c-69 13-142-18-197-61 49 44 122 79 191 69l6-8M5332 1331c36 1 72-11 102-32-27 28-68 42-107 39l5-7M5231 1461a165 165 0 0 0 198 27 163 163 0 0 1-204-20l6-7M5149 1537c20 47 60 86 107 105-50-14-92-52-112-101l5-4M5131 1549c-80 25-169 9-243-41 19 21 46 34 74 43 31 11 92 24 130 15 15-3 30-8 38-17" style="fill:#0d707e;fill-opacity:1;fill-rule:nonzero;stroke:none" transform="matrix(.13333 0 0 -.13333 0 667)"/><path d="M5289 918V692c-3-28-15-56-36-82l-61-75h-660l-62 78a149 149 0 0 0-35 92v213h854" style="fill:#3d89d1;fill-opacity:1;fill-rule:nonzero;stroke:none" transform="matrix(.13333 0 0 -.13333 0 667)"/><path d="M5289 692c-3-28-15-56-36-82l-61-75h-660l-62 78c-20 25-32 52-34 79h853" style="fill:#3870c0;fill-opacity:1;fill-rule:nonzero;stroke:none" transform="matrix(.13333 0 0 -.13333 0 667)"/><path d="M4436 865h853v-30h-853v30M4436 800h853v-30h-853v30" style="fill:#64beed;fill-opacity:1;fill-rule:nonzero;stroke:none" transform="matrix(.13333 0 0 -.13333 0 667)"/><path d="M5491 878c-20-42-55-79-57-124-58 39-132 49-203 59l-66 9c-49 8-97 20-139 46-60 37-101 111-74 174 14 33 47 59 85 67 60 11 118-21 168-54 39 59 133 82 204 53l24-12c71-46 93-144 58-218" style="fill:#15b091;fill-opacity:1;fill-rule:nonzero;stroke:none" transform="matrix(.13333 0 0 -.13333 0 667)"/><path d="M5491 878c-20-42-55-79-57-124-58 39-132 49-203 59l-66 9c83-5 170 9 250-15 36 48 65 105 63 164-1 53-28 104-69 137l24-12c71-46 93-144 58-218" style="fill:#2db793;fill-opacity:1;fill-rule:nonzero;stroke:none" transform="matrix(.13333 0 0 -.13333 0 667)"/><path d="M5215 1049c95-74 171-172 218-282a426 426 0 0 1-218 282" style="fill:#0a908b;fill-opacity:1;fill-rule:nonzero;stroke:none" transform="matrix(.13333 0 0 -.13333 0 667)"/><path d="M5260 1017c-54 7-109 1-160-18-41-15-81-40-99-80 17 40 53 69 93 84 41 16 84 19 127 21 13 1 27 0 39-7M5329 952c-76 0-150-47-184-115 12 31 33 57 59 77 26 19 56 33 87 43 6 2 12 4 18 3 7 0 13-3 19-8M5400 851c-19-13-32-32-39-54-1 19 10 37 22 52 2 3 5 6 8 7 4 1 9-2 9-5M5382 882c31 10 67 2 92-20-27 16-59 21-89 14l-3 6M5311 973c30 11 61 19 93 16 26-3 56-12 87-30-51 41-125 49-183 20 2-2 4-4 3-6M5243 1032c45 50 120 73 186 56-36 13-74 12-101 4-33-10-66-35-94-56 2-3 10-3 9-5" style="fill:#0a908b;fill-opacity:1;fill-rule:nonzero;stroke:none" transform="matrix(.13333 0 0 -.13333 0 667)"/><path d="M4807 1514c-10-45-48-79-89-99-41-21-86-30-129-46a356 356 0 0 1-137-85c-36-39-61-93-58-148-44 98-53 195-29 282a369 369 0 0 0 155 213c55 35 124 55 188 35 63-19 113-87 99-152" style="fill:#0ba392;fill-opacity:1;fill-rule:nonzero;stroke:none" transform="matrix(.13333 0 0 -.13333 0 667)"/><path d="M4421 1505c-40-85-51-183-42-277 22 34 55 60 92 74a209 209 0 0 1-77-166c-44 98-53 195-29 282 22 83 74 157 144 205-36-32-67-73-88-118" style="fill:#1db29a;fill-opacity:1;fill-rule:nonzero;stroke:none" transform="matrix(.13333 0 0 -.13333 0 667)"/><path d="M4547 1636c50 10 104 0 147-27 42-28 74-73 85-123a232 232 0 0 1-232 150M4435 1527c72-9 139-60 160-129-31 61-89 108-160 129M4370 1382c32-31 49-78 42-123-6 43-20 84-42 123" style="fill:#0d707e;fill-opacity:1;fill-rule:nonzero;stroke:none" transform="matrix(.13333 0 0 -.13333 0 667)"/><path d="M4814 924c-60-34-129-43-198-55l-49-8c-84-16-173-51-213-127-16 82-33 166-14 247 15 64 60 124 118 148 16 7 33 11 51 11 41 1 81-16 114-41 44 13 98 27 151 22 50-5 104-34 112-84 7-47-31-89-72-113" style="fill:#15b091;fill-opacity:1;fill-rule:nonzero;stroke:none" transform="matrix(.13333 0 0 -.13333 0 667)"/><path d="m4616 869-49-8c-84-16-173-51-212-127-17 82-34 166-15 247 15 64 60 124 118 148-37-24-66-62-82-103-28-71-24-150-13-225 48 40 109 60 171 66 27 3 55 3 82 2" style="fill:#2db793;fill-opacity:1;fill-rule:nonzero;stroke:none" transform="matrix(.13333 0 0 -.13333 0 667)"/><path d="M4616 1092a433 433 0 0 1-262-347c1 78 28 156 75 219 48 62 115 109 187 128" style="fill:#0a908b;fill-opacity:1;fill-rule:nonzero;stroke:none" transform="matrix(.13333 0 0 -.13333 0 667)"/><path d="M4565 1071c49 6 100 8 147-9 46-17 88-56 95-105-11 49-55 84-103 98-47 14-98 11-148 8 5 3 9 7 9 8M4480 1011a170 170 0 0 0 162-126c-11 35-36 64-67 84-30 20-65 30-101 35 3 2 6 4 6 7M4392 890c22-11 37-32 42-56-9 17-21 32-35 44-3 2-5 4-6 7s0 7-1 5M4461 993c-42 8-88-8-117-41 28 38 80 58 126 47-3-3-6-7-9-6M4538 1054c-31 25-68 41-107 46 42 3 85-13 116-42-2-2-5-3-9-4M4386 873c-9 0-18-4-26-9s-15-12-21-18l47 27" style="fill:#0a908b;fill-opacity:1;fill-rule:nonzero;stroke:none" transform="matrix(.13333 0 0 -.13333 0 667)"/><path d="M5206 1152c-37-88-127-139-211-184a430 430 0 0 1-194 157c-44 18-92 29-136 49-13 6-27 12-39 21-53 34-91 104-63 160 15 30 46 49 77 60 78 28 170 11 220-45 64 72 182 88 264 37 35-22 61-54 77-91 23-51 26-112 5-164" style="fill:#29b696;fill-opacity:1;fill-rule:nonzero;stroke:none" transform="matrix(.13333 0 0 -.13333 0 667)"/><path d="M5206 1152c-37-88-127-139-211-184a430 430 0 0 1-194 157c-44 18-92 29-136 49 21-7 43-11 65-15 52-9 106-14 155-34 50-19 96-55 113-106 89 15 168 83 196 169 14 41 16 86 7 128 23-51 26-111 5-164" style="fill:#37ba94;fill-opacity:1;fill-rule:nonzero;stroke:none" transform="matrix(.13333 0 0 -.13333 0 667)"/><path d="M4865 1363c34-61 68-122 93-186 25-65 41-134 39-203 9 70-4 141-29 207-25 65-62 126-103 182" style="fill:#129f90;fill-opacity:1;fill-rule:nonzero;stroke:none" transform="matrix(.13333 0 0 -.13333 0 667)"/><path d="M4981 1125c-29-10-55-31-71-57 18 23 45 40 74 46l-3 11M4934 1245c-72-4-143-33-196-82 56 44 127 70 198 74l-2 8M4890 1326a338 338 0 0 1-310-41c35 34 81 54 129 62 47 8 96 5 144-3 14-2 31-6 37-18M4987 1099c42 0 84-17 114-46-12 19-31 32-52 40-20 8-43 12-65 13 2-3 4-6 3-7M4942 1231c44-1 89-2 131-14 43-11 84-35 109-71-22 40-63 68-107 80-44 13-90 13-136 9 1-3 2-6 3-4M4898 1311c87 51 200 55 291 10-40 29-91 42-140 42-50-1-99-15-143-38-3-2-7-4-9-7-2-4-2-8 1-7" style="fill:#129f90;fill-opacity:1;fill-rule:nonzero;stroke:none" transform="matrix(.13333 0 0 -.13333 0 667)"/><path d="M6481 922c-6-45-20-90-40-132 39 29 57 84 40 132" style="fill:#1c3459;fill-opacity:1;fill-rule:nonzero;stroke:none" transform="matrix(.13333 0 0 -.13333 0 667)"/><path d="M6321 2529c19-9 34-27 39-47 6-21 3-50-9-66-12 3-24 18-28 29 1-7 2-10 8-19-25 12-38 70-10 103M6316 2525c12 17 15 40 6 59-9 20-28 34-48 36-1 29-12 52-30 66a67 67 0 0 1-64 9c-8 27-26 46-48 53s-47 1-65-17c4-21 17-40 35-51 19-11 44-11 66-7 4-20 14-41 31-52 18-10 39-13 60-9-8-17-7-39 3-56 10-16 28-28 54-31" style="fill:#200c15;fill-opacity:1;fill-rule:nonzero;stroke:none" transform="matrix(.13333 0 0 -.13333 0 667)"/><path d="M6299 2534c9 3 18-1 21-10 3-8-1-17-9-20s-18 1-21 10c-3 8 1 17 9 20" style="fill:#f24c8c;fill-opacity:1;fill-rule:nonzero;stroke:none" transform="matrix(.13333 0 0 -.13333 0 667)"/><path d="M6326 2544c8 3 17-1 20-9 3-9-1-18-9-21s-17 2-20 10 1 17 9 20" style="fill:#f24c8c;fill-opacity:1;fill-rule:nonzero;stroke:none" transform="matrix(.13333 0 0 -.13333 0 667)"/><path d="m5455 1894 306 13 17 255 240-110s-119-339-174-335c-54 4-337 16-337 16l-52 161" style="fill:#f46b61;fill-opacity:1;fill-rule:nonzero;stroke:none" transform="matrix(.13333 0 0 -.13333 0 667)"/><path d="M5917 2425c-50-28-104-66-129-118-53-112-44-237-46-361 72-41 154-64 236-65 26 171 11 348-61 544" style="fill:#83bde6;fill-opacity:1;fill-rule:nonzero;stroke:none" transform="matrix(.13333 0 0 -.13333 0 667)"/><path d="M5959 1800c-92-16-191 25-245 101-4 25 0 58 23 69 59-35 146-58 219-53 13-37 15-77 3-117" style="fill:#a0d2eb;fill-opacity:1;fill-rule:nonzero;stroke:none" transform="matrix(.13333 0 0 -.13333 0 667)"/><path d="M6390 1041c27 36 385-276 369-324-6-16-35-20-71-17-72 5-172 35-172 35l-186 149 13 43c12 39 31 92 47 114" style="fill:#121c30;fill-opacity:1;fill-rule:nonzero;stroke:none" transform="matrix(.13333 0 0 -.13333 0 667)"/><path d="M6343 927c146-17 302-180 345-227-72 5-172 35-172 35l-186 149 13 43" style="fill:#f57d6c;fill-opacity:1;fill-rule:nonzero;stroke:none" transform="matrix(.13333 0 0 -.13333 0 667)"/><path d="m6056 924 300-20 181-171-324-27-157 218" style="fill:#f57d6c;fill-opacity:1;fill-rule:nonzero;stroke:none" transform="matrix(.13333 0 0 -.13333 0 667)"/><path d="M6836 989c27 36 385-275 368-324-5-16-35-20-71-17-72 5-172 35-172 35l-185 149 12 43c13 39 32 92 48 114" style="fill:#1c3459;fill-opacity:1;fill-rule:nonzero;stroke:none" transform="matrix(.13333 0 0 -.13333 0 667)"/><path d="M6789 875c146-17 302-180 344-227-72 5-172 35-172 35l-185 149 13 43" style="fill:#f57d6c;fill-opacity:1;fill-rule:nonzero;stroke:none" transform="matrix(.13333 0 0 -.13333 0 667)"/><path d="m6502 872 300-20 181-171-325-27-156 218" style="fill:#f57d6c;fill-opacity:1;fill-rule:nonzero;stroke:none" transform="matrix(.13333 0 0 -.13333 0 667)"/><path d="M6687 599s-480-137-635-32h-1l-8 6s-98-55-210-9l-21 9c-120 62-122 198-81 405a7442 7442 0 0 0 202 679l622 58s46-66 56-173c4-45 2-97-13-155l-118-455 160 4 47-337" style="fill:#1d4e82;fill-opacity:1;fill-rule:nonzero;stroke:none" transform="matrix(.13333 0 0 -.13333 0 667)"/><path d="M6611 1542a894 894 0 0 0-342-54c-126 7-251 46-353 118l17 51 622 58s46-66 56-173M5996 682c2-41 27-80 55-115l-8 6s-98-55-210-9c19-5 37-9 54-10 41-3 92 2 103 32 9 27-14 51-12 107 7 166 92 438 147 597-27 38-48 75-57 111 29-35 53-61 88-85-78-205-167-468-160-634" style="fill:#1c3459;fill-opacity:1;fill-rule:nonzero;stroke:none" transform="matrix(.13333 0 0 -.13333 0 667)"/><path d="M6540 1643c59-108 36-238 13-321-43-153-86-306-138-456 11 6 26 6 37-1s17-21 3-37l141 19" style="fill:none;stroke:#3898d2;stroke-width:10;stroke-linecap:round;stroke-linejoin:miter;stroke-miterlimit:10;stroke-dasharray:none;stroke-opacity:1" transform="matrix(.13333 0 0 -.13333 0 667)"/><path d="M6584 571c22 122 9 249-32 370 43 22 94 32 144 21 80-106 92-248 29-362-46-17-97-27-141-29" style="fill:#187bae;fill-opacity:1;fill-rule:nonzero;stroke:none" transform="matrix(.13333 0 0 -.13333 0 667)"/><path d="M6614 1652c-61 141-87 183-102 331-14 148 8 415-128 485a482 482 0 0 1-420-12c-61-32-120-82-136-151-8-36-4-75 3-112 19-91 56-177 80-266 25-90 37-188 1-289 117-117 437-139 702 14" style="fill:#a9dff7;fill-opacity:1;fill-rule:nonzero;stroke:none" transform="matrix(.13333 0 0 -.13333 0 667)"/><path d="M6180 2392c-17-33-44-63-80-77s-80-11-109 14c-25 22-34 56-41 87l-1 5c-1 40-16 73-36 103 55 55 108 109 155 168a374 374 0 0 1 129-184c7-47-1-83-17-116" style="fill:#f57d6c;fill-opacity:1;fill-rule:nonzero;stroke:none" transform="matrix(.13333 0 0 -.13333 0 667)"/><path d="M6126 2580c-6-38-24-74-51-102-33-33-79-53-125-57-2 40-17 73-37 103 55 55 108 109 155 168 13-41 33-78 58-112M5553 2643c1 34 40 61 88 59 48-1 85-30 84-64-1-35-40-61-88-60-47 1-85 30-84 65" style="fill:#f46864;fill-opacity:1;fill-rule:nonzero;stroke:none" transform="matrix(.13333 0 0 -.13333 0 667)"/><path d="M5638 2601c32-75 90-153 169-172 51-12 101-6 152 23 91 52 179 187 172 309-3 60-22 119-57 168-35 48-87 85-145 99a354 354 0 0 1-266-64c-121-89-57-287-25-363" style="fill:#f57d6c;fill-opacity:1;fill-rule:nonzero;stroke:none" transform="matrix(.13333 0 0 -.13333 0 667)"/><path d="M6033 2815a459 459 0 0 0-315 85c-53-70-90-153-108-239 1 59-10 118-8 177s22 121 71 155c33 23 76 29 117 27 96-6 193-62 243-205" style="fill:#f46864;fill-opacity:1;fill-rule:nonzero;stroke:none" transform="matrix(.13333 0 0 -.13333 0 667)"/><path d="M5844 2705c8 2 18-7 22-21s1-27-7-29c-8-3-18 7-21 21-4 14-1 27 6 29M5672 2662c8 3 17-7 21-21s1-27-7-29c-7-2-17 7-21 21s-1 27 7 29" style="fill:#16223b;fill-opacity:1;fill-rule:nonzero;stroke:none" transform="matrix(.13333 0 0 -.13333 0 667)"/><path d="M5811 2749c8 19 28 34 49 35s43-11 53-29c-31 12-68 8-102-6M5622 2715c0 19 15 36 33 40s38-7 46-24c-28 6-59-2-79-16" style="fill:#200c15;fill-opacity:1;fill-rule:nonzero;stroke:none" transform="matrix(.13333 0 0 -.13333 0 667)"/><path d="M5738 2633c-2-18 5-38 19-51" style="fill:none;stroke:#ca2c3e;stroke-width:10;stroke-linecap:round;stroke-linejoin:miter;stroke-miterlimit:10;stroke-dasharray:none;stroke-opacity:1" transform="matrix(.13333 0 0 -.13333 0 667)"/><path d="M5796 2539c41 13 77 37 107 69 4-13 9-25 10-39 0-13-2-27-10-37-8-9-20-15-31-19-15-5-32-8-47-3-16 4-29 19-29 28" style="fill:#fff;fill-opacity:1;fill-rule:nonzero;stroke:none" transform="matrix(.13333 0 0 -.13333 0 667)"/><path d="M6172 2822c-28-29-58-57-87-85-21 40-24 40-51 66a845 845 0 0 0-324 128 368 368 0 0 1-87-291c-22 29-39 66-51 106-17 57-21 118-5 168 26 83 96 150 160 145 55 49 127 67 193 61 42-4 81-16 113-36 82-50 138-166 139-262" style="fill:#200c15;fill-opacity:1;fill-rule:nonzero;stroke:none" transform="matrix(.13333 0 0 -.13333 0 667)"/><path d="M5920 3120c-68-8-132-43-170-90-82-13-127-61-158-124-21-44-30-83-20-160-17 57-21 118-6 168 27 83 97 150 161 145 55 50 127 67 193 61" style="fill:#4b112a;fill-opacity:1;fill-rule:nonzero;stroke:none" transform="matrix(.13333 0 0 -.13333 0 667)"/><path d="M6079 2805c38 33 87 37 111 11 23-27 12-76-25-108-38-33-87-38-111-11-23 27-12 75 25 108" style="fill:#f57d6c;fill-opacity:1;fill-rule:nonzero;stroke:none" transform="matrix(.13333 0 0 -.13333 0 667)"/><path d="M7059 477c-178 0-375 37-519 120a741 741 0 0 0-288 343c-37 80-66 162-94 243-18 51-37 105-57 156a790 790 0 0 1-216 329c-100 84-202 105-351 74l-21 103c179 36 314 7 439-96a887 887 0 0 0 245-371c22-54 41-108 59-161 27-78 55-158 90-233a642 642 0 0 1 246-297c198-114 509-130 695-79 112 30 147 52 157 61l-13 20c-23 33-72 102-5 180 86 100 337 105 478 99l-4-104c-227 10-362-25-395-63-12-14-14-16 11-52 19-27 46-66 29-114-19-52-84-88-231-128-72-19-161-30-255-30" style="fill:#0e788b;fill-opacity:1;fill-rule:nonzero;stroke:none" transform="matrix(.13333 0 0 -.13333 0 667)"/><path d="M5423 1907c-130-6-171-100-178-121-9-29 6-75 8-99 1-14 8-29 20-36 12-8 29-5 37 6 9-9 22-14 35-13s25 9 35 19c20-16 53-11 65 5 26-6 54 7 71 28 18 21 26 49 27 77 2 28-44 137-120 134" style="fill:#f46b61;fill-opacity:1;fill-rule:nonzero;stroke:none" transform="matrix(.13333 0 0 -.13333 0 667)"/><path d="m5193 1816 360 56 7-157-363 4-4 97" style="fill:#30abe7;fill-opacity:1;fill-rule:nonzero;stroke:none" transform="matrix(.13333 0 0 -.13333 0 667)"/><path d="m5167 1825 45 2 7-127-44-3-8 128M5553 1690l-21 203 44 2 22-202-45-3" style="fill:#65cdea;fill-opacity:1;fill-rule:nonzero;stroke:none" transform="matrix(.13333 0 0 -.13333 0 667)"/><path d="M5519 1709c-4 33-14 64-27 81-7 10-18 18-31 19-12 1-25-5-28-17-6-10-8-22-8-33s-3-49 0-60" style="fill:#f46b61;fill-opacity:1;fill-rule:nonzero;stroke:none" transform="matrix(.13333 0 0 -.13333 0 667)"/><path d="M5519 1709c-4 33-14 64-27 81-7 10-18 18-31 19-12 1-25-5-28-17-6-10-8-22-8-33s-3-49 0-60" style="fill:none;stroke:#b82338;stroke-width:5;stroke-linecap:round;stroke-linejoin:miter;stroke-miterlimit:10;stroke-dasharray:none;stroke-opacity:1" transform="matrix(.13333 0 0 -.13333 0 667)"/><path d="M5447 1685c4 22 4 43 2 65-1 15-5 32-15 42-8 8-19 11-30 10-10-2-20-9-27-22-9-14-18-52-15-69" style="fill:#f46b61;fill-opacity:1;fill-rule:nonzero;stroke:none" transform="matrix(.13333 0 0 -.13333 0 667)"/><path d="M5447 1685c4 22 4 43 2 65-1 15-5 32-15 42-8 8-19 11-30 10-10-2-20-9-27-22-9-14-18-52-15-69" style="fill:none;stroke:#b82338;stroke-width:5;stroke-linecap:round;stroke-linejoin:miter;stroke-miterlimit:10;stroke-dasharray:none;stroke-opacity:1" transform="matrix(.13333 0 0 -.13333 0 667)"/><path d="M5382 1686c5 23 8 55 4 79-3 24-18 49-38 50-20 0-41-74-49-101" style="fill:#f46b61;fill-opacity:1;fill-rule:nonzero;stroke:none" transform="matrix(.13333 0 0 -.13333 0 667)"/><path d="M5382 1686c5 23 8 55 4 79-3 24-18 49-38 50-20 0-41-74-49-101" style="fill:none;stroke:#b82338;stroke-width:5;stroke-linecap:round;stroke-linejoin:miter;stroke-miterlimit:10;stroke-dasharray:none;stroke-opacity:1" transform="matrix(.13333 0 0 -.13333 0 667)"/><path d="M5259 1708c6 29 11 57 23 84 10 23 30 24 40 11 15-21 5-77 1-112" style="fill:#f46b61;fill-opacity:1;fill-rule:nonzero;stroke:none" transform="matrix(.13333 0 0 -.13333 0 667)"/><path d="M5259 1708c6 29 11 57 23 84 10 23 30 24 40 11 15-21 5-77 1-112" style="fill:none;stroke:#b82338;stroke-width:5;stroke-linecap:round;stroke-linejoin:miter;stroke-miterlimit:10;stroke-dasharray:none;stroke-opacity:1" transform="matrix(.13333 0 0 -.13333 0 667)"/><path d="M5359 1879c-24-28-57-54-82-79-7-6-12-18-7-26 4-8 14-9 23-7 24 3 48 14 68 29 43 8 73 18 78 61" style="fill:#f46b61;fill-opacity:1;fill-rule:nonzero;stroke:none" transform="matrix(.13333 0 0 -.13333 0 667)"/><path d="M5359 1879c-24-28-57-54-82-79-7-6-12-18-7-26 4-8 14-9 23-7 24 3 48 14 68 29 43 8 73 18 78 61" style="fill:none;stroke:#b82338;stroke-width:5;stroke-linecap:round;stroke-linejoin:miter;stroke-miterlimit:10;stroke-dasharray:none;stroke-opacity:1" transform="matrix(.13333 0 0 -.13333 0 667)"/><path d="M5927 1851c-28 24-64 42-102 49-38 6-76-18-95-45l51-15-76-86c-8-10-17-21-14-34 3-9 12-16 23-18 10-3 21-2 34 2-3-12 5-26 18-32s31-2 42 4c12-18 44-24 63-11 12-11 31-15 48-12s31 15 38 27c24 77-7 151-30 171" style="fill:#f57d6c;fill-opacity:1;fill-rule:nonzero;stroke:none" transform="matrix(.13333 0 0 -.13333 0 667)"/><path d="M6476 2147s-12-190-47-327c-14-51-30-95-51-119l-11-11c-36-28-401 25-401 25l-78 142 303 13 15 1 30 1 19 328 221-53" style="fill:#f57d6c;fill-opacity:1;fill-rule:nonzero;stroke:none" transform="matrix(.13333 0 0 -.13333 0 667)"/><path d="M6429 1820c-14-51-30-95-51-119a504 504 0 0 0-188 171l17-1c79-7 150-33 222-51" style="fill:#f46864;fill-opacity:1;fill-rule:nonzero;stroke:none" transform="matrix(.13333 0 0 -.13333 0 667)"/><path d="M6274 2423c38 81 122 89 197-48 71-130-3-582-3-582l-252 102s4 411 58 528" style="fill:#83bde6;fill-opacity:1;fill-rule:nonzero;stroke:none" transform="matrix(.13333 0 0 -.13333 0 667)"/><path d="M6447 1734c-103 1-205 53-266 137-3 24 11 50 33 60 81-39 178-58 275-54 5-52-9-106-42-143" style="fill:#a0d2eb;fill-opacity:1;fill-rule:nonzero;stroke:none" transform="matrix(.13333 0 0 -.13333 0 667)"/><path d="M1450 874c441 0 798-62 798-139s-357-139-798-139c-440 0-797 62-797 139s357 139 797 139" style="fill:#e97e64;fill-opacity:1;fill-rule:nonzero;stroke:none" transform="matrix(.13333 0 0 -.13333 0 667)"/><path d="M1094 1050c-25 37-376-254-361-303 5-17 33-22 68-22 69 2 166 25 166 25l182 139-12 44c-11 39-28 94-43 117" style="fill:#fbbf2d;fill-opacity:1;fill-rule:nonzero;stroke:none" transform="matrix(.13333 0 0 -.13333 0 667)"/><path d="M1137 933c-141-8-294-163-336-207 69 1 166 24 166 24l182 139-12 44" style="fill:#f57d6c;fill-opacity:1;fill-rule:nonzero;stroke:none" transform="matrix(.13333 0 0 -.13333 0 667)"/><path d="m941 751 221-11 52 130-131 19-142-138" style="fill:#f57d6c;fill-opacity:1;fill-rule:nonzero;stroke:none" transform="matrix(.13333 0 0 -.13333 0 667)"/><path d="M2048 725c-44-22-90-22-94-22-128-165-829 23-829 23-34 74-2 175 6 198l2 4 36-4h2s-217 76-186 350c20 171 208 331 208 331l396-232s385-208 475-273c200-144 15-360-16-375" style="fill:#1d5085;fill-opacity:1;fill-rule:nonzero;stroke:none" transform="matrix(.13333 0 0 -.13333 0 667)"/><path d="M1995 815c9 46 6 96-19 136-20 32-52 55-85 75-139 89-267 152-416 215 61 6 87 27 119 56-12-47-21-46-32-70 111-50 197-88 286-145 56-37 127-78 159-137 32-60-3-165-6-200-3-30 27-23 47-20-45-22-91-22-94-22 19 35 32 73 40 112M1762 812c-38-40-149-30-205-21-113 18-339 92-426 133l1 4 37-4c170-64 453-157 593-112" style="fill:#1c3459;fill-opacity:1;fill-rule:nonzero;stroke:none" transform="matrix(.13333 0 0 -.13333 0 667)"/><path d="M1629 791c19-16 66-41 90-45-39-13-96 21-113 45h23" style="fill:#1c3459;fill-opacity:1;fill-rule:nonzero;stroke:none" transform="matrix(.13333 0 0 -.13333 0 667)"/><path d="M1660 2425c-49 22-106 23-154 4-49-19-87-59-103-106 18 32 52 56 91 63-44-21-72-70-67-118 5-47 42-91 90-106 23 82 90 152 176 179-7 28-21 53-33 84" style="fill:#200c15;fill-opacity:1;fill-rule:nonzero;stroke:none" transform="matrix(.13333 0 0 -.13333 0 667)"/><path d="m1876 1760 36-111 445-66-14-176-668 28-51 247 252 77" style="fill:#f46864;fill-opacity:1;fill-rule:nonzero;stroke:none" transform="matrix(.13333 0 0 -.13333 0 667)"/><path d="M1735 2178c62-30 99-96 121-161 33-98 41-202 48-306-70-32-145-53-221-64-27 89-49 181-47 275 3 93 33 189 99 256" style="fill:#f79617;fill-opacity:1;fill-rule:nonzero;stroke:none" transform="matrix(.13333 0 0 -.13333 0 667)"/><path d="M2483 1655c35 6 70 8 105 5 14-2 30-5 37-17 11-17-4-39-21-49-18-9-39-11-56-21 18 3 37 5 53-2 17-7 30-26 23-43-6-14-23-20-38-23l-63-17c17 1 35 2 50-6s26-28 17-43c-6-12-21-16-35-16-13-1-27 1-40-3 13-7 25-17 29-31s-2-32-15-38c-9-4-19-3-29 0-39 10-74 40-115 35 16 47 22 96 34 144 13 47 33 95 64 125" style="fill:#1e475c;fill-opacity:1;fill-rule:nonzero;stroke:none" transform="matrix(.13333 0 0 -.13333 0 667)"/><path d="M2400 1886c31 62 86 110 149 132 9 3 19 6 29 4 9-1 19-8 22-18 2-6 1-12-1-18-7-21-26-34-44-45-40-22-84-38-129-46-10-2-20-4-26-9" style="fill:#25b6a9;fill-opacity:1;fill-rule:nonzero;stroke:none" transform="matrix(.13333 0 0 -.13333 0 667)"/><path d="M2397 1889c48 43 105 77 166 99-59-29-119-59-164-107 1 5 1 10-2 8" style="fill:#197786;fill-opacity:1;fill-rule:nonzero;stroke:none" transform="matrix(.13333 0 0 -.13333 0 667)"/><path d="M2384 1790c35 66 100 112 171 122 11 2 23 2 30-7 6-7 6-17 3-25s-9-14-15-19c-46-42-112-47-189-71" style="fill:#25b6a9;fill-opacity:1;fill-rule:nonzero;stroke:none" transform="matrix(.13333 0 0 -.13333 0 667)"/><path d="M2381 1789c46 48 107 82 172 96-66-19-126-57-173-107-1 5 0 10 1 11" style="fill:#197786;fill-opacity:1;fill-rule:nonzero;stroke:none" transform="matrix(.13333 0 0 -.13333 0 667)"/><path d="M2385 1753c-13 54-58 100-109 112-12 2-24 3-36 0-5-2-11-5-14-11-3-4-5-9-5-14-2-21 10-42 26-54 16-13 36-18 55-23 19-4 39-7 83-10" style="fill:#25b6a9;fill-opacity:1;fill-rule:nonzero;stroke:none" transform="matrix(.13333 0 0 -.13333 0 667)"/><path d="M2385 1752c-16 20-34 40-55 55s-47 24-73 24c24-4 46-15 66-29 24-16 47-35 61-60 1 4 3 8 1 10" style="fill:#197786;fill-opacity:1;fill-rule:nonzero;stroke:none" transform="matrix(.13333 0 0 -.13333 0 667)"/><path d="M2386 1821c2 54-22 107-55 148-8 10-17 20-28 25s-25 5-33-4c-11-12-8-32-1-48 19-46 57-79 117-121" style="fill:#25b6a9;fill-opacity:1;fill-rule:nonzero;stroke:none" transform="matrix(.13333 0 0 -.13333 0 667)"/><path d="M2386 1817c-19 48-46 92-81 130 18-13 32-32 45-50 9-13 19-27 26-42 4-10 7-20 13-29-1-2-3-5-3-9" style="fill:#197786;fill-opacity:1;fill-rule:nonzero;stroke:none" transform="matrix(.13333 0 0 -.13333 0 667)"/><path d="M2403 1898c8 45 4 93-11 137-6 18-14 35-26 48-10 11-25 19-37 14-13-7-16-26-14-41 4-24 15-46 27-67 18-31 38-61 61-91" style="fill:#25b6a9;fill-opacity:1;fill-rule:nonzero;stroke:none" transform="matrix(.13333 0 0 -.13333 0 667)"/><path d="M2404 1896c-12 52-35 101-57 150 28-42 47-88 58-137 0-4 1-8-1-13" style="fill:#197786;fill-opacity:1;fill-rule:nonzero;stroke:none" transform="matrix(.13333 0 0 -.13333 0 667)"/><path d="M2379 1708c28 61 89 95 150 102 10 1 20 1 30-3 9-4 18-13 19-24 3-19-14-33-29-40-56-27-120-28-171-35" style="fill:#25b6a9;fill-opacity:1;fill-rule:nonzero;stroke:none" transform="matrix(.13333 0 0 -.13333 0 667)"/><path d="M2377 1707c25 18 50 36 77 50 27 13 57 23 88 24-58-14-112-42-157-81-3 3-5 8-8 7" style="fill:#197786;fill-opacity:1;fill-rule:nonzero;stroke:none" transform="matrix(.13333 0 0 -.13333 0 667)"/><path d="M2420 1960c-5 36 1 75 18 106 17 32 45 56 77 69 6 2 12 4 18 1 6-2 10-11 10-18 0-8-3-15-6-21-26-55-72-95-117-137" style="fill:#25b6a9;fill-opacity:1;fill-rule:nonzero;stroke:none" transform="matrix(.13333 0 0 -.13333 0 667)"/><path d="M2370 1652c2 76 6 152 22 225s45 144 92 199a628 628 0 0 1-91-417c-8-2-15-7-23-7" style="fill:#197786;fill-opacity:1;fill-rule:nonzero;stroke:none" transform="matrix(.13333 0 0 -.13333 0 667)"/><path d="M2581 1631c-18-46-26-97-24-147 2-26 5-56-11-77-15-19-41-24-65-26-57-6-115-3-171 8-25 5-53 13-66 35-8 12-10 26-11 41-2 27-2 54-1 81l2 88 1 6a759 759 0 0 0 346-9" style="fill:#255353;fill-opacity:1;fill-rule:nonzero;stroke:none" transform="matrix(.13333 0 0 -.13333 0 667)"/><path d="M2601 1624c0-8-6-14-13-19-5-3-12-5-17-6-25-6-50-7-76-8l-120-3-80-2c-14 0-29-1-42 5-14 6-38 51-37 63 0 12 6 24 7 36 1 15-5 31 5 43l3 3c8 7 20 8 31 7 33-1 66-9 100-12 55-6 111 2 166 8 13 2 27 4 40 0 13-3 26-12 29-24 6-21-12-43-6-63 2-10 10-18 10-28" style="fill:#2a5c59;fill-opacity:1;fill-rule:nonzero;stroke:none" transform="matrix(.13333 0 0 -.13333 0 667)"/><path d="M2601 1624c0-8-6-14-13-19 0 12-4 24-11 34a88 88 0 0 1-57 32c-21 3-44 1-66-1l-56-5c54 12 110 17 166 14 1 21-19 37-40 41-20 3-40-3-61-6-52-7-104 6-155 18-19 4-39 9-59 7l-18-3c8 7 20 7 31 7 33-1 66-9 100-12 55-6 111 2 166 8 13 2 27 3 40 0s26-12 29-25c6-20-12-42-6-62 2-10 10-18 10-28" style="fill:#3d7972;fill-opacity:1;fill-rule:nonzero;stroke:none" transform="matrix(.13333 0 0 -.13333 0 667)"/><path d="M1604 1368c88 140 174 254 217 413 63 236-56 432-168 467-127 41-301-78-345-159-69-129-112-260-159-522 89-98 266-180 454-199" style="fill:#f8a41c;fill-opacity:1;fill-rule:nonzero;stroke:none" transform="matrix(.13333 0 0 -.13333 0 667)"/><path d="M1850 2203a222 222 0 0 1-69-143c-2-18-3-39-18-48-14-9-32-2-47 6a280 280 0 0 0-138 231 265 265 0 0 1 108 138l2 9 8-13c50-73 101-127 154-180" style="fill:#f57d6c;fill-opacity:1;fill-rule:nonzero;stroke:none" transform="matrix(.13333 0 0 -.13333 0 667)"/><path d="m1685 2388 11-5c50-73 101-127 154-180-23-21-40-47-52-76a363 363 0 0 0-152 185M2120 2424c45 6 86-16 90-49 5-33-29-65-75-71s-86 16-91 49c-4 33 30 65 76 71" style="fill:#f46864;fill-opacity:1;fill-rule:nonzero;stroke:none" transform="matrix(.13333 0 0 -.13333 0 667)"/><path d="M2121 2335c-23-76-71-157-146-183-48-17-97-16-149 7a361 361 0 0 0-197 281c-3 58 10 117 39 168 29 50 75 91 130 109a341 341 0 0 0 263-35c126-74 83-271 60-347" style="fill:#f57d6c;fill-opacity:1;fill-rule:nonzero;stroke:none" transform="matrix(.13333 0 0 -.13333 0 667)"/><path d="M1655 2445c67 28 125 81 158 143 83-65 190-99 296-94 19-28 29-63 29-97 26 59 31 128 12 187l-339 108c-6 2-13 4-19 1a2546 2546 0 0 0-106-156c-2-33-9-66-31-92" style="fill:#f46864;fill-opacity:1;fill-rule:nonzero;stroke:none" transform="matrix(.13333 0 0 -.13333 0 667)"/><path d="M1886 2381c2 14 10 24 18 22 8-1 12-13 10-27-3-14-11-24-19-23-7 1-12 14-9 28M2056 2356c3 14 11 25 19 23 7-1 12-14 9-28-2-13-10-24-18-22-8 1-12 13-10 27" style="fill:#16223b;fill-opacity:1;fill-rule:nonzero;stroke:none" transform="matrix(.13333 0 0 -.13333 0 667)"/><path d="M1949 2482c-8 19-28 32-49 32-20 0-41-12-50-31 30 14 65 11 99-1M2127 2459c-1 18-16 34-34 36s-37-10-42-27c26 8 56 3 76-9" style="fill:#200c15;fill-opacity:1;fill-rule:nonzero;stroke:none" transform="matrix(.13333 0 0 -.13333 0 667)"/><path d="M2013 2350c4-18-1-37-13-51M1974 2251c-37 2-73 18-100 44" style="fill:none;stroke:#ca2c3e;stroke-width:10;stroke-linecap:round;stroke-linejoin:miter;stroke-miterlimit:10;stroke-dasharray:none;stroke-opacity:1" transform="matrix(.13333 0 0 -.13333 0 667)"/><path d="M2185 2453c-14-29-32-57-54-80 9 28 16 114-4 141-126-5-257 59-325 127-29-95-89-184-141-205-23 14-39 21-64 28-20 74-23 156 4 224 20 51 71 89 118 80 10 19 23 36 40 50 34 30 81 48 127 53 119 12 243-57 296-164 39-79 38-174 3-254" style="fill:#200c15;fill-opacity:1;fill-rule:nonzero;stroke:none" transform="matrix(.13333 0 0 -.13333 0 667)"/><path d="M2185 2453c16 123-26 243-108 313-83 71-206 93-318 52 34 30 81 48 127 53 119 12 243-57 296-164 39-79 38-174 3-254" style="fill:#4b112a;fill-opacity:1;fill-rule:nonzero;stroke:none" transform="matrix(.13333 0 0 -.13333 0 667)"/><path d="M1560 2476c20 28 69 28 108 0 39-27 55-73 35-101-20-29-68-29-108-1-39 28-55 73-35 102M2098 1397l-38-5-105-14c-135-17-323-34-374-10-39 19-106 119-154 198-35 57-61 104-61 104l234 142 45-118 46-118 311-21 35-3 56-3 5-152" style="fill:#f57d6c;fill-opacity:1;fill-rule:nonzero;stroke:none" transform="matrix(.13333 0 0 -.13333 0 667)"/><path d="M1646 1694a559 559 0 0 0-219-128c-35 57-61 104-61 104l234 142 46-118M2060 1392l-105-14a244 244 0 0 0 47 177l35-3c10-53 18-106 23-160" style="fill:#f46864;fill-opacity:1;fill-rule:nonzero;stroke:none" transform="matrix(.13333 0 0 -.13333 0 667)"/><path d="M2117 1356c5-13-12-25-26-24-14 2-27 10-41 9-11-1-21-6-31-6-23 1-35 26-40 48-13 60-9 123 12 181 6 19 19 40 39 40 8 0 16-3 24-2 9 1 16 7 23 10 17 7 38 1 51-24 11 22 24 43 41 61 16 17 37 31 61 37 10 3 21 3 29-3 8-7 8-20 4-30-4-9-11-18-16-27s-8-20 1-36c59 0 118 6 176 19 9 2 19 4 29 4 10-1 21-5 26-14 9-14 1-34-11-46-32-35-82-45-128-61l130 3c8 0 17 0 24-4 11-7 14-23 11-36-5-17-19-30-34-39-15-8-33-11-50-14-30-5-60-7-83-11 28 0 58 0 84-12 10-5 20-12 22-23 3-11-3-22-11-30-9-7-20-10-30-14-2-13-13-24-25-30-13-5-27-6-40-6-77 1-154 25-221 80" style="fill:#1e475c;fill-opacity:1;fill-rule:nonzero;stroke:none" transform="matrix(.13333 0 0 -.13333 0 667)"/><path d="M2130 1573c-24-64-29-136-12-202-22 29-33 67-31 103 2 37 17 73 43 99M2049 1594c-22-63-29-133-21-201-23 64-18 140 21 201M2395 1312c-40 5-77 7-119 21 30-29 88-32 119-21" style="fill:#102839;fill-opacity:1;fill-rule:nonzero;stroke:none" transform="matrix(.13333 0 0 -.13333 0 667)"/><path d="M1357 1584c-26 84-104 339-74 445 19 62 71 118 136 123 53 4 105-26 137-69 33-42 49-94 60-146 11-53 26-154 39-209a785 785 0 0 0-298-144" style="fill:#fbbf2d;fill-opacity:1;fill-rule:nonzero;stroke:none" transform="matrix(.13333 0 0 -.13333 0 667)"/><path d="M2700 806c-66 13-139 32-208 25-22-3-40-14-60-21-23-9-41-12-66-8-26 5-53 1-74-16-14-12-18-29-10-45 12-21 37-30 60-33 31-5 63-4 95-6 30-2 60-7 91-8 38-2 75 1 113 4 31 2 60 2 92-1 16-1 33 0 49-2 13-1 25 0 38 2 27 3 57 9 78 27 11 10 40 33 22 50-7 6-23 12-32 15-11 4-23 5-34 8-22 4-44 4-66 5-33 2-65 0-88 4" style="fill:#944c46;fill-opacity:1;fill-rule:nonzero;stroke:none" transform="matrix(.13333 0 0 -.13333 0 667)"/><path d="M2174 549c-1 10-9 41 0 52l8 7c7 4 15 4 22 8 16 8 7 25 15 38 10 14 30 17 45 15 10-1 15-4 21 7 6 12 5 28 8 40 5 19 12 35 34 33 19-1 41-19 58-6 12 9 17 24 31 31 9 5 21 6 32 7 16 1 25-2 34-17 4-6 8-13 10-21 1-8-2-19 2-26 5-8 16-7 23-10 16-6 29-18 33-34 2-11-1-20-5-30-3-6-8-14-5-21 3-8 9-8 16-10 10-2 20-5 29-11 10-6 16-15 17-27 0-12-5-16-9-25-5-10 4-8 7-18 4-13-18-11-26-10l-40 5c-29 2-58 0-86-1-72-4-146 2-217 10-14 1-26-2-40-2-6 0-34 5-18 16" style="fill:#f58a73;fill-opacity:1;fill-rule:nonzero;stroke:none" transform="matrix(.13333 0 0 -.13333 0 667)"/><path d="m2784 1062-70 11s2 98 7 200c5 101 13 205 27 220 28 31 84 26 104-6 3-3 4-7 6-12 10-36-74-413-74-413" style="fill:#c7882e;fill-opacity:1;fill-rule:nonzero;stroke:none" transform="matrix(.13333 0 0 -.13333 0 667)"/><path d="m2852 1488-18 5c-21 3-44-2-59-17a99 99 0 0 1-20-43c-14-53-25-106-34-160 5 101 13 205 27 220 28 31 84 26 104-5" style="fill:#e5a541;fill-opacity:1;fill-rule:nonzero;stroke:none" transform="matrix(.13333 0 0 -.13333 0 667)"/><path d="M2914 1031c-6-48-92-199-92-199l-228 21s-16 96-17 166c0 37 4 67 17 72 32 11 244-6 305-40 11-7 16-13 15-21" style="fill:#4f95cd;fill-opacity:1;fill-rule:nonzero;stroke:none" transform="matrix(.13333 0 0 -.13333 0 667)"/><path d="M2899 1051c-12 4-24 6-36 8-66 12-131 24-198 22-23 0-47-3-64-19a98 98 0 0 1-24-42v-1c0 37 4 67 17 72 32 11 244-6 305-40" style="fill:#7ac7e8;fill-opacity:1;fill-rule:nonzero;stroke:none" transform="matrix(.13333 0 0 -.13333 0 667)"/><path d="M2698 1080c-1 7 0 14 5 18 3 3 7 3 10 4 20 3 40 2 59-1 13-2 27-8 30-20 2-6 0-12-1-18-10-29-26-56-42-82-10-17-27-53-43-50-15 2-18 105-18 149" style="fill:#4375b2;fill-opacity:1;fill-rule:nonzero;stroke:none" transform="matrix(.13333 0 0 -.13333 0 667)"/><path d="m2538 865-6 19c-2 5-2 8 1 10l5 8c2 3 6 4 10 5 6 2 9 3 11 10 2 3 2 7 3 11l6 11c5 7 8 11 17 14 6 1 12 3 19 1 8-2 13-5 16-12 5-10 10-19 22-17 10 2 20 11 30 5 9-6 8-21 12-28 2-4 5-6 10-7 9-2 17 3 25 3 13-1 11-12 13-21 1-2 0-6 2-9 1-3 8-8 11-9 3-2 7-2 10-1 4 2 7 6 11 7 5 1 10-2 15-2s11 1 15 4c13 10 16 29 35 30l21-3c6 0 11 5 16 8 7 4 20-2 26-7 6-4 8-13 9-19 2-12-3-26-8-36 4-4 15-8 11-16-1-3-5-3-8-4l-21-1h-23l-24 5c-5 1-11 2-17 1-7-2-14-1-22-1-12 0-23 6-35 8-14 2-29 0-43 0-11 0-20 8-31 11-10 4-21 5-32 5h-15l-15 3c-10 0-18-3-28-4l-12 3h-31c-4-1-8-2-12 0l-4 5c-3 5 0 8 5 10" style="fill:#f58a73;fill-opacity:1;fill-rule:nonzero;stroke:none" transform="matrix(.13333 0 0 -.13333 0 667)"/></svg>