<svg xmlns="http://www.w3.org/2000/svg" viewBox="0 0 150 150" style="enable-background:new 0 0 150 150" xml:space="preserve"><path d="M29.5 146.2c-.6 0-1.1-.4-1.3-1L.1 59c-.2-.6 0-1.2.5-1.6L74.2 4.1c.5-.4 1.2-.4 1.6 0l73.6 53.3c.5.4.7 1 .5 1.6l-28.1 86.3c-.2.6-.7 1-1.3 1l-91-.1zM3.1 59.1l27.5 84.3h88.9L147 59.1 75 7 3.1 59.1zm29.5 82.2c-.3 0-.6-.2-.7-.5L5.7 60.4c-.1-.3 0-.6.3-.8L74.6 9.8c.2-.2.6-.2.8 0l68.7 49.7c.2.2.3.5.3.8l-26.2 80.5c-.1.3-.4.5-.7.5H32.6zM7.2 60.4l25.9 79.5H117l25.9-79.5L75 11.3 7.2 60.4zM108.4 129c0-2.8-.2-3.5-2-3.5v4.8h1.2v4.1H101v-4.1h1.1v-13.5H101v-4h6.7c4.8 0 5.7 2.8 5.7 6.4 0 2.4-1.3 4.1-3 4.5 1.4.3 2.7 2.2 2.7 4.4 0 1.3.1 2.1.5 2.1.3 0 .5-.4.5-1v-1h1.4v1.7c0 2.6-.7 4.9-3 4.9-2.8 0-4.1-2.2-4.1-5.8zm-2.1-6.9h.9c1.2 0 2-.9 2-2.5 0-1.8-.7-2.7-1.9-2.7h-1v5.2zM42.1 129c0-2.8-.2-3.5-2-3.5v4.8h1.2v4.1h-6.6v-4.1h1.1v-13.5h-1.1v-4h6.7c4.8 0 5.7 2.8 5.7 6.4 0 2.4-1.3 4.1-3 4.5 1.4.3 2.7 2.2 2.7 4.4 0 1.3.1 2.1.5 2.1.3 0 .5-.4.5-1v-1H49v1.7c0 2.6-.7 4.9-3 4.9-2.6 0-3.9-2.2-3.9-5.8zm-2.1-6.9h.9c1.2 0 2-.9 2-2.5 0-1.8-.7-2.7-1.9-2.7h-1v5.2zm53.1 12.3v-4.1h1.3v-13.4h-1.3v-4.1h6.8v4.1h-1.3v13.4h1.3v4.1h-6.8zm-9 0v-4H86l-.4-2.1h-4.2l-.4 2.1h1.6v4h-6.5v-4h1.4l2.8-13.6h-.8v-4h7.9l3.6 17.5h1.4v4l-8.3.1zm-1.9-9.9h2.7l-1.4-6.7-1.3 6.7zm-19.1 9.9v-4.1h1.1v-13.5h-1.1v-4h6.6c4.7 0 5.7 3.1 5.7 6.6 0 4.1-2.5 6.1-5.4 6.1h-1.6v4.8h1.2v4.1h-6.5zm5.4-12.2h.9c1.2 0 2-.9 2-2.6 0-1.8-.7-2.8-1.9-2.8h-1v5.4zm-18.7 12.2v-4.1h1.3v-13.4h-1.3v-4.1h12.4v6.8h-3.5v-2.7h-3.3v4.3h3.9v4.1h-3.9v5h3.3v-2.9h3.5v7H49.8zm6.9-28.8c-5.8 0-11.3-.2-15.9-.2s-8.6-.2-11.3-.3l-4.3-.1 4.3-.1c2.7-.1 6.6-.2 11.3-.3s10.1-.2 15.9-.2c5.8 0 12.1-.1 18.3-.1l18.3.1c5.8 0 11.3.2 15.9.2s8.5.2 11.3.3l4.3.1s-1.6 0-4.3.1c-2.7.1-6.6.2-11.3.3-4.7.1-10.1.2-15.9.2l-18.3.1-18.3-.1zm25.6-11.8L70.5 81l-9 8.9-1.3 2.8-5.6 3.9-3.4-3.4 3.9-5.6 2.8-1.2 9.1-9.1-8.4-9.3c-8.8 2.5-17.9-2.6-20.4-11.4-.8-2.9-.8-6 0-8.9.1-.5.5-.8 1-.8.3 0 .6.1.8.4l7.8 7.7c.5.5 1.3.5 1.8 0l7.5-7.4c.5-.5.5-1.3 0-1.8l-7.8-7.7c-.4-.4-.5-1-.1-1.5.1-.2.3-.3.5-.3 5.8-1.6 11.9 0 16.2 4.2 4.2 4.2 5.9 10.4 4.2 16.1l5.7 5.2c.5-.3 1.1-.5 1.7-.3h.6c.1-.1 0-.3 0-.5-.2-.6-.1-1.2.3-1.7l22.8-22.8c.9-.9 2.5-.9 3.4 0l7.3 7.3c.9.9.9 2.5 0 3.4l-23 22.6c-.5.4-1.1.5-1.7.3-.2 0-.5-.1-.5 0-.1.1 0 .4 0 .6v1l9.3 8.5c3.8 3.8 3.8 9.9 0 13.7s-10 3.7-13.7-.1zM71.4 80.1 83.2 93c3.3 3.3 8.6 3.3 11.9 0 3.3-3.3 3.3-8.6 0-11.9L86 72.7c-.5.5-1.2.8-1.9.8l9.5 9-10.5-9.2c-.5-.1-.9-.4-1.2-.7l-1.5-1.5-7.2 7.2 11.5 13.1-12-12.6-1.3 1.3zM59.3 87l1.7 1.7 18.5-18.4-.4-.4-13.6 12.6L78.2 69l-.4-.4L59.3 87zM68 76.4l1.2-1.2-6-6.3.9-.8 5.7 6.5 6.9-6.8-6.5-5.7.8-.9 3.5 3.3v-.4c0-.5.1-1 .4-1.4l-5.5-5c-.1.1-.2.3-.4.5-.5.6-1.2 1.4-1.9 2.2-.4.4-.7.8-1 1.1-.4.3-.7.7-1 .9l-.9.9s.3-.4.8-1c.2-.3.5-.7.8-1.1l.9-1.3c1-1.5 1.9-3 2.2-3.4 1.7-5.4.2-11.3-3.8-15.2-3.8-3.8-9.4-5.3-14.6-4l7.5 7.5c1 1 1 2.6 0 3.5l-7.4 7.4c-1 1-2.6 1-3.6 0l-7.5-7.5c-2.1 8.2 2.9 16.5 11.1 18.6 2.7.7 5.6.6 8.3-.2l.4-.1 8.7 9.9zm8.5-13.7-.2.2c-.6.6-.7 1.7 0 2.3l1.5 1.5 3.5 3.5 1.5 1.5c.6.6 1.7.6 2.3 0l.2-.2c.1-.1.1-.4.1-.7-.1-.4 0-.8.1-1.2l-4.4-5.2 5.3 4.4c.4-.1.7-.1 1.1 0 .2 0 .5.1.5 0L110.8 46c.4-.4.4-1.1 0-1.5l-7.3-7.3c-.4-.4-1.1-.4-1.5 0L79.2 60.1c-.1.1 0 .3 0 .5.2.5.1 1.1-.2 1.6-.5.5-1.1.7-1.8.5h-.4c-.1-.1-.2 0-.3 0zm11.1 28c-1.5-1.4-1.5-3.8 0-5.2 1.4-1.5 3.8-1.5 5.2 0 1.5 1.4 1.5 3.8 0 5.2-.7.7-1.6 1.1-2.6 1.1s-1.9-.4-2.6-1.1zm.9-4.4c-.9 1-.9 2.5 0 3.5 1 .9 2.5.9 3.4 0 1-1 1-2.5 0-3.4-.5-.5-1.1-.7-1.7-.7-.6-.1-1.3.2-1.7.6zm-4.4-22v-.2c.1-.7.3-1.4.5-2 .2-.7.4-1.3.6-2 .2-.6.5-1.3.8-1.9l.9-1.8 1-1.8c.4-.6.8-1.1 1.2-1.6l.6-.8.7-.7c.5-.5 1-1 1.5-1.4-.4.6-.8 1.1-1.2 1.6l-.6.8-.5.9c-.3.6-.7 1.1-1 1.7l-.9 1.8c-.3.6-.5 1.2-.8 1.8-.3.6-.5 1.2-.7 1.9-.2.6-.4 1.3-.6 1.9-.1.3-.2.6-.2 1 .3-.1.6-.1 1-.2.6-.2 1.3-.4 1.9-.6.6-.2 1.3-.4 1.9-.7.6-.3 1.2-.4 1.8-.8l1.8-.9c.6-.3 1.1-.7 1.7-1l.9-.5.8-.6c.5-.4 1.1-.8 1.6-1.2-.5.5-.9 1-1.4 1.5l-.7.7-.7.6c-.5.4-1.1.8-1.7 1.2l-1.8 1-1.8.9c-.6.3-1.3.6-1.9.8-.6.2-1.3.5-2 .6-.7.2-1.3.3-2 .5-.3.1-.7-.1-.7-.5zm13.9-10c-.9 0-1.7-.4-2.4-1-.2-.2-.3-.3-.4-.5l-.3-.6-.3-1.2c0-.8.1-1.5.3-2.3.4-1.2 1-2.4 1.8-3.4.5-.7 1.2-1.4 1.8-2 .5-.4.8-.6.8-.6s-.2.3-.6.8c-.5.7-1 1.4-1.4 2.2-.6 1-1 2.1-1.3 3.3-.2.6-.2 1.2-.2 1.9 0 .3.1.6.2.9.1.1.1.2.2.3.1.1.3.3.3.4.8.8 2.2.8 3.4.5 1.2-.3 2.3-.7 3.3-1.3.8-.4 1.5-.9 2.2-1.4l.8-.6s-.2.3-.6.8c-.6.7-1.3 1.3-2 1.8-1 .8-2.2 1.4-3.4 1.8-.6.2-1.3.3-1.9.3-.1-.1-.2-.1-.3-.1zm7.1-6.3c-.5-.1-1-.3-1.4-.5-.5-.3-.9-.6-1.3-1l-.9-1.2c-.5-.9-.7-1.9-.6-2.9 0-.4.1-.8.3-1.2.1-.2.1-.4.2-.5.1-.1.2-.3.3-.4.1-.2.3-.4.5-.6.3-.3.5-.4.5-.4l-.3.6c-.1.2-.2.4-.3.7-.1.3-.2.6-.2.9-.1.3-.1.7 0 1 0 .4.1.8.2 1.1.1.4.3.7.5 1.1.2.4.5.7.8 1.1.3.3.6.5.9.7.3.2.7.4 1.1.5.4.1.7.2 1.1.2.4 0 .7 0 1-.1.3 0 .6-.1.9-.2.2-.1.5-.2.7-.3l.6-.3-.4.5c-.2.2-.4.4-.6.5l-.4.3c-.2.1-.3.1-.5.2-.4.2-.8.3-1.2.3h-.5c-.4 0-.7 0-1-.1z" style="fill:#1e262e"/></svg>