<svg xmlns="http://www.w3.org/2000/svg" viewBox="0 0 150 150" style="enable-background:new 0 0 150 150" xml:space="preserve"><path d="M75 150c-20.6 0-40.6-6-59.5-17.7-.4-.3-.7-.7-.7-1.3V18.9c0-.5.3-1 .7-1.2C34.4 6 54.4 0 75 0s40.6 6 59.5 17.7c.4.3.7.7.7 1.2V131c0 .5-.3 1-.7 1.2C115.6 144 95.6 150 75 150zM17.8 19.8v110.5C36 141.4 55.2 147.1 75 147.1c19.8 0 39-5.7 57.2-16.8V19.8C114 8.6 94.8 2.9 75 2.9S36 8.6 17.8 19.8zM75 144.9c-18.8 0-37.2-5.3-54.7-15.6-.2-.1-.4-.4-.4-.6V21.4c0-.3.1-.5.4-.6C37.8 10.4 56.2 5.1 75 5.1s37.2 5.3 54.7 15.6c.2.1.4.4.4.6v107.2c0 .3-.1.5-.4.6-17.5 10.5-35.9 15.8-54.7 15.8zM21.4 21.8v106.3c17.1 10.1 35.1 15.2 53.5 15.2v.7-.7c18.4 0 36.4-5.1 53.6-15.2V21.8C111.4 11.7 93.4 6.6 75 6.6s-36.4 5.1-53.6 15.2zm46.4 114.3c-2.7-.1-3.9-2.3-3.9-5.7 0-2.7-.2-3.3-2-3.4v4.5c.5 0 .7 0 1.2.1v3.8c-2.6-.2-3.9-.3-6.5-.7V131c.5 0 .7.1 1.1.1 0-5 .1-7.4.1-12.4h-1.1V115h6.5c4.6 0 5.5 2.7 5.5 6.1 0 2.3-2.9 4.2-2.9 4.2s2.6 2.1 2.6 4.3c0 1.3.1 2 .5 2 .3 0 .5-.3.5-.9v-1h1.4v1.6c0 2.4-.7 4.6-2.8 4.6-.1.2-.1.2-.2.2zM62 123.8h.9c1.2 0 1.9-.8 1.9-2.3 0-1.7-.6-2.6-1.8-2.6h-1v4.9zm9.9-4.8h-1.1v-3.9h7.4v3.9h-1.1c.7 2.7 1 4 1.7 6.6.3 1.2.5 2.4.6 3.6h.1c.1-1.3.4-2.5.7-3.8.7-2.6 1.1-3.9 1.8-6.5h-1.1v-3.8h5.7v3.8h-1c-1.9 6.7-2.8 10.1-4.8 16.9-1.5.1-2.2.1-3.7.1-2-6.7-3-10.1-5.2-16.9zm15.3 12.6c.5 0 .8-.1 1.3-.1 0-5-.1-7.5-.1-12.6h-1.3v-3.8h6.7v3.7h-1.2c0 4.9.1 7.4.1 12.3.5 0 .8-.1 1.3-.1v3.7c-2.7.3-4 .5-6.7.7-.1-1.5-.1-2.3-.1-3.8zm-43.7 1v-3.3l1.3.2c0-4.4.1-6.6.1-11.1-.5 0-.8 0-1.3-.1V115c4.8 0 7.2 0 12.1.1 0 2.5 0 3.7-.1 6.2-1.4-.1-2.1-.1-3.5-.2v-2.4c-1.3 0-1.9-.1-3.2-.1v3.7c1.5.1 2.3.2 3.8.2v3.7c-1.5-.1-2.3-.2-3.8-.4v4.3c1.3.2 1.9.3 3.2.4V128c1.4.1 2.1.2 3.5.3 0 2.5 0 3.8-.1 6.3-4.8-.6-7.2-1-12-2zm51.1-7.6c-.1-6.4 3.4-10.3 6-10.3 1.3 0 2.5.7 3.1 1.8.2-.6.3-.9.4-1.5h3.2c0 2.8 0 4.2.1 7.1-1.4.1-2.1.2-3.6.3-.1-1.7-.7-3.2-2.2-3.2-1.4.1-2.4 2.5-2.3 5.4 0 2.7 1.1 5 3 4.7 1.7-.2 3-2.7 3.2-3 .9 1.2 1.4 1.7 2.4 2.8-1.3 2.1-3.4 4.3-6 4.7-.4.1-.8.1-1.2.1-3.7.2-6-3.2-6.1-8.9zm14 3.9 1.3-.2c0-4.2-.1-6.3-.1-10.5-.5 0-.8 0-1.3.1v-3.2c4.8 0 7.2 0 12.1-.1v4.4c-1.4.1-2.1.2-3.4.3v-1.9c-1.3.1-1.9.1-3.2.2v3.1c1.5-.2 2.3-.2 3.8-.4v2.8c-1.5.3-2.3.4-3.8.6v3.7c1.3-.3 1.9-.4 3.2-.7v-2c1.4-.3 2-.4 3.4-.7v4.5c-4.7 1.5-7.1 2.1-11.9 3.2-.1-1.3-.1-1.9-.1-3.2zm-71.4 2.6c-1.7-.5-3.2-1.6-4.1-3.1-.1.6-.1 1-.2 1.6-1.4-.4-2.1-.6-3.4-1v-5c1.5.3 2.2.4 3.7.7.1 1.4 1.1 2.5 2.5 2.7.7.2 1.7.2 1.7-.8 0-1.8-7.6-2.5-7.6-7.6 0-3 2.8-4.3 4.8-4.3 1.8-.1 3.4.8 4.2 2.4.1-.8.1-1.2.2-2h3.4c0 2.5 0 3.7-.1 6.2-1.4-.1-2.2-.2-3.6-.3.1-1.5-1-2.8-2.4-2.9h-.1c-.7-.1-1.3.4-1.4 1.1 0 2.3 7.9 2.5 7.8 8.4 0 3.1-1.9 4.2-3.8 4.2-.6-.1-1.1-.2-1.6-.3zM52.1 105l3.9-5.5 2.7-1.2 12.1-12-16.4-17-.2.2c-.3.3-.7.3-1 0l-.2-.2c-7.6 3.1-11.3 7.3-12.9 10.2-.4 1.2-.6 2.4-.8 3.6-.1.4-.4.6-.8.6-.3 0-.5-.3-.6-.6-1.4-11.3 6.3-22.5 6.7-23l9.3-9.3c.3-.3.7-.3 1 0l.7.7c.3 0 .5-.1.8-.2-1-1.1-1-2.7.1-3.8l5-5c1.1-1.1 2.8-1.1 3.9 0l6.5 6.5c1.1 1.1 1.1 2.8 0 3.9l-5 5c-1 1-2.7 1.1-3.8.1-.1.2-.2.5-.2.8l.7.7c.3.3.3.7 0 1l-.8.8L76 74c.5-.4 1.1-.5 1.7-.4h.6v-.5c-.2-.6-.1-1.2.3-1.7L101.1 49c.9-.9 2.4-.9 3.4 0l7.2 7.2c.9.9.9 2.4 0 3.3L89.2 81.9c-.5.4-1.1.5-1.7.3-.2 0-.5-.1-.5 0-.1 0 0 .4 0 .6.1.5 0 1-.2 1.5l13.7 13.1c2.6 2.6.5 4.8-1 6.2l-1.2 1.2L97 106c-1.4 1.4-3.6 3.6-6.2 1L74.2 89.8l-12 11.9-1.2 2.7-5.5 3.9-3.4-3.3zm39.6 1c.9.9 1.7 1 2.6.4l-4.8-5.2 5.3 4.8c.2-.2.4-.3.6-.6L85.2 94.8 96 105.1l1.2-1.2.8-.7-7.2-7.6 7.7 7.2c1.9-1.9 2.4-2.9 1-4.3L85.7 85.2c-1.1.6-2.6.5-3.5-.5l-1.5-1.5-.5.5c.7.4 1.5.9 2.1 1.4.7.5 1.3 1.1 1.9 1.7.4.4.6.7.6.7l-.7-.5c-.5-.4-1.1-.9-2-1.5-.7-.5-1.5-.9-2.3-1.3L76 88c.4.8.8 1.6 1.3 2.3.6.8 1.1 1.5 1.5 2 .4.5.6.7.6.7l-.7-.6c-.6-.6-1.2-1.2-1.7-1.9s-1-1.4-1.4-2.1l-1 1 .6-.6L91.7 106zM60 98.8l1.7 1.7 18.2-18.1-.5-.4-13.3 12.4 12.5-13.3-.4-.4L60 98.8zm5.7-23c.3.6.5 1.2.8 1.8.3.6.6 1.2.9 1.7l1 1.7 1.1 1.6c.4.5.8 1.1 1.2 1.6l.7.8.3.3 5.4-5.4-1.2-1c-.5-.4-1-.8-1.6-1.2l-1.6-1.1-1.7-1c-.6-.3-1.1-.6-1.7-.9-.6-.3-1.2-.6-1.8-.8-1-.4-2-.8-3-1.1l1.2 3zm11.2-.9-.2.2c-.6.6-.6 1.6 0 2.3l1.5 1.4 3.5 3.5 1.5 1.5c.6.6 1.7.6 2.3 0l.2-.2c.1-.1.1-.4.1-.7-.1-.4 0-.8.1-1.2l-4.3-5.2 5.2 4.4c.4-.1.7-.1 1.1 0 .2 0 .5.1.5 0l22.5-22.4c.4-.4.4-1.1 0-1.5l-7.2-7.2c-.4-.4-1.1-.4-1.5 0L79.5 72.3c-.1.1 0 .3 0 .5.2.5.1 1.1-.2 1.6-.5.5-1.1.6-1.7.5h-.4c-.1-.1-.2 0-.3 0zm-21.6-6.6 13.9 14.4-1.2-1.5-1-1.6c-.4-.6-.7-1.1-1-1.7l-.9-1.8c-.6-1.2-1.1-2.4-1.5-3.7-.1-.2 0-.4.2-.4h.2c1.3.4 2.5.9 3.7 1.4l1.8.9c.6.3 1.2.6 1.7 1l1.7 1.1 1.6 1.2c.5.4 1 .8 1.5 1.3l1.1 1.1.1-.1-1.5-1.5c-.8-.8-1.1-2.1-.6-3.2L61.6 62l-1 .9 6.1 6.6-6.6-6.1-3.8 3.8 4.5 4.9-4.9-4.5-.6.7zm-9.8-7.4s-5.2 7.7-6.3 16.5c1.8-4.7 4.5-9.1 7.8-13l.1-.1c.4-.4.9-.6 1.4-.6.5 0 1 .2 1.4.6l3.7 3.7 8.2-8.2-7.6-7.6-8.7 8.7zm30 13.7c.1-.2.2-.3.3-.4-.1.1-.2.3-.3.4zm-26.8-7.9c-.3.2-.7.5-1.1.8-.5.3-.9.8-1.5 1.2l-.8.8-.8.8c-.2.2-.4.4-.6.7l-.9 1.5c.1-.1.2-.2.3-.4.5-.6.9-1.1 1.5-1.6.3-.3.5-.5.8-.7.3-.2.5-.5.8-.7.6-.4 1-.8 1.5-1.1.5-.3 1-.7 1.5-1l-.3-.6s-.2.1-.4.3zm8.5-18.3c-.5.5-.5 1.4 0 2l6.5 6.5c.5.5 1.4.5 2 0l5-5-8.4-8.4-5.1 4.9zM82.3 96c-.2-.1-.3-.3-.4-.5-.2-.2-.4-.5-.5-.8-.2-.3-.3-.7-.4-1-.1-.4-.2-.8-.2-1.2 0-.2 0-.4.1-.6 0-.2.1-.4.2-.6.2-.4.4-.8.8-1.2.3-.3.7-.5 1.1-.7.2-.1.4-.2.7-.2.2 0 .4-.1.7-.1.4 0 .8 0 1.2.2.3.1.7.2 1 .4.3.1.5.3.8.5.2.1.4.3.5.4l.4.4s-.2-.1-.5-.3l-.6-.3c-.2-.1-.5-.2-.8-.3-.3-.1-.6-.2-.9-.2-.4-.1-.7-.1-1.1 0-.2 0-.4 0-.5.1-.2 0-.4.1-.5.2-.4.2-.7.4-1 .6l-.6.9c-.1.2-.2.3-.2.5-.1.2-.1.4-.1.5v1.1c0 .3.1.6.2.9.1.3.2.5.3.8.2 0 .3.2.3.5l.4.4-.4-.4zm2-19.5v-.2c.1-.7.3-1.3.5-2s.4-1.3.6-1.9c.2-.6.5-1.3.8-1.9l.9-1.8 1-1.7c.4-.5.8-1.1 1.2-1.6l.6-.8.7-.7c.5-.5 1-.9 1.4-1.4-.4.5-.8 1.1-1.2 1.6l-.6.8-.5.9c-.3.6-.7 1.1-1 1.7l-.7 1.6c-.3.6-.5 1.2-.8 1.8-.3.6-.5 1.2-.7 1.8-.2.6-.4 1.2-.6 1.9-.1.3-.2.6-.2.9.3-.1.6-.1.9-.2.6-.2 1.2-.3 1.9-.6l1.8-.6c.6-.3 1.2-.4 1.8-.7l1.8-.8c.6-.3 1.1-.7 1.7-1l.9-.5.8-.6c.5-.4 1.1-.8 1.6-1.2-.5.5-.9 1-1.4 1.4l-.7.7-.7.6c-.5.4-1.1.8-1.6 1.2l-1.7 1-1.8.9c-.6.3-1.2.5-1.9.8-.6.2-1.3.4-1.9.6-.7.2-1.3.3-2 .5-.5.1-.8-.1-.9-.5zm-42-7.7c.2-.4.3-.9.5-1.3l.6-1.3c.4-.8.8-1.7 1.2-2.5.4-.8.9-1.6 1.4-2.4l8-8.2.5.5-8.3 8c-.5.8-1 1.6-1.4 2.4-.5.8-.9 1.6-1.3 2.5l-.6 1.2c-.2.2-.4.7-.6 1.1l-1 2.6 1-2.6zM98 66.6c-.9 0-1.7-.4-2.3-1-.1-.2-.3-.3-.4-.5l-.3-.6-.3-1.2c0-.8.1-1.5.3-2.2.4-1.2 1-2.4 1.8-3.4.5-.7 1.1-1.3 1.8-1.9.5-.4.8-.6.8-.6l-.6.8c-.5.7-1 1.4-1.4 2.2-.6 1-1 2.1-1.3 3.3-.1.5-.2 1.1-.1 1.7 0 .3.1.6.2.8 0 .1.1.2.2.3.1.1.3.3.3.4.8.8 2.2.8 3.4.5 1.1-.3 2.2-.7 3.3-1.3.8-.4 1.5-.9 2.2-1.4.5-.4.8-.6.8-.6s-.2.3-.6.8c-.6.7-1.2 1.3-1.9 1.8-1 .8-2.2 1.4-3.4 1.8-.6.2-1.2.3-1.9.3-.3.1-.4.1-.6 0zm7-6.1c-.5-.1-1-.3-1.4-.5-.5-.3-.9-.6-1.3-1-.3-.4-.6-.8-.8-1.2-.3-.5-.4-.9-.5-1.4-.1-.5-.1-.9 0-1.4 0-.4.1-.8.3-1.2.1-.2.1-.3.2-.5.1-.1.2-.3.3-.4.1-.2.3-.4.5-.6.3-.3.5-.4.5-.4l-.3.6c-.1.2-.2.4-.3.7-.1.3-.2.6-.2.9-.1.3-.1.7 0 1 0 .4.1.7.2 1.1.1.4.3.7.5 1 .2.4.5.7.8 1 .3.3.6.5.9.7.3.2.7.4 1.1.5.4.1.7.2 1.1.2h1c.3 0 .6-.1.9-.2.2-.1.5-.2.7-.3l.6-.3s-.2.2-.4.5c-.2.2-.4.4-.6.5-.1.1-.3.2-.4.3-.2.1-.3.1-.5.2-.4.2-.8.3-1.2.3h-.5c-.5-.1-.8-.1-1.2-.1zm-40.7-3.8c-.2-.1-.5-.3-.7-.5-.2-.2-.4-.4-.6-.5-.8-.7-1.6-1.5-2.4-2.3-.8-.8-1.6-1.6-2.3-2.4-.2-.2-.4-.4-.5-.6l-.3-.3c-.1-.1-.1-.3-.2-.4-.1-.3 0-.7.3-.9l.5-.5c1.3-1.1 2.2-1.9 2.2-1.9s-.7.9-1.9 2.1c-.1.2-.3.3-.5.5-.1.1-.1.3-.1.4 0 0 .1.2.2.3 0 0 .2.1.2.2.2.2.4.4.6.5.8.7 1.6 1.5 2.4 2.3s1.6 1.6 2.3 2.4c.2.2.4.4.5.6.1.2.3.3.5.5.3.2.6-.1.9-.4 1.3-1.1 2.2-1.9 2.2-1.9s-.7.9-1.9 2.1c-.2.2-.3.4-.5.5-.1.1-.3.1-.4.2h-.1c-.1.1-.3.1-.4 0zM40.8 30c0-2.1-.2-2.6-2-2.4V31c.5 0 .7 0 1.2-.1v3h-6.5v-2.6c.4 0 .7 0 1.1-.1v-8.9c-.4.1-.7.2-1.1.3V20c2.5-.8 3.8-1.2 6.4-1.9 4.6-1.2 5.5.9 5.5 3.7 0 1.9-2.9 3.9-2.9 3.9s2.6 1.4 2.7 3.2c0 1.1.1 1.7.5 1.6.3 0 .5-.3.5-.8v-.8c.5 0 .8-.1 1.3-.1v1.4c0 2.1-.7 4-2.9 4-2.5 0-3.8-1.5-3.8-4.2zm-1.1-8.9c-.4.1-.6.1-1 .2v3.8c.4-.1.5-.1.9-.1 1.1-.1 2-1.1 1.9-2.2 0-1.2-.5-1.7-1.3-1.7h-.5zm66 8.9c0-2.1-.2-2.6-2-2.8v3.6c.5 0 .7 0 1.2.1v3h-6.5v-3.3c.4 0 .7 0 1.1.1 0-4.3.1-6.5.1-10.8-.4-.1-.7-.1-1.1-.2v-3.3c2.6.5 3.9.8 6.5 1.5 4.6 1.2 5.4 3.5 5.4 5.8 0 1.6-2.9 2.6-2.9 2.6s2.6 1.8 2.6 3.4c0 .9.1 1.4.5 1.5.3 0 .5-.2.5-.6v-.7c.5 0 .8.1 1.3.1v1c0 1.7-.7 3.2-2.9 3.2-2.6 0-3.8-1.5-3.8-4.2zm-2-5.4.9.1c1.2.2 1.9-.3 1.9-1.5.1-1.1-.7-2.2-1.8-2.4-.4-.1-.6-.1-1-.2v4zm-13 9.3v-3.6H92c0-4.6.1-7 .1-11.6-.5-.1-.8-.1-1.3-.2v-3.6c2.7.4 4 .6 6.7 1.1v3.4c-.5-.1-.8-.1-1.2-.2 0 4.5-.1 6.7-.1 11.2h1.2v3.4c-2.7.1-4 .1-6.7.1zm-42.4-3.3c.5 0 .8 0 1.3-.1 0-4.5-.1-6.7-.1-11.1-.5.1-.8.1-1.3.2v-3.3c4-.8 8.1-1.4 12.1-1.8v6.2c-1.4.1-2.1.2-3.5.3v-2.4c-1.3.1-1.9.2-3.2.4v3.7c1.5-.1 2.3-.2 3.8-.3V26c-1.5.1-2.3.1-3.8.2v4.3c1.3 0 1.9-.1 3.2-.1v-2.5c1.4-.1 2.1-.1 3.5-.1v6.3H48.2c.1-1.5.1-2.2.1-3.5zm33.6 3.3v-3.7h1.9c-.2-.8-.2-1.2-.4-1.9-1.7 0-2.5-.1-4.1-.1-.2.8-.3 1.2-.4 1.9h1.6v3.7h-6.4V30h1.4c1.1-5 1.6-7.6 2.8-12.5h-.8v-3.7c3.1.1 4.7.2 7.8.5 1.4 6.5 2.1 9.7 3.4 15.9h1.4v3.6c-3.4.1-5 .1-8.2.1zm-1.8-9.1c1.1 0 1.6 0 2.6.1-.5-2.5-.8-3.7-1.3-6.2-.5 2.4-.8 3.7-1.3 6.1zm-18.7 5.4h1.1c0-4.9 0-7.4-.1-12.3-.5 0-.7 0-1.1.1v-3.7c2.6-.2 3.9-.3 6.6-.4 4.7-.2 5.6 2.8 5.6 6 0 3.8-2.4 5.7-5.3 5.7h-1.5V30h1.2v3.8h-6.5v-3.6zm6.2-12.6h-1v5h.9c1.2 0 2-.9 2-2.4 0-1.7-.7-2.6-1.9-2.6z" style="fill:#1e262e"/></svg>