<svg xmlns="http://www.w3.org/2000/svg" viewBox="0 0 150 150" style="enable-background:new 0 0 150 150" xml:space="preserve"><path d="M94.2 143c0-4.5 3.4-7.2 6-7.2 1.2-.1 2.3.4 3 1.3l.5-1.1h3.1v5.6h-3.5c-.1-1.3-.7-2.5-2.1-2.5-1.4 0-2.3 1.8-2.3 3.9 0 1.9 1 3.7 2.9 3.7 1.7 0 3-1.7 3.1-1.9l2.3 2.5c-1.5 1.7-3.7 2.7-6 2.8-4.2-.1-7-2.7-7-7.1zm-60.4 5.2-.2 1.5h-3.5v-5h3.7c0 1.7 1.7 1.9 2.5 2 .7 0 1.7-.2 1.7-1 0-1.5-7.6-.9-7.6-5.9 0-2.9 2.8-4.2 4.7-4.2 1.6-.2 3.2.6 4.1 2l.2-1.7h3.4v4.9h-3.6c0-1.3-1-2.3-2.3-2.3h-.2c-.6 0-1.4.4-1.4 1 0 2 7.8 1.6 7.8 6.2 0 3.1-2.9 4.2-5.2 4.2-1.6.1-3.1-.5-4.1-1.7zm30.4-1.9c0-1.8-.2-2.2-2-2.2v3.1h1.2v2.6H57v-2.6h1.1v-8.6H57V136h6.4c4.6 0 5.5 1.8 5.5 4.1-.1 1.5-1.3 2.8-2.9 2.9 1.4.2 2.5 1.4 2.6 2.8 0 .8.1 1.3.5 1.3.3 0 .5-.2.5-.6v-.6h1.3v1.1c0 1.6-.7 3.2-2.9 3.2-2.6-.2-3.8-1.6-3.8-3.9zm-2-4.4h.9c1.1 0 1.9-.5 1.9-1.6.1-.9-.5-1.7-1.4-1.8h-1.4v3.4zm45.8 7.8v-2.6h1.2v-8.5H108V136h11.9v4.4h-3.4v-1.8h-3.2v2.7h3.8v2.6h-3.8v3.2h3.2v-1.8h3.4v4.4H108zm-21.1 0v-2.6h1.2v-8.5h-1.2V136h6.6v2.6h-1.2v8.5h1.2v2.6h-6.6zm-9.7 0L72 138.5h-1.1V136h7.3v2.6h-1.1l1.7 4.4c.3.8.5 1.6.6 2.4h.1c.1-.9.4-1.7.7-2.5l1.8-4.3h-1V136h5.6v2.6h-1l-4.7 11.2-3.7-.1zm-33.1 0v-2.6h1.2v-8.5h-1.2V136H56v4.4h-3.4v-1.8h-3.2v2.7h3.7v2.6h-3.7v3.2h3.2v-1.8H56v4.4H44.1zm68.5-29c0-4.3 3-7.2 6.1-7.2 2.9 0 3.5 1.3 3.8 1.7l.4-1.4h2.9v5.8h-3.5c.1-1.3-.9-2.4-2.2-2.5h-.1c-1.6 0-2.7 1.7-2.7 3.7s1 3.6 2.7 3.6c.8.1 1.5-.3 1.9-1v-.8h-1.2v-2.1h6.6v2.1h-.8v4.9h-3.9l-.6-1.2c-.8 1-2 1.5-3.2 1.4-3.5-.1-6.2-2.8-6.2-7zm-6.4 6.7-5-7.5v5h1.5v2.5h-6.1v-2.5h1.2v-8.7h-1.1v-2.5h5.7l4.8 7.2v-4.7h-1.3v-2.5h5.9v2.5h-1.3v11.2h-4.3zm-17.1 0v-2.6h1.2v-8.5h-1.2v-2.6h6.6v2.6h-1.2v8.5h1.2v2.6h-6.6zm-11.1 0v-2.6h1.6v-8.5H78v2.5h-2.9v-5.1h13.2v5.1h-2.9v-2.5h-1.7v8.5h1.6v2.6H78zm-9.3 0-5-7.5v5h1.5v2.5h-6.1v-2.5h1.2v-8.7h-1.1v-2.5h5.7l4.8 7.2v-4.7h-1.3v-2.5h5.9v2.5H73v11.2h-4.3zm-17.1 0v-2.6h1.2v-8.5h-1.2v-2.6h6.6v2.6H57v8.5h1.2v2.6h-6.6zm-28.9 0v-2.6h1.1v-8.6h-1.1v-2.6h6.4c4.6 0 5.4 2 5.4 4.2 0 2.6-2.4 3.9-5.2 3.9h-1.5v3.1H29v2.6h-6.3zm5.1-7.8h.9c1.1 0 1.9-.6 1.9-1.6.1-.9-.6-1.7-1.5-1.8h-1.3v3.4zm15.1 7.8v-2.6h1.9l-.4-1.3h-4l-.4 1.3h1.5v2.6h-6.3v-2.6h1.3l2.7-8.6h-.8v-2.5H46l3.5 11.2h1.4v2.6h-8zm-1.9-6.3h2.6l-1.3-4.3-1.3 4.3zm86.1-9.8V53.8c0-.8.7-1.5 1.5-1.5h5.4l-14.6-12.1c-.3-.3-.5-.7-.5-1.1V16h-15.1v8.1c0 .6-.3 1.1-.9 1.3-.5.2-1.1.2-1.6-.2L75 3.5 16 52.3h5.4c.8 0 1.5.7 1.5 1.5v57.5h-3v-56h-8c-.8 0-1.5-.7-1.5-1.5 0-.4.2-.9.5-1.1L74 .4c.6-.5 1.4-.5 1.9 0L100.8 21v-6.4c0-.8.7-1.5 1.5-1.5h18c.8 0 1.5.7 1.5 1.5v23.8l17.3 14.3c.6.5.7 1.4.2 2.1-.3.3-.7.6-1.2.5h-8v56h-3zm-3.7 0v-62c0-.3.2-.5.4-.7l-8.4-7c-.2-.1-.3-.4-.3-.6V19.7h-7.6v13.8c0 .4-.3.7-.7.7-.2 0-.3-.1-.5-.2L75 8.3 26.2 48.7c.2.1.4.4.4.7v61.9h-1.5V50h-.9c-.4 0-.7-.3-.7-.7 0-.2.1-.4.3-.6l50.8-42c.3-.2.7-.2 1 0L106 32V19c0-.4.3-.7.7-.7h9.1c.4 0 .7.3.7.7v21.8l9.6 8c.3.3.4.7.1 1-.1.2-.4.3-.6.3h-.9v61.2h-1.3zm-42.8-1.6V90.6c0-.9-.7-1.6-1.6-1.6h-1.3l-.4 8.8-.4-8.8h-2.4l-.3 5.9-.3-5.9h-2.4l-.5 8.7-.3-8.7c-.7.1-1.3.8-1.3 1.5v19.2h-1.5V90.6c0-1.7 1.4-3.2 3.2-3.2h1.6V76.7c0-1 .7-2 1.7-2.3l26.2-8.4V54.5h-1v4.4c0 1.1-.9 2-2 2H48.9c-1.1 0-2-.9-2-2v-4.4c-1.3-.1-2.3-1.2-2.2-2.5.1-1.2 1-2.1 2.2-2.2v-4.5c0-1.1.9-2 2-2h48.5c1.1 0 2 .9 2 2v4.5h3.4c1.3 0 2.4 1.1 2.4 2.4v15.7c0 1-.7 2-1.7 2.3l-26.2 8.4v9H79c1.7 0 3.2 1.4 3.2 3.1v19.2l-1.6-.2zm14.7-39.9c-2 .6-4.7 1.3-7.4 2.2-2.7.8-5.3 1.8-7.3 2.5s-3.3 1.3-3.3 1.3 1.4-.3 3.4-.9c2-.5 4.7-1.3 7.4-2.2 2.7-.9 5.3-1.8 7.3-2.5s3.3-1.3 3.3-1.3-1.4.4-3.4.9zM48.5 45.2v13.6c0 .2.2.4.4.4h48.5c.1 0 .2 0 .3-.1.1-.1.1-.2.1-.3V45.2c0-.2-.2-.4-.4-.4H48.9c-.2 0-.4.2-.4.4zM74 109.7c.3-.1.7-.2 1-.2h.5l.5.1h.1l-2.1.1zm5.1-2-.1-.8-.2-.7c-.1-.5-.2-1-.4-1.5l-.6-1.4c-.2-.5-.5-.9-.7-1.4-.2-.5-.5-.9-.7-1.3-.4-.8-.9-1.6-1.4-2.2-.5.7-1 1.4-1.4 2.1-.3.4-.5.9-.7 1.3-.2.5-.5.9-.7 1.4l-.6 1.4c-.2.5-.3 1-.4 1.5l-.2.7-.1.8-.2 1.5V106.7l.1-.8c.1-.5.2-1 .3-1.6l.5-1.5.6-1.5c.2-.5.5-1 .7-1.4.5-.9 1.1-1.8 1.7-2.7.1-.2.4-.2.5-.1 0 0 .1 0 .1.1.7.8 1.2 1.7 1.7 2.7.3.5.5.9.7 1.4l.6 1.5.5 1.5.3 1.5.1.8V109v-1.3zm-13.6-50c-2.5-.1-4.8-.2-6.7-.2-2-.1-3.6-.2-4.8-.3-1.1-.1-1.8-.1-1.8-.1s.7-.1 1.8-.1c1.1-.1 2.8-.2 4.8-.3 2-.1 4.3-.2 6.7-.2 2.5-.1 5.1-.1 7.7-.1 2.6 0 5.2 0 7.7.1 2.5 0 4.8.2 6.7.2 2 .1 3.6.2 4.8.3 1.1.1 1.8.2 1.8.2l-1.8.2c-1.1.1-2.8.2-4.8.3-2 .1-4.3.2-6.7.2-2.5.1-5.1.1-7.7.1-2.6-.2-5.2-.3-7.7-.3z" style="fill:#1e262e"/></svg>