<svg xmlns="http://www.w3.org/2000/svg" viewBox="0 0 150 150" style="enable-background:new 0 0 150 150" xml:space="preserve"><path d="M0 75C-.1 33.6 33.3-.1 74.8-.2s75.1 33.3 75.2 74.8c.1 41.4-33.3 75.1-74.8 75.2H75C33.7 149.8.1 116.3 0 75zm2.9 0c-.1 39.8 32 72.2 71.8 72.3 39.8.1 72.2-32 72.3-71.8.1-39.8-32-72.2-71.8-72.3H75C35.3 3.2 3 35.3 2.9 75zm2.2 0C5 36.4 36.2 5.1 74.8 4.9c38.6-.1 69.9 31.1 70.1 69.6.1 38.6-31.1 69.9-69.6 70.1h-.2c-38.6.1-69.9-31.1-70-69.6zm1.5 0c-.1 37.8 30.4 68.5 68.2 68.6s68.5-30.4 68.6-68.2C143.5 37.7 113 7 75.2 6.8H75C37.3 6.8 6.7 37.3 6.6 75zm77.3 62.1 1-.2-1.9-8.1-1 .2-.6-2.4 6-1.4c4.3-1 5.6.6 6.1 2.8.6 2.4-1.4 4.2-4 4.8l-1.4.3.7 2.9 1.1-.3.6 2.4-6 1.4-.6-2.4zm3.8-9.5-.9.2.8 3.2.8-.2c1.1-.3 1.7-1 1.5-2-.1-.8-.8-1.4-1.6-1.4-.2.2-.4.2-.6.2zm9.4 6.4 1.2-.6-1.6-8.6-.7.4-1.1-2.2 6.5-3.4 8 8.1 1.2-.6 1.2 2.2-6.8 3.5-1.2-2.2 1.6-.8-1-1-3.5 1.8.2 1.3 1.3-.7 1.2 2.2-5.4 2.8-1.1-2.2zm3.4-5.8 2.2-1.2-3-3.1.8 4.3zM59.9 119c-2.8 1.5-6 2.3-9.2 2.4h-.4L9 80.3h2.3c9.7 0 22.3-12.1 24.3-14l.3-.3.7-.7 7.6-7.5 1.4-1.3 3.8-3.8c1.9-1.8 4.8-2.1 7.1-.7 7.6 5 13.6 7.5 16.1 6.9 5.2-1.4 10-10.6 13.9-18.1 1.4-2.8 2.9-5.5 4.6-8.1 2.6-3.8 9.7-7.2 15.9-7.8 3.9-.3 6.9.4 8.7 2.3 1.8 1.8 2.6 4.8 2.3 8.7-.6 6.3-4 13.3-7.8 15.9-2.6 1.7-5.4 3.2-8.2 4.6-7.5 3.9-16.7 8.7-18.1 13.9-.6 2.4 1.9 8.4 6.9 16 1.4 2.2 1.1 5.1-.7 7.1L85 98.5l-8.2 8.2-.5.5-.1.1c-.9.9-2.8 2.7-5.2 4.6-4.1 5.1-8.8 12.4-8.8 18.6-1.6-3.7-2.3-7.5-2.3-11.5zm-3.1-10.1c-.6.4-1.4 1-2.2 1.5-.8.5-1.7 1-2.7 1.5-.5.3-1 .5-1.4.7-.5.2-.9.4-1.4.6-.5.2-.9.3-1.4.5-.5.1-.9.2-1.3.3-.2.1-.5.1-.7.2l5.4 5.3c9.1-.3 20.6-10.8 23.5-13.6L36.6 68C33.8 70.7 23 80.6 13.5 82l3.6 3.6h.7c.5 0 .9 0 1.4-.1.4 0 .8-.1 1.2-.2.4-.1.9-.2 1.3-.3.5-.1.9-.2 1.4-.4.5-.2 1-.3 1.4-.5 1-.4 1.9-.8 2.8-1.2.9-.4 1.7-.9 2.4-1.2 1.4-.8 2.2-1.3 2.2-1.3s-.9.7-2.1 1.6c-.6.4-1.4 1-2.2 1.5-.8.5-1.7 1-2.7 1.5-.5.3-1 .5-1.4.7-.5.2-.9.4-1.4.6-.5.2-.9.3-1.4.5-.5.1-.9.2-1.3.3-.2.1-.5.1-.7.2l2.9 2.9h.7c.5 0 .9 0 1.4-.1.4-.1.8-.1 1.2-.2l1.3-.3c.5-.1.9-.2 1.4-.4.5-.2 1-.3 1.4-.5 1-.4 1.9-.8 2.8-1.2.9-.4 1.7-.8 2.4-1.2 1.4-.8 2.2-1.3 2.2-1.3s-.8.6-2.1 1.6c-.6.4-1.4 1-2.2 1.5-.8.5-1.7 1-2.7 1.5-.5.3-1 .5-1.4.7-.5.2-.9.4-1.4.6-.5.2-.9.3-1.4.5-.5.1-.9.2-1.3.3-.2.1-.5.1-.7.2l2.9 2.8h.7c.5 0 .9 0 1.4-.1.4-.1.8-.1 1.2-.2.4-.1.9-.2 1.3-.3.5-.1.9-.2 1.4-.4.5-.2 1-.3 1.4-.5 1-.4 1.9-.8 2.8-1.2.9-.4 1.7-.8 2.4-1.2 1.4-.8 2.3-1.3 2.3-1.3s-.8.6-2.1 1.6c-.6.4-1.4 1-2.2 1.5-.8.5-1.7 1-2.7 1.5-.5.3-1 .5-1.4.7-.5.2-.9.4-1.4.6-.5.2-.9.3-1.4.5l-1.3.3c-.2.1-.5.1-.7.1l2.9 2.9h.7c.5 0 .9 0 1.4-.1l1.2-.2c.4-.1.9-.2 1.3-.3.5-.1.9-.2 1.4-.4.5-.2 1-.3 1.4-.5 1-.4 1.9-.8 2.8-1.2.9-.4 1.7-.8 2.4-1.2 1.4-.8 2.3-1.3 2.3-1.3s-.8.6-2.1 1.6c-.6.4-1.4 1-2.2 1.5-.8.5-1.7 1-2.7 1.5-.5.3-1 .5-1.4.7-.5.2-.9.4-1.4.6-.5.2-.9.3-1.4.5-.5.1-.9.2-1.3.3-.3.1-.5.1-.7.2l2.9 2.9h.7c.5 0 .9 0 1.4-.1.4 0 .8-.1 1.2-.2.4-.1.9-.2 1.3-.3.5-.1.9-.2 1.4-.4.5-.2 1-.3 1.4-.5 1-.4 1.9-.8 2.8-1.2.9-.4 1.7-.9 2.4-1.2 1.4-.8 2.2-1.3 2.2-1.3s-.8.6-2.1 1.6c-.6.4-1.4 1-2.2 1.5-.8.5-1.7 1-2.7 1.5-.5.3-1 .5-1.4.7-.5.2-.9.4-1.4.6-.5.2-.9.3-1.4.5-.5.1-.9.2-1.3.3-.2.1-.5.1-.7.1l2.9 2.9h.7c.5 0 .9 0 1.4-.1l1.2-.2c.4-.1.9-.2 1.3-.3.5-.1.9-.2 1.4-.4.5-.2 1-.3 1.4-.5 1-.4 1.9-.8 2.8-1.2.9-.4 1.7-.8 2.4-1.2 1.4-.8 2.3-1.3 2.3-1.3s-.8.6-2.1 1.6c-.6.4-1.4 1-2.2 1.5-.8.5-1.7 1-2.7 1.5-.5.3-1 .5-1.4.7-.5.2-.9.4-1.4.6l-1.4.5c-.5.1-.9.2-1.3.3-.2.1-.5.1-.7.2l2.9 2.9h.7c.5 0 .9 0 1.4-.1.4-.1.8-.1 1.2-.2.4-.1.9-.2 1.3-.3.5-.1.9-.2 1.4-.4.5-.2 1-.3 1.4-.5 1-.4 1.9-.8 2.8-1.2.9-.4 1.7-.8 2.4-1.2 1.4-.8 2.3-1.3 2.3-1.3s-1.2.3-2.5 1.2zM37.9 66.7l38 37.9 3.1-3.1-17.8-19 19.1 17.7 3.1-3.1-38-37.9-5.6 5.6 24.4 25.7-25.6-24.4-.7.6zm60.9-28.4c-1.6 1.5-1.6 4.1 0 5.6 1.6 1.6 4.1 1.6 5.7 0 1.6-1.6 1.6-4.1 0-5.6-1.6-1.6-4.1-1.6-5.7 0zm13.1 87.2.9-.8-5.2-6.4-.9.8-1.6-2 4.9-4 1.6 2-.9.7 5.2 6.4.9-.7 1.6 2-4.9 4-1.6-2zm6.8-5.1.7-.9-6.5-5.4-.7.9-1.9-1.6 3.5-4.2 8.4.9-3.5-2.9-.8 1-1.9-1.6 3.4-4.1 5.4-11.5-.3-.1 1.6-6.1 2.4.6-.3 1.1 8 2.1.3-1.1 2.5.6-1.6 6.1-2.5-.6.3-1.2-8-2.1-.3 1.2-1.5-.4 3.9 1.8-1.2 2.5-2.2-1-.7 1.4 7.5 3.5.7-1.4 2.3 1.1-3 6.4-2.3-1.1.7-1.4-7.5-3.5-.7 1.5 2.2 1-1.2 2.5-2.8-1.3.5.4-.8 1 8.4 6.9-2.6 3.2-8.7-.9 3.7 3.1.9-1.1 1.9 1.6-3.7 4.5-2-1.4zM95 87.2c0-4.1 2.9-5.7 4.2-6.6-3-4.5.4-8.3 3.9-8.3 5.9 0 7.4 6.2 1.4 9.8.7 1.3 1.6 2.6 2.6 3.8.8-1.3.7-2 .7-4.3h4.9l-.3 4.5c-.7 0-1.5.1-2.4 0-.2.8-.5 1.5-1 2.2.8 1.1 1.8 1.8 3 1.1 0 1.4-2.4 4.5-5.7 2-1.5.9-3.2 1.4-5 1.4-3 0-6.3-1.4-6.3-5.6zm9.2 1.7c-1.3-1.5-2.3-3.2-3.2-4.9-5.1 4.4.4 7.3 3.2 4.9zm-1.5-10.1c2.7-1.5 2.8-3.9.8-3.9-2.2 0-1.8 2.9-.8 3.9zm34.5 6.7.1-1.1-8.4-.4-.1 1.1-2.5-.1.3-5.5 7.2-4.3-4.5-.2-.1 1.3-2.5-.1.3-5.7 2.5.1-.1 1.3 10.9.6-.2 4.1-7.5 4.5 4.8.3.1-1.5 2.5.1-.3 5.8-2.5-.3zm-11.5-20.2c-.6-2.7.5-3.6.8-4l-1.4-.1-.6-2.8 5.5-1.2.7 3.3c-1.2.2-2.1 1.3-1.9 2.6v.1c.3 1.5 2.2 2.2 4.1 1.8 1.9-.4 3.2-1.7 2.9-3.3-.1-.7-.6-1.4-1.3-1.6l-.8.2.3 1.1-2 .4-1.4-6.2 2-.4.2.7 4.7-1 .8 3.7-1 .8c1.1.5 1.8 1.5 2 2.7.7 3.3-1.3 6.4-5.3 7.3-.6.1-1.2.2-1.8.2-3.5.1-6-1.9-6.5-4.3zm-102-1.9.4-1.1-7.8-2.8-.4 1.1-2.4-.8 2-5.5c1.6-4.3 5.1-5.9 8.6-4.6 4.1 1.5 5.6 4.8 4 9.2L26 64.3l-2.3-.9zm-5.9-8.2-.2.7 7.8 2.8.2-.7c.6-1.9-.8-3.3-3.1-4.1-.6-.2-1.3-.4-2-.4-1.2-.1-2.3.6-2.7 1.7zm10.6-4.5.7-1-6.9-4.6-.7 1-2.1-1.4 6.4-9.5 3.5 2.4-1.8 2.7-1.4-.9-1.7 2.5 2.2 1.5 2-3 2.1 1.4-2 3 2.6 1.7L33 44l-1.5-1 1.8-2.7 3.6 2.4-6.4 9.5-2.1-1.5zm5.4-11.9 2.6-2.4c1.1 1.2 2.5.3 3.1-.2.5-.4 1.1-1.2.6-1.8-.4-.5-1.5.2-3 .9-1.9.9-4.4 1.9-6.3-.2-1.9-2.1-.8-4.8.6-6.1 1.1-1.2 2.7-1.6 4.3-1.2l-.9-1.3 2.4-2.2 3.2 3.5-2.6 2.3c-.8-.9-2.3-1-3.2-.1l-.1.1c-.4.4-.7 1.1-.3 1.6.6.6 1.9 0 3.5-.7 2-.9 4.4-1.8 6.1.1 2 2.2.6 4.9-1 6.4-1.1 1-2.6 1.6-4.1 1.4l.8 1.2-2.5 2.2-3.2-3.5zm11.8-7 1-.6-4.3-7.1-1 .6-1.3-2.2 5.4-3.3 1.3 2.2-1 .6 4.3 7.1 1-.6 1.3 2.2-5.4 3.3-1.3-2.2zm4.5-7.7c-1.4-3.9.4-7.6 3.3-8.5 2.6-.9 3.7.1 4 .3l-.1-1.4 2.7-.9 1.8 5.3-3.2 1.1c-.3-1.2-1.6-1.9-2.8-1.6h-.1c-1.5.5-1.9 2.4-1.3 4.2.6 1.8 2 3 3.6 2.5.7-.2 1.3-.7 1.4-1.5l-.3-.8-1.1.4-.7-1.9 6-2.1.7 1.9-.7.2 1.6 4.5-3.6 1.2-.9-.9c-.4 1.1-1.3 2-2.5 2.3-.6.2-1.3.3-2 .3-2.3.1-4.7-1.5-5.8-4.6zm15.5-.9h1.1l-.4-8.4h-1.1l-.1-2.5 5.5-.2 5 6.8-.2-4.5-1.3.1L74 12l5.7-.3.1 2.5-1.3.1.5 10.9h-4l-5.2-7L70 23l1.5-.1.1 2.5-5.9.3-.1-2.5z" style="fill:#1e262e"/></svg>