<svg xmlns="http://www.w3.org/2000/svg" viewBox="0 0 150 150" style="enable-background:new 0 0 150 150" xml:space="preserve"><path d="m126.7 144.1-1.1-3H120l-1.1 3c-.2.5-.7.8-1.2.8-.1 0-.3 0-.4-.1-.7-.3-1-1-.8-1.7l5.1-13.6c.2-.5.7-.8 1.2-.8s1 .3 1.2.8l5.1 13.6c.2.7-.1 1.4-.8 1.7-.1 0-.3.1-.4.1-.6 0-1.1-.3-1.2-.8zm-5.9-5.5h3.7l-1.9-4.9-1.8 4.9zm18.1 5.1v-13.6c0-.7.5-1.3 1.2-1.3h4.1c2.7 0 4.9 2.2 4.9 4.9 0 1.5-.7 2.9-1.8 3.8.3.2.6.5.8.8.5.7.8 1.6.8 2.5 0 .5 0 .9.1 1.4.4.1.7.4.8.8.2.7-.1 1.4-.8 1.6-.2 0-.3.1-.5.1-.3 0-.6-.1-.9-.3-.3-.2-.6-.5-.7-.8-.4-.9-.5-1.8-.5-2.8 0-.3-.1-.7-.3-1-.2-.3-.4-.5-.7-.7-.4-.3-.8-.4-1.3-.5h-2.7v5c0 .7-.6 1.3-1.3 1.3-.6 0-1.2-.5-1.2-1.2zm2.6-7.6h2.8c1.3 0 2.4-1.1 2.4-2.4s-1.1-2.4-2.4-2.4h-2.8v4.8zm-9.1 7.6v-13.6c0-.7.5-1.3 1.2-1.3s1.3.6 1.3 1.3v13.6c0 .7-.6 1.3-1.3 1.3-.7-.1-1.2-.6-1.2-1.3zm-27 0v-13.6c0-.7.6-1.3 1.3-1.3h4.1c2.7 0 4.9 2.2 4.9 4.9s-2.2 4.9-4.9 4.9H108v5c0 .7-.6 1.3-1.3 1.3-.7 0-1.3-.5-1.3-1.2zm2.6-7.6h2.8c1.3 0 2.4-1 2.4-2.3 0-1.3-1-2.4-2.3-2.4H108v4.7zm-14.9 8.8c-.1 0-.1 0 0 0-.8 0-1.3-.6-1.3-1.3V130c0-.7.5-1.3 1.2-1.3h7.6c.7 0 1.3.6 1.3 1.3 0 .7-.6 1.3-1.3 1.3h-6.3v4.2h5.4c.7 0 1.3.6 1.3 1.3 0 .7-.6 1.3-1.3 1.3h-5.4v4.2h6.3c.7 0 1.3.6 1.3 1.3s-.6 1.3-1.3 1.3h-7.5zM77 143.7v-13.6c0-.7.5-1.3 1.2-1.3h4.1c2.7 0 4.9 2.2 4.9 4.9 0 1.5-.7 2.9-1.8 3.8.3.2.6.5.8.8.5.7.8 1.6.8 2.5 0 .5 0 .9.1 1.4.4.1.7.4.8.8.2.7-.1 1.4-.8 1.6-.2 0-.3.1-.5.1-.3 0-.6-.1-.9-.3-.3-.2-.6-.5-.7-.8-.4-.9-.5-1.8-.5-2.8 0-.3-.1-.7-.3-1-.2-.3-.4-.5-.7-.7-.4-.3-.8-.4-1.3-.5h-2.7v5c0 .7-.6 1.3-1.3 1.3-.7 0-1.2-.5-1.2-1.2zm2.5-7.6h2.8c1.3 0 2.4-1.1 2.4-2.4s-1.1-2.4-2.4-2.4h-2.8v4.8zM58 144.9c-.8 0-1.3-.6-1.3-1.3V130c0-.7.5-1.3 1.2-1.3h7.6c.7 0 1.3.6 1.3 1.3 0 .7-.6 1.3-1.3 1.3h-6.3v4.2h5.4c.7 0 1.3.6 1.3 1.3 0 .7-.6 1.3-1.3 1.3h-5.4v4.2h6.3c.7 0 1.3.6 1.3 1.3s-.6 1.3-1.3 1.3H58zm-8.3-1.2V134l-3.3 4.6c-.2.3-.6.5-1 .5h-.1c-.4 0-.8-.2-1.1-.5l-3.3-4.6v9.7c0 .7-.6 1.3-1.3 1.3-.7 0-1.3-.6-1.3-1.3v-13.6c0-.7.6-1.3 1.3-1.3h.1c.4 0 .8.2 1 .5l4.6 6.4 4.6-6.4c.2-.3.6-.5 1-.5.7 0 1.3.6 1.3 1.3v13.6c0 .7-.6 1.3-1.3 1.3-.7-.1-1.2-.6-1.2-1.3zm-28.5-1.2c-3-3.3-3-8.4 0-11.6 1.5-1.6 3.5-2.5 5.7-2.5 2.1 0 4.1.9 5.5 2.5 3.1 3.3 3.1 8.4 0 11.6-1.4 1.6-3.4 2.4-5.5 2.5-2.2-.1-4.2-1-5.7-2.5zm1.9-9.9c-1 1.1-1.6 2.5-1.6 4s.5 2.9 1.6 4c1 1.1 2.3 1.7 3.7 1.7 1.4 0 2.7-.6 3.6-1.7 1-1.1 1.6-2.5 1.6-4s-.6-2.9-1.6-4c-.9-1-2.3-1.6-3.6-1.6-1.4 0-2.7.6-3.7 1.6zm-10.6 11.1v-5.5h-6v5.5c0 .7-.6 1.3-1.3 1.3-.7 0-1.3-.5-1.3-1.2v-13.6c0-.7.5-1.3 1.2-1.3s1.3.5 1.3 1.3v5.5h6v-5.5c0-.7.5-1.3 1.2-1.3s1.3.5 1.3 1.3v13.6c0 .7-.6 1.3-1.3 1.3-.5-.2-1.1-.7-1.1-1.4zm39-32.8c-1.3-1.5-1.1-3.8.4-5.1l16-13.8L53 79.1l4.7-5.5 15.8 13.6 15.8-13.6 4.7 5.5L79 92l16.1 13.9c1.5 1.3 1.7 3.6.4 5.1-1.3 1.5-3.6 1.7-5.1.4L73.5 96.8l-16.9 14.5c-1.5 1.3-3.8 1.2-5.1-.4zm35.3-33.5-31.3 27.2c-.3.3-.3.8 0 1.1.3.3.7.3 1.1.1l31.3-27.2c.3-.3.3-.8 0-1.1-.3-.3-.8-.3-1.1-.1zm3 28.5c.3.3.8.3 1.1-.1.3-.3.3-.8-.1-1.1L77.6 93.2l-1.2 1.1 13.4 11.6zM58.4 77.5c-.3.3-.3.8.1 1.1l12.4 10.8 1.2-1.1-12.5-10.9c-.4-.3-.9-.2-1.2.1zM107.2 95v-4.1c0-.6.5-1.1 1.2-1.1.6 0 1.1.5 1.1 1.1v.8h32l5.8 1.3-5.8 1.3h-32v.7c0 .6-.5 1.1-1.2 1.1-.6 0-1-.5-1.1-1.1zm-69.5 0v-.8h-32L0 92.9l5.8-1.2h32v-.8c0-.6.5-1.1 1.2-1.1.6 0 1.1.5 1.1 1.1V95c0 .6-.5 1.1-1.2 1.1s-1.2-.5-1.2-1.1zm63.5-9.5L81.7 63c-.4-.4-.3-1.1.1-1.4l10.8-1.1L108.7 79c.4.4.3 1.1-.1 1.4l-5.9 5.1c-.5.4-1.1.4-1.5 0zm-56.9.1-5.9-5.1c-.4-.4-.5-1-.1-1.4l16.1-18.6 10.8 1.1c.4.4.5 1 .1 1.4L45.8 85.5c-.4.4-1.1.4-1.5.1zM99.1 66c1.2-.1 2.3.4 3.1 1.2.8.9 1.1 2.1.8 3.2L99.1 66zm-54.3 1.3c.8-.9 1.9-1.3 3.1-1.2L44 70.5c-.3-1.2 0-2.4.8-3.2zm85.6-18.4 2.1-1.6.7.9 5.4-4.1.9-.7-.1-.1c-.8.4-2.1 1-2.5 1.2l-7.6 3.1-2.6-3.3 5-6.7c.5-.7 1.1-1.3 1.7-1.9l-.1-.1-6.3 4.9.7.9-2.1 1.6-3.4-4.3 2.1-1.6.7.9 7.1-5.5-.7-.8 2.1-1.6 4.7 6.1-4.7 6.2 7.2-3.1 4.7 6.1-2.1 1.6-.7-.9-7.1 5.4.7.9-2.1 1.6-3.7-5.1zM12.1 52.1l.6-.9-7.2-5-.6.9-2.2-1.5 3.7-5.2 2.2 1.5-.6.9 7.2 5 1.5-2.1-2.1-1.5 1.9-2.8 4.3 3-6.5 9.3-2.2-1.6zM15.9 39c-3.1-3.1-3.1-7.3-.1-10.2 3.6-3.5 7.3-2.9 10.5.3s3.3 7.1 0 10.2c-1.3 1.4-3.1 2.2-5 2.3-2.1 0-4.1-1-5.4-2.6zm2.1-8c-.9.8-.3 2.7 1.5 4.5 1.9 1.9 3.7 2.4 4.6 1.5s.3-2.6-1.4-4.4c-.9-1.1-2.1-1.8-3.5-2.1-.5.1-.9.2-1.2.5zm98.5 3.8c-3.2-2.6-3.5-5.7-.7-9.3l3.1-3.9-.9-.6 1.6-2.1 5.1 4-1.6 2.1-.9-.7-2.7 3.4c-2 2.6-1.9 3.5-.8 4.3 1 .8 1.9.9 4.1-1.9l2.7-3.4-.9-.7 1.7-2.1 4.7 3.7-1.6 2.1-.9-.7-3 3.9c-1.8 2.2-3.5 3.3-5.3 3.3-1.4 0-2.7-.5-3.7-1.4zm-86.6-3 1-.6-4.7-7.5-1 .6-1.4-2.2 5.6-3.5c4-2.5 5.7-1.4 7 .5a3 3 0 0 1-.9 4c1.3-.6 2.9-.2 3.8 1 .5.7.8 1.1 1.2.9.3-.2.3-.5 0-.8l-.5-.5 1.1-.7.6.9c.9 1.4 1.1 3.1-.8 4.3-2.2 1.4-4.1.9-5.3-1.1-1-1.6-1.4-1.8-2.9-.8l1.7 2.7 1-.7 1.4 2.3-5.5 3.5-1.4-2.3zm.6-10.8-.9.5 1.8 2.9.8-.5c1-.6 1.3-1.5.8-2.4-.3-.5-.8-.9-1.4-.9-.4 0-.8.1-1.1.4zm75.2 6.8c-1.5-.7-2.5-2-3-3.6l-.9 1.3-3.1-1.5 2.3-4.6 3.4 1.7c-.8 1.5.6 2.5 1.4 3 .6.3 1.6.6 2-.1.7-1.4-6.6-4.3-4.2-8.9 1.3-2.7 4.5-2.6 6.3-1.7 1.6.6 2.7 2.1 2.9 3.7l.9-1.4 3.1 1.6-2.3 4.5-3.3-1.6c.6-1.2.1-2.6-1.1-3.2-.1 0-.1-.1-.2-.1-.5-.3-1.4-.3-1.7.3-.9 1.9 6.5 5 4.3 9.3-.7 1.4-2.1 2.3-3.7 2.2-1-.1-2.1-.4-3.1-.9zM42.5 24l1.2-.5-3.2-8.2-1.2.5-1-2.5L49.8 9l1.6 4.2-3.3 1.3-.6-1.7-3 1.2 1 2.6 3.6-1.4 1 2.5-3.7 1.3 1.2 3.1 3-1.2-.6-1.7 3.3-1.3 1.6 4.3-11.4 4.4-1-2.6zm44.3-3.3.7-2.6 1.1.3L91 9.9l-1.1-.3.7-2.5L97 8.8c4.5 1.3 4.8 3.5 4.2 5.7-.7 2.6-3.4 3.2-6.2 2.4l-1.5-.4-.9 3 1.2.3-.7 2.6-6.3-1.7zm7.3-6.3.9.2c.9.4 1.9 0 2.3-.8 0-.1.1-.2.1-.2.3-.9-.1-1.9-1-2.2-.1 0-.2-.1-.3-.1L95 11l-.9 3.4zm-39.4 4.7 1.1-.1-1.2-8.8-1.1.1-.4-2.6 7.6-1 3.1 7.2.9-7.8 7.7-1 .4 2.6-1.1.1 1.2 8.8 1.1-.1.4 2.6-6.4.8-.4-2.6 1.1-.2-.9-6.7-.2-1.2h-.1c0 .9-.1 2.3-.2 2.8l-1 8.1-4.2.6-3.3-7.7c-.3-.8-.6-1.6-.8-2.4h-.1l1.1 7.9 1.1-.2.4 2.6-5.4.7-.4-2.5zm24.9.8.4-2.7 1.3.2 1.1-8.7-1.4-.2.3-2.7 6.7.9-.3 2.7-1.2-.2-1.1 8.7 1.2.2-.3 2.7-6.7-.9z" style="fill:#1e262e"/></svg>