<svg xmlns="http://www.w3.org/2000/svg" viewBox="0 0 50.09 54"><path style="fill:#ec6a2b" d="M14.87 24h17v4h-17z"/><path d="M44.97 19.96a3.928 3.928 0 0 1-1.35-3.29c.1-4.07.03-8.15.03-12.23 0-.08.01-.15.01-.23-.02-.94-.79-1.69-1.73-1.67-3-.01-6-.01-9 0h-.09c-.91.03-1.63.79-1.6 1.7v1.4c-.21-.21-.34-.32-.46-.44-1.37-1.41-2.72-2.83-4.11-4.23-.39-.35-.79-.67-1.22-.97h-.84c-.41.28-.81.59-1.18.93C17.47 7.1 11.5 13.27 5.54 19.45 3.89 21.16 2.25 22.86.6 24.56c-.57.48-.75 1.29-.45 1.97.27.68.96 1.09 1.69 1.01h3.62v20.6c0 1.39.63 2.02 2.03 2.02h10.82v2.21c.03.89.75 1.61 1.64 1.63 1.42-.07 2.84-.02 4.26-.02.13.02.26.02.38 0 .88-.11 1.5-.9 1.4-1.78v-2.04h16.57c1.47 0 2.07-.61 2.07-2.09V27.54c1.26 0 2.45.03 3.63-.02.43-.01.85-.15 1.21-.39a1.634 1.634 0 0 0 .04-2.54c-1.5-1.56-2.95-3.17-4.53-4.63ZM22.58 50.65h-.88v-7.5h.88v7.5Zm20.55-26.49c-.12-.01-.24-.01-.37 0-.94.11-1.62.96-1.51 1.91v20.68h-15.3v-4.81c0-1.52-.48-2.05-1.98-2.22-.12-.3-.16-.62-.12-.94.12-1.1 1.11-1.9 2.21-1.78 2.53 0 5.05.02 7.58 0 2.99.03 5.61-2.01 6.31-4.91a6.419 6.419 0 0 0-4.73-7.74c-.15-.04-.31-.07-.5-.12V22.7c-.04-.92-.81-1.64-1.74-1.61H13.3c-.91.06-1.6.84-1.54 1.75-.01 2.04-.01 4.08 0 6.11v.17c.04.91.81 1.6 1.72 1.56h19.66c.92-.04 1.63-.82 1.58-1.74v-1.15a2.89 2.89 0 0 1 2.02 2.82c0 1.35-.88 2.53-2.18 2.89-.34.08-.69.12-1.04.12h-7.47a5.244 5.244 0 0 0-5.52 5.52v.57c-.17.01-.32.03-.47.04h-.18c-.94.07-1.64.88-1.57 1.82v5.18H8.82V26.22c0-1.42-.63-2.06-2.05-2.06H5.68L25.15 4c.09.2.21.4.35.58 2.03 2.12 4.06 4.23 6.1 6.33a1.661 1.661 0 0 0 2.64-.05c.22-.35.34-.76.36-1.18.05-1.07.02-2.14.02-3.21v-.54h5.68v13.01c-.02.64.22 1.25.68 1.69.99.99 1.96 2.01 2.94 3.02.13.13.25.28.46.51h-1.23Zm-11.82.33v2.78H15.15v-2.78h16.16Z" style="fill:#1e262e"/></svg>