<svg xmlns="http://www.w3.org/2000/svg" viewBox="0 0 65 65" style="enable-background:new 0 0 65 65" xml:space="preserve"><path d="M6.9 59.3c-3.4 0-5.6-2.2-5.6-5.7V39.4c2 1 4.1 1 6.1.9h19c.4-.1.8.2.9.6.8 2.1 2.9 3.5 5.1 3.4 2.3.1 4.4-1.3 5.2-3.5.1-.4.5-.6.9-.6h19.2c2 0 4 .2 6-.9v14.3c0 3.4-2.2 5.6-5.6 5.6h-27l-24.2.1zm25.3-17.5c-1.6-.2-2.8-1.5-2.8-3.1V37c0-1.7 1.4-3.1 3.2-3.1 1.7 0 3.1 1.4 3.2 3.1v.8h.1c0 .5-.1 1.1-.2 1.6-.4 1.4-1.6 2.3-3 2.3-.3.1-.4.1-.5.1zm-27-5.3c-2.9 0-5.2-2.3-5.2-5.1v-12c0-.5.1-1.1.2-1.6.7-2.3 2.9-3.9 5.3-3.8h11.7c.5 0 .6-.1.7-.6 1-4.5 4.9-7.7 9.5-7.7h10.2c3.4 0 6.5 1.7 8.2 4.6.6 1.2 1.2 2.4 1.6 3.7h12c2.2-.1 4.2 1.2 5 3.1.2.4.3.9.5 1.3V32c0 .1-.1.1-.1.2-.5 2.6-2.8 4.5-5.5 4.3H38c-.2-3-2.6-5.3-5.5-5.4-3 0-5.1 1.9-5.8 5.4H5.2zm22.3-25.9c-1.9 0-3.7 1.1-4.5 2.9-.1.2-.1.3-.1.5h19.3v-.2c0-.1-.1-.2-.1-.4-.8-1.8-2.5-2.9-4.4-2.9h-5c-1.8 0-3.5 0-5.2.1z" style="opacity:.2;fill:#fff;enable-background:new"/></svg>