<svg xmlns="http://www.w3.org/2000/svg" viewBox="0 0 65 65" style="enable-background:new 0 0 65 65" xml:space="preserve"><path d="M32.5 65c-11.4-.2-20.5-9.5-20.4-21 0-11.4 9.2-20.8 20.4-20.8 11.4.1 20.6 9.5 20.4 20.9v.1C53 55.6 43.8 64.9 32.5 65zM21.2 44.2c0 6.3 5.1 11.5 11.4 11.6 6.4-.2 11.4-5.5 11.3-12-.2-6.1-5.1-11.1-11.3-11.3-6.4.1-11.5 5.2-11.4 11.7 0-.1 0-.1 0 0zm11.3 6.9c-3.8-.1-6.8-3.2-6.8-7s3-6.9 6.8-6.9c3.8.1 6.8 3.2 6.8 6.9v.1c0 3.7-3 6.8-6.8 6.9zM15.9 24.3C11.8 17.5 7.6 10.6 3.5 3.7c-.4-.5-.5-1.2-.4-1.9C3.4.7 4.4-.1 5.5 0h17.7c.9 0 1.8.5 2.2 1.3 1.4 2.3 2.7 4.6 4.1 6.8.2.3.2.6 0 .9-2.3 3.7-4.5 7.5-6.7 11.2-.1.2-.3.4-.5.5-2.2 1-4.2 2.4-6.1 4-.1-.1-.2-.2-.3-.4zm13.2-5.5c.1-.2.2-.4.3-.5 3.3-5.7 6.7-11.3 10.1-17C40 .5 40.9 0 41.8 0h17.6c.9-.1 1.8.4 2.2 1.2.5.8.4 1.8-.1 2.5-4.1 6.9-8.3 13.8-12.4 20.7-.1.1-.2.2-.3.4-5.4-4.8-12.6-7-19.7-6z" style="opacity:.2;fill:#fff;enable-background:new"/></svg>