<svg xmlns="http://www.w3.org/2000/svg" viewBox="0 0 65 65" style="enable-background:new 0 0 65 65" xml:space="preserve"><path d="M47.3 63.6c-3.6-3.7-7.3-7.3-10.9-11-2.9-2.7-3.9-6.8-2.6-10.6 1.1-3.7 4.3-6.5 8.2-7 .5-.1 1.1-.1 1.6-.1 1.8 0 3.6.5 5.1 1.4.3.1.6.1.9 0 4.9-2.9 11.1-1.3 14 3.6.7 1.2 1.2 2.5 1.3 3.9.5 3.2-.6 6.5-3 8.8-1.7 1.8-3.5 3.5-5.3 5.3l-5.7 5.7c-.5.5-1.1.9-1.9.9-.6 0-1.3-.4-1.7-.9zM5.6 63C2.7 63 .7 61.5.1 58.9c-.1-.6-.1-1.2-.1-1.8-.1-1.7 0-3.5.1-5.2.5-2.9 2.1-5.5 4.4-7.4 3.3-2.7 7.1-4.7 11.3-5.8 5.4-1.6 11.1-2.3 16.7-2.1h.6c-.2.3-.3.5-.4.6-3.8 5.3-3.3 12.5 1.3 17.2 2.6 2.6 5.1 5.2 7.7 7.8.2.2.4.3.6.4 0 .1-.1.2-.1.2H20.3c-4.9.2-9.8.2-14.7.2zm24.9-29c-9.2-.3-16.5-8-16.2-17.2v-.3C14.7 7.3 22.5.1 31.7.6c9 .5 16 8.1 15.8 17.2-.2 9-7.5 16.2-16.3 16.2h-.7z" style="opacity:.2;fill:#fff;enable-background:new"/></svg>