<svg version="1.1" id="Layer_1" xmlns="http://www.w3.org/2000/svg" x="0" y="0" viewBox="0 0 150 150" style="enable-background:new 0 0 150 150" xml:space="preserve"><style>.st1{fill:#bab2b2}.st3{fill:#3d3e3e}</style><g id="Img"><path id="Path_2750" d="M148.4 91.4 81 130.3c-2.3 1.3-5.2 1.3-7.6 0L6.1 91.4c-1.5-.9-2-2.8-1.2-4.3.3-.5.7-.9 1.2-1.2l69.6-40.2c1-.6 2.2-.6 3.1 0L148.4 86c1.5.9 2 2.8 1.2 4.3-.3.5-.7.9-1.2 1.1" style="fill:#ec6a2b"/><path id="Path_2751" class="st1" d="M142.9 62.6 72 103.5 1 62.6l70.9-40.9 71 40.9z"/><path id="Path_2752" class="st1" d="M1 62.6v16.6l70.9 40.9v-16.6L1 62.6z"/><path id="Path_2753" d="M142.9 62.6v16.6L72 120.1v-16.6l70.9-40.9z" style="fill:#a2a2a2"/><path id="Path_2754" class="st3" d="m143.9 62-1-.6-70.9-41-71 41-1 .6v17.8l70.9 40.9 1 .6 1-.6L143.3 80l.5-.3.1-17.7zm-72-39.2 68.9 39.8-32.1 18.5-36.8 21.2L3.1 62.6l68.8-39.8zM2 78.6V64.4l68.9 39.8v14.3L2 78.6zm139.9 0L73 118.4v-14.3l68.9-39.8v14.3z"/><path id="Path_2755" class="st1" d="M71.9 21.6 27.3 47.4c-6.9 4.1-15.6 3.9-22.2-.6C3.7 59.9 17.3 71 22.9 75c.6.5 1.3 1 2.1 1.4l46.9 27.1 70.9-40.9-70.9-41z"/><path id="Path_2756" d="m25.4 76.4 46.9 27.1 63.8-36.8-63.3-36.5L28.1 56c-6.5 4-14.7 3.9-21.3 0 3.5 8.9 12.2 16 16.5 19 .7.6 1.4 1 2.1 1.4" style="fill:#d8d7d7"/><path id="Path_2757" class="st3" d="M71.9 104.7 24.5 77.3c-.8-.4-1.5-1-2.2-1.5C16.4 71.6 2.7 60.2 4 46.7l.2-1.8L5.7 46c6.3 4.3 14.6 4.5 21.1.6L72 20.5l70.9 40.9c.7.4.9 1.2.5 1.9-.1.2-.3.4-.5.5l-71 40.9zM6 48.6c0 11.7 12.2 21.7 17.6 25.6.6.5 1.3 1 2 1.4L72 102.4l68.9-39.8-69-39.8-44.1 25.5c-6.7 4-15 4.1-21.8.3"/><path id="Path_2758" class="st3" d="M79.4 37.4c-1.7 0-3.4-.4-4.9-1.2-1.9-.7-2.8-2.9-2.1-4.7.4-.9 1.1-1.7 2.1-2.1l16-9.2c3.9-2 8.6-2 12.6 0 2.3.9 3.5 3.5 2.6 5.8-.5 1.2-1.4 2.2-2.6 2.6l-10.2 5.9-1-1.8 10.2-5.9c1.4-.4 2.2-1.8 1.8-3.1-.2-.9-.9-1.6-1.8-1.8-3.3-1.6-7.2-1.6-10.5 0l-16 9.2c-.8.5-1.3 1.1-1.3 1.6s.5 1.2 1.3 1.6c2.4 1.2 5.3 1.2 7.7 0L97.6 26l1 1.8-14.3 8.3c-1.6.9-3.2 1.3-4.9 1.3"/><path id="Path_2759" class="st3" d="M71.4 109.3.5 69.3l1-1.1 70.9 40-1 1.1z"/><path id="Path_2760" class="st3" d="M71.4 115.8.5 75l1-1.1 70.9 40.8-1 1.1z"/><path id="Path_2761" class="st3" d="M72.5 109.8V108l69.9-40-.1 1.8-69.8 40z"/><path id="Path_2762" class="st3" d="M72.5 115.3v-1.8l69.9-40-.1 1.8-69.8 40z"/></g></svg>