<svg version="1.1" id="Layer_1" xmlns="http://www.w3.org/2000/svg" x="0" y="0" viewBox="0 0 150 150" style="enable-background:new 0 0 150 150" xml:space="preserve"><style>.st0{fill:#ec6a2b}.st2{fill:#3d3e3e}.st3{fill:#bf5623}.st7{fill:#c5c3c3}</style><g id="Img"><path id="Path_188" class="st0" d="m146.7 82.5-9.7-5.6c.2-.7.3-1.5.3-2.2v-.4c.5-1.6.8-3.3.8-5 0-2.9-.9-5.1-2.6-6.3l-.3-.2c-.1 0-.1-.1-.2-.1s-.1-.1-.2-.1L90.6 36.9l-12.4-7.2h-.1l-5.1-3c-2.8-1.3-6.7-.1-10.3 3.4-2.9 2.8-4.9 6.3-5.9 10.1-1.1 4.8-.3 8.8 2.2 10.6l62 36h.2l.6.3c.7.3 1.4.4 2.1.4 1.6-.1 3.2-.5 4.5-1.4 1.5-.9 2.9-2 4-3.3.1-.1.2-.1.3-.2.6-.4 1.2-.9 1.8-1.4l9.7 5.6c.5.3.7.7.7 1.3 0 .5-.3 1-.7 1.3l-.8.5c-14.4 8.4-32.1 8.4-46.5 0l-15-8.8c-4-2.3-8.9-2.3-12.9 0L45.5 94.7c-1.8-1.7-3.7-2.3-5.2-1.6L3.5 114.9l-.2.1v.1c-1 .8-1.5 2-1.4 3.3.2 3.4 2 6.5 4.8 8.3.7.4 1.5.7 2.3.7.4 0 .8-.1 1.1-.2h.1l.3-.1h.2l36.7-21.8c1.4-1 1.8-3.1 1.1-5.8 0-.2-.1-.3-.2-.4l23.3-13.5c2.4-1.4 5.4-1.4 7.8 0l15 8.8c15.9 9.3 35.7 9.3 51.6 0l.8-.5c3.1-1.8 4.2-5.8 2.3-9-.6-1.1-1.4-1.9-2.4-2.4"/><path id="Path_189" d="m119.8 82.7 13.4-22.9-62.3-36.2c-2.4-1.1-5.9-.3-9.6 3.3-2.8 2.7-4.7 6.1-5.7 9.8-1.2 4.9-.3 8.4 1.9 9.9l62.3 36.1" style="fill:#f5e4cc"/><path id="Path_190" class="st0" d="M60.5 33.1c-2.5 2.4-4.3 5.4-5.4 8.7.1 2.5 1 4.4 2.4 5.4l62.2 36.1 10.8-18.4L70 29.8c-2.4-1.1-5.8-.2-9.5 3.3"/><path id="Path_191" class="st2" d="m120 83.6-.6-.3-62.2-36.1c-2.6-1.8-3.4-5.8-2.2-10.6 1-3.9 3-7.4 5.9-10.1 3.6-3.5 7.4-4.7 10.3-3.4l62.6 36.2.1.5-.2.2L120 83.6zM68.7 23.8c-2.1 0-4.5 1.2-7 3.6-2.7 2.6-4.6 5.9-5.5 9.5-1.1 4.3-.5 7.7 1.6 9.2l61.6 35.7L132.3 60 70.6 24.2c-.6-.3-1.2-.4-1.9-.4"/><path id="Path_192" class="st2" d="M62.3 50.1c-2.5-1.8-3.3-5.7-2.1-10.6 1-3.9 3-7.4 5.9-10.1 3.6-3.5 7.4-4.7 10.3-3.4l-.5 1.1c-2.3-1.1-5.6.1-8.8 3.2-2.7 2.6-4.6 5.9-5.5 9.5-1.1 4.3-.5 7.7 1.6 9.2l-.9 1.1z"/><path id="Path_193" class="st2" d="M74.8 57.3c-2.5-1.8-3.3-5.7-2.1-10.6 1-3.9 3-7.4 5.9-10.1 3.6-3.5 7.4-4.7 10.3-3.4l-.5 1.1c-2.3-1.1-5.6.1-8.8 3.2-2.7 2.6-4.6 5.9-5.5 9.5-1.1 4.3-.5 7.7 1.6 9.2l-.9 1.1z"/><path id="Path_194" class="st3" d="M135.7 65.7c0 6-4.2 13.3-9.4 16.3s-9.4.6-9.4-5.4 4.2-13.3 9.4-16.3c5.2-3.1 9.4-.6 9.4 5.4"/><path id="Path_195" class="st2" d="M122.1 83.9c-1 0-1.9-.2-2.8-.7-2-1.1-3.1-3.5-3.1-6.6 0-6.2 4.4-13.8 9.7-16.9 2.7-1.6 5.3-1.8 7.3-.7s3.1 3.5 3.1 6.6c0 6.2-4.4 13.8-9.7 16.9-1.3.9-2.9 1.4-4.5 1.4m8.4-24.3c-1.4.1-2.7.5-3.9 1.2-5 2.9-9.1 10-9.1 15.8 0 2.7.9 4.6 2.4 5.5s3.7.7 6-.7c5-2.9 9.1-10 9.1-15.8 0-2.7-.9-4.6-2.4-5.6-.6-.2-1.3-.4-2.1-.4"/><path id="Path_196" d="m127.6 78.8 6.1-10.5-3.1-1.9c-1.1-.5-2.7-.1-4.4 1.5-1.3 1.2-2.2 2.8-2.6 4.5-.6 2.2-.1 3.8.9 4.5l3.1 1.9" style="fill:#f4e3cc"/><path id="Path_197" class="st0" d="m128 75.2-3.1-1.9c-.4-.2-.9-.3-1.3-.2-.3 1.8.2 3.1 1 3.7l1.9 1.1 1.5-2.7"/><path id="Path_198" class="st2" d="m127.5 79.5-.2-.1-3.1-1.9c-1.3-.9-1.7-2.8-1.1-5.2.5-1.8 1.4-3.5 2.8-4.8 1.8-1.7 3.7-2.3 5.1-1.6l3.4 2.1v.7l-6.2 10.6-.7.2zm2.1-12.7c-1.1.1-2.2.7-2.9 1.6-1.2 1.1-2 2.6-2.4 4.2-.4 1.8-.2 3.3.6 3.9l2.5 1.6 5.5-9.4-2.6-1.6c-.2-.2-.4-.3-.7-.3"/><path id="Path_199" class="st3" d="M134.9 71.1c-.2 3-1.8 5.8-4.3 7.5-2.4 1.4-4.3.3-4.3-2.5.2-3 1.8-5.8 4.3-7.5 2.4-1.4 4.3-.3 4.3 2.5"/><path id="Path_200" class="st2" d="M128.7 79.7c-.5 0-1-.1-1.4-.4-1.1-.7-1.7-2-1.6-3.3.2-3.3 1.9-6.3 4.6-8 1.4-1.1 3.4-.9 4.6.4.6.7.8 1.7.7 2.6-.2 3.3-1.9 6.3-4.6 8-.7.5-1.5.7-2.3.7m3.9-11.1c-.6 0-1.1.2-1.6.5-2.4 1.5-3.8 4.1-4 6.9-.3 1.1.4 2.2 1.5 2.5.7.2 1.4 0 1.9-.5 2.4-1.5 3.8-4.1 4-6.9.1-.9-.3-1.7-.9-2.2-.4-.2-.7-.3-.9-.3"/><path id="Path_201" d="m37.1 100.8-2.5-4.4 32.6-18.9c4-2.4 8.9-2.4 12.9 0l15 8.8c14.4 8.4 32.1 8.4 46.5 0l.8-.5c.4-.3.7-.7.7-1.3 0-.5-.3-1-.7-1.3l-12-6.9c-1.2-.7-1.6-2.2-1-3.5.7-1.2 2.2-1.6 3.5-1l11.7 6.7c2 1.1 3.3 3.2 3.5 5.5.1 2.4-1.1 4.7-3.2 6l-.8.5c-15.9 9.3-35.7 9.3-51.6 0l-15-8.8c-2.4-1.4-5.4-1.4-7.8 0l-32.6 19.1z" style="fill:#c5c3c3;stroke:#434444"/><path id="Path_202" d="m2 111.9 6.3 11L45.2 101c1.1-.7 1.6-2.5.8-5.1-.4-1.5-1.3-3-2.4-4.1-1.8-1.9-3.6-2.4-4.8-1.8L2 111.9" style="fill:#a2a2a2"/><path id="Path_203" class="st7" d="M45.7 96.3c-.4-1.6-1.3-3-2.4-4.1-1.8-1.9-3.6-2.4-4.8-1.8L3.5 111l4.5 8 36.9-21.9c.3-.2.6-.5.8-.8"/><path id="Path_204" class="st2" d="m8.4 123.6-.5-.1-.2-.3L1.3 112l.2-.5.2-.1 36.8-21.8c1.6-.7 3.7 0 5.6 1.9 1.2 1.2 2.1 2.7 2.5 4.4.7 2.6.3 4.8-1.1 5.8L8.4 123.6zm-5.6-11.4 5.7 9.9 36.3-21.5c.9-.6 1.1-2.3.5-4.4-.4-1.4-1.2-2.8-2.2-3.8-1.5-1.5-3-2.2-4.1-1.7L2.8 112.2z"/><path id="Path_205" class="st7" d="M5.2 122.6c-2.7-1.7-4.3-4.6-4.5-7.8 0-2.9 2-4 4.5-2.6 2.7 1.7 4.3 4.6 4.5 7.8 0 2.9-2 4-4.5 2.6"/><path id="Path_206" class="st2" d="M7.2 123.9c-.8 0-1.6-.3-2.3-.7-2.9-1.8-4.7-4.9-4.8-8.3-.3-1.8.9-3.6 2.8-3.9 1-.2 1.9.1 2.7.7 2.9 1.8 4.7 4.9 4.8 8.3.1 1.4-.5 2.7-1.6 3.5-.6.2-1.1.4-1.6.4m-1.7-1.8c.8.8 2.2.8 3 0 .5-.5.7-1.3.5-2-.2-2.9-1.7-5.6-4.2-7.2-.8-.8-2.2-.8-3 0-.5.5-.7 1.3-.5 2 .2 2.9 1.7 5.6 4.2 7.2"/><path id="Path_207" class="st2" d="m9.8 119-.6-1.1 36.6-21.6.6 1.1L9.8 119z"/></g></svg>