<svg version="1.1" id="Img" xmlns="http://www.w3.org/2000/svg" x="0" y="0" viewBox="0 0 150 150" style="enable-background:new 0 0 150 150" xml:space="preserve"><style>.st0{fill:#ec6a2b}.st1{fill:#c5c3c3}.st2{fill:#414242}.st3{fill:#ed783f}.st4{fill:#feeedd}.st6{fill:#a2a2a2}.st7{fill:#fb8d58}.st9{fill:#3d3e3e}</style><g id="Group_4746"><path id="Path_247" class="st0" d="M91.6 89.1c19.3 11.1 19.3 29.2 0 40.3s-50.5 11.1-69.8 0-19.3-29.2 0-40.3 50.6-11.2 69.8 0"/><path id="Path_248" class="st1" d="M96.9 26.5H8.6V103c0 6.5 4.3 13.1 12.9 18 17.3 10 45.2 10 62.5 0 8.6-5 12.9-11.5 12.9-18V26.5z"/><path id="Path_249" class="st2" d="M52.7 129.1c-11.4 0-22.9-2.5-31.6-7.5-8.5-5-13.2-11.6-13.2-18.6V25.8h89.7V103c0 7.1-4.7 13.7-13.3 18.6-8.7 5-20.1 7.5-31.6 7.5M9.3 27.2V103c0 6.6 4.5 12.7 12.6 17.4 17 9.8 44.7 9.8 61.8 0 8.1-4.7 12.6-10.9 12.6-17.4V27.2h-87z"/><path id="Rectangle_93" class="st2" d="M13.5 39h1.4v76.4h-1.4z"/><path id="Rectangle_94" class="st2" d="M87.1 42h1.4v76.5h-1.4z"/><path id="Rectangle_95" class="st2" d="M82.7 44.8h1.4v76.5h-1.4z"/><path id="Rectangle_96" class="st2" d="M72.5 49.3h1.4v76.5h-1.4z"/><path id="Path_250" class="st3" d="M23.7 43.3c1.2 3.2 3.1 6.1 5.6 8.4 1.8 1.6 3.7 3.1 5.8 4.4 2.7 1.6 5.3 4.1 4.3 7.4-2 6.1 5.9 6.7 4.4 0-1.3-6 1.3-8 4.9-7.7s5 6.8 3.2 14c-1.8 7.3-.2 10.7 3.5 10.6s4.2-7.1 2.6-11.6-.7-14.5 5.4-12.8c3.2.9 8.3 4.9 11.5-2.4 1.7-3.6 4.3-6.6 7.5-8.9l-59.2-2.8.5 1.4z"/><path id="Path_251" class="st4" d="M42.3 62.2c1.1-3.3-1.6-5.8-4.3-7.4-2.1-1.3-4-2.7-5.8-4.4-2.5-2.3-4.4-5.2-5.6-8.4l-3.5-.2.6 1.5c1.2 3.2 3.1 6.1 5.6 8.4 1.8 1.6 3.7 3.1 5.8 4.4 2.7 1.6 5.3 4.1 4.3 7.4-1.6 4.8 3 6.2 4.2 3.3-1.2-.5-2.1-2.1-1.3-4.6"/><path id="Path_252" class="st4" d="M66.3 54.6c-1.5-.5-3.1-.1-4.1 1.1.4 0 .8.1 1.1.2 2.6.7 6.5 3.5 9.6.5-2.4.2-4.8-1.3-6.6-1.8"/><path id="Path_253" class="st4" d="M54.8 68.5c1.8-7.3.5-13.7-3.2-14-1.5-.3-3.1.2-4.2 1.3h1.2c3.6.3 5 6.8 3.2 14-1.8 7.3-.2 10.7 3.5 10.6.9 0 1.8-.5 2.3-1.3-3.2-.4-4.4-3.8-2.8-10.6"/><path id="Path_254" class="st2" d="M55.2 81.1c-1.3.1-2.6-.5-3.5-1.5-1.5-1.8-1.7-5.2-.5-9.9 1.2-5 1-9.8-.6-12-.4-.7-1.1-1.1-1.9-1.2-1.3-.2-2.6.2-3.6 1.1-1 1.1-1.2 3.1-.6 5.8.8 3.4-.7 4.8-1.4 5.2-1.1.7-2.4.6-3.4-.2-1.3-1-1.7-2.9-.9-5.1.8-2.3-.6-4.5-3.9-6.6-2.1-1.3-4.1-2.8-5.9-4.4-2.6-2.4-4.6-5.4-5.8-8.7l-1-2.5 62.4 3-1.8 1.2c-3.1 2.2-5.6 5.1-7.2 8.6-2.9 6.6-7.5 4.8-10.5 3.5-.6-.3-1.2-.5-1.8-.7-1.2-.4-2.5-.1-3.3.8-2.1 2.3-2.4 7.9-1.2 11 1.2 3.3 1.4 8.3-.3 10.9-.6 1-1.7 1.6-2.9 1.7h-.4M48 55h.7c1.2.1 2.3.8 2.9 1.8 1.9 2.6 2.2 7.7.9 13.1-1.3 5.3-.6 7.7.2 8.7.6.8 1.6 1.1 2.6 1 .7 0 1.4-.4 1.8-1.1 1.3-2 1.4-6.3.2-9.6-1.2-3.2-1.2-9.6 1.5-12.5 1.2-1.3 3-1.8 4.7-1.2.7.2 1.3.4 2 .7 3.1 1.3 6.4 2.6 8.7-2.8 1.4-3.1 3.6-5.8 6.2-8l-56.2-2.7.2.5c1.2 3.1 3 5.9 5.5 8.1 1.7 1.6 3.6 3 5.7 4.3 4 2.4 5.5 5.2 4.6 8.2-.5 1.6-.3 2.9.5 3.5.5.4 1.2.5 1.8.1.9-.6 1.2-2 .8-3.7-.7-3.2-.4-5.5.9-7 .8-.9 2.3-1.5 3.8-1.4"/><path id="Path_255" d="M84 8.5c17.3 10 17.3 26.1 0 36.1s-45.2 10-62.5 0-17.3-26.1 0-36.1 45.2-10 62.5 0" style="fill:#fff"/><path id="Path_256" class="st2" d="M52.7 53c-11.5 0-23-2.5-31.8-7.6-8.7-5-13.5-11.7-13.5-18.9S12.3 12.6 21 7.6c17.5-10.1 46-10.1 63.5 0 8.7 5 13.5 11.7 13.5 18.9s-4.8 13.9-13.5 18.9C75.7 50.5 64.2 53 52.7 53m0-51C41.6 2 30.5 4.5 22 9.4 14 14 9.6 20.1 9.6 26.5S14 39 22 43.6c16.9 9.8 44.5 9.8 61.4 0 8-4.6 12.4-10.7 12.4-17.1S91.5 14 83.5 9.4C75 4.5 63.9 2 52.7 2"/><path id="Path_257" class="st6" d="M78.7 11.5c14.3 8.3 14.3 21.7 0 30s-37.6 8.3-52 0-14.3-21.7 0-30 37.7-8.3 52 0"/><path id="Path_258" class="st1" d="M34.8 22.9C26.5 27.7 23 34.2 24.3 40.4l2.4 1.5c14.3 8.3 37.6 8.3 52 0 8.3-4.8 11.8-11.3 10.5-17.5l-2.4-1.5c-14.4-8.3-37.6-8.3-52 0"/><path id="Path_259" class="st2" d="M52.7 48.4c-9.5 0-19.1-2.1-26.3-6.3-7.2-4.1-11.1-9.7-11.1-15.6s4-11.5 11.1-15.6c14.5-8.4 38.1-8.4 52.6 0 7.2 4.1 11.1 9.7 11.1 15.6s-3.9 11.5-11 15.6c-7.3 4.2-16.8 6.3-26.4 6.3m0-42.4c-9.3 0-18.6 2-25.6 6.1-6.7 3.9-10.4 9-10.4 14.4S20.4 37 27.1 40.9c14.1 8.2 37.1 8.2 51.3 0 6.7-3.9 10.4-9 10.4-14.4S85.1 16 78.4 12.1C71.3 8 62 6 52.7 6"/><path id="Path_260" class="st7" d="M78.7 27.9c-14.3-8.3-37.6-8.3-52 0-3.1 1.7-5.8 4-7.9 6.8 2.1 2.8 4.8 5.1 7.9 6.8 14.3 8.3 37.6 8.3 52 0 3.1-1.7 5.8-4 7.9-6.8-2.1-2.8-4.8-5.1-7.9-6.8"/><path id="Path_261" class="st3" d="M30.7 32.9c-2.9 1.6-5.5 3.8-7.6 6.4 1.1.9 2.3 1.7 3.6 2.4 14.3 8.3 37.6 8.3 52 0 2.9-1.6 5.5-3.8 7.6-6.4-1.1-.9-2.3-1.7-3.6-2.4-14.4-8.3-37.6-8.3-52 0"/><path id="Path_262" class="st7" d="M52.7 48.4c-9.5 0-19.1-2.1-26.3-6.3-3.2-1.7-5.9-4.1-8.1-7l-.3-.4.3-.4c2.2-2.9 5-5.3 8.1-7 14.5-8.4 38.1-8.4 52.6 0 3.2 1.7 5.9 4.1 8.1 7l.3.4-.3.4c-2.2 2.9-5 5.3-8.1 7-7.2 4.2-16.7 6.3-26.3 6.3m-33-13.7c2 2.5 4.5 4.6 7.4 6.2 14.1 8.2 37.1 8.2 51.3 0 2.8-1.6 5.4-3.7 7.4-6.2-2-2.5-4.5-4.6-7.4-6.2-14.1-8.2-37.1-8.2-51.3 0-2.8 1.6-5.3 3.7-7.4 6.2"/><path id="Path_263" class="st6" d="M26.8 16c14.3-8.3 37.6-8.3 52 0 6.1 3.5 9.6 8 10.5 12.5 1-6.1-2.5-12.4-10.6-17-14.3-8.3-37.6-8.3-52 0-8.1 4.7-11.6 11-10.6 17 1.1-4.5 4.6-9 10.7-12.5"/><path id="Path_264" class="st2" d="m88.7 29.3-.1-.6c-.9-4.6-4.4-8.8-10.2-12.1-14.1-8.2-37.1-8.2-51.3 0-5.7 3.3-9.2 7.5-10.2 12.1l-.1.6h-1.2l-.1-.6c-1.1-6.6 2.9-13.1 10.9-17.8 14.5-8.4 38.1-8.4 52.6 0 8 4.6 12 11.1 10.9 17.8l-.1.6h-1.1zM52.7 6c-9.3 0-18.6 2-25.6 6.1-6 3.5-9.6 8-10.3 12.7 1.8-3.5 5-6.7 9.6-9.4C40.9 7 64.6 7 79.1 15.4c4.6 2.6 7.8 5.8 9.6 9.4-.7-4.7-4.3-9.2-10.3-12.7C71.3 8 62 6 52.7 6"/></g><g id="Group_4747" transform="translate(62.693 77.825)"><path id="Path_2612" class="st0" d="M70.1 39c13.2 7.6 13.2 19.9 0 27.5-13.2 7.6-34.5 7.6-47.7 0-13.2-7.6-13.2-19.9 0-27.5s34.5-7.6 47.7 0"/><path id="Path_2613" d="M70.9 23.4H14.6v24.9c0 4.2 2.8 8.3 8.3 11.5 11 6.4 28.8 6.4 39.8 0 5.5-3.2 8.3-7.3 8.3-11.5V23.4z" style="fill:#bab2b2"/><path id="Path_2614" class="st9" d="M42.7 65.2c-7.3 0-14.6-1.6-20.2-4.8C17 57.2 14 53 14 48.4V22.9h57.4v25.5c0 4.6-3 8.8-8.5 12-5.6 3.1-12.9 4.8-20.2 4.8M15.1 24v24.4c0 4.1 2.8 8 8 11 10.8 6.3 28.5 6.3 39.3 0 5.1-3 8-6.9 8-11V24H15.1z"/><path id="Rectangle_1146" transform="rotate(-89.923 18.165 43.86)" class="st9" d="M5.7 43.3h24.9v1.1H5.7z"/><path id="Rectangle_1147" class="st9" d="M64.5 33.3h1.1v24.9h-1.1z"/><path id="Rectangle_1148" class="st9" d="M61.7 35.1h1.1V60h-1.1z"/><path id="Rectangle_1149" class="st9" d="M55.2 38h1.1v24.9h-1.1z"/><path id="Path_2615" class="st3" d="M61.2 34.2c-.8 2-2 3.9-3.6 5.4-1.1 1-2.4 2-3.7 2.8-1.7 1-3.4 2.6-2.7 4.7 1.3 3.9-3.8 4.3-2.8 0 .9-3.8-.8-5.1-3.1-4.9s-3.2 4.3-2 8.9.2 6.8-2.2 6.7c-2.4-.1-2.7-4.5-1.6-7.4 1.1-2.9.4-9.2-3.4-8.2-2.1.6-5.3 3.1-7.4-1.6-1.1-2.3-2.7-4.2-4.8-5.6l37.7-1.8-.4 1z"/><path id="Path_2616" class="st4" d="M30.6 40.4c-1-2.1-2.5-3.9-4.3-5.3l-2.5.1c2.1 1.4 3.7 3.4 4.8 5.6 1.5 3.3 3.5 3 5.4 2.3-1.2.1-2.4-.5-3.4-2.7"/><path id="Path_2617" class="st4" d="M41.4 50.2c1.1-2.9.4-9.2-3.4-8.2-.3.1-.6.2-1 .3 2.9.3 3.3 5.7 2.4 8.3-1.1 2.9-.8 7.4 1.6 7.4.6 0 1.2-.1 1.6-.5-2-.5-2.2-4.6-1.2-7.3"/><path id="Path_2618" class="st4" d="M50.4 46.8c.9-3.8-.8-5.1-3.1-4.9-.4 0-.8.2-1.1.5 1.8.2 3 1.6 2.2 4.9-.7 3.1 1.8 3.7 2.7 2.4-.6-.5-1-1.4-.7-2.9"/><path id="Path_2619" class="st9" d="M41.2 58.3H41c-.8 0-1.5-.4-1.9-1.1-1.1-1.7-1-4.9-.2-7.1.7-2 .6-5.5-.7-6.9-.5-.6-1.3-.8-2-.5-.4.1-.8.3-1.2.4-2 .8-5 2-6.9-2.3-1-2.2-2.6-4-4.6-5.4l-1.4-.9 40.3-1.9-.7 1.8c-.8 2.1-2.1 4-3.7 5.6-1.2 1.1-2.4 2-3.8 2.9-2.1 1.3-2.9 2.6-2.5 4 .5 1.1.3 2.5-.6 3.4-.7.5-1.6.6-2.3.1-.9-.6-1.3-1.9-1-3.4.4-1.7.3-2.9-.3-3.6-.6-.6-1.4-.8-2.2-.7-.5.1-.9.3-1.1.7-1 1.4-1.2 4.4-.4 7.6.8 3.1.6 5.2-.3 6.4-.6.6-1.5 1-2.3.9m-4.4-16.8c.8 0 1.6.3 2.1 1 1.7 1.9 1.7 6 1 8.1-.8 2.1-.7 4.8.1 6 .2.4.6.6 1 .6.6.1 1.2-.2 1.6-.6.7-.9.8-2.8.1-5.4-.9-3.5-.6-6.8.6-8.5.4-.7 1.2-1.1 2-1.2 1.2-.2 2.3.2 3.1 1 .8 1 1 2.5.6 4.6-.2 1.1-.1 1.9.5 2.3.3.2.7.2 1-.1.5-.4.6-1.2.3-2.1-.5-1.4-.3-3.4 3-5.4 1.3-.8 2.5-1.7 3.6-2.7 1.5-1.4 2.7-3.2 3.5-5.2l.5.2-.7-.1.1-.2-35.4 1.7c1.6 1.4 2.9 3 3.8 4.9 1.5 3.3 3.4 2.5 5.4 1.7.4-.2.8-.3 1.3-.5.3 0 .6-.1.9-.1"/><path id="Path_2620" d="M62.6 11.9c11 6.4 11 16.6 0 23s-28.8 6.4-39.8 0-11-16.6 0-23 28.8-6.3 39.8 0" style="fill:#f1f1f1"/><path id="Path_2621" class="st9" d="M42.7 40.5c-7.4 0-14.7-1.6-20.3-4.9-5.6-3.2-8.7-7.6-8.7-12.2s3.1-9 8.7-12.2c11.2-6.5 29.5-6.5 40.7 0 5.6 3.2 8.7 7.6 8.7 12.2s-3.1 9-8.7 12.2c-5.6 3.3-13 4.9-20.4 4.9m0-32.5c-7.1 0-14.1 1.6-19.5 4.7-5.1 2.9-7.8 6.7-7.8 10.8s2.8 7.9 7.8 10.8c10.8 6.2 28.2 6.2 39 0 5.1-2.9 7.8-6.7 7.8-10.8s-2.8-7.9-7.8-10.8C56.8 9.6 49.8 8 42.7 8"/><path id="Path_2622" class="st1" d="M59.3 13.9c9.1 5.3 9.1 13.8 0 19.1-9.1 5.3-24 5.3-33.1 0s-9.2-13.8 0-19.1 23.9-5.3 33.1 0"/><path id="Path_2623" class="st9" d="M42.7 37.5c-5.9.1-11.7-1.3-16.8-4-4.6-2.7-7.1-6.2-7.1-10s2.5-7.4 7.1-10c9.3-5.4 24.4-5.4 33.7 0 4.6 2.7 7.1 6.2 7.1 10s-2.5 7.4-7.1 10c-5.2 2.7-11 4.1-16.9 4m0-27c-5.7-.1-11.3 1.2-16.3 3.9-4.2 2.4-6.6 5.7-6.6 9.1s2.3 6.6 6.6 9.1c9 5.2 23.6 5.2 32.6 0 4.2-2.5 6.6-5.7 6.6-9.1s-2.3-6.6-6.6-9.1c-5-2.7-10.6-4-16.3-3.9"/><path id="Path_2624" class="st3" d="M45.6 24c1.6.9 1.6 2.4 0 3.4-1.8.9-4 .9-5.8 0-1.6-.9-1.6-2.4 0-3.4 1.8-.9 4-.9 5.8 0"/><path id="Path_2625" class="st9" d="M42.7 26.4c-1.1 0-2.2-.2-3.2-.8-1.2-.5-1.8-1.8-1.3-3 .2-.6.7-1.1 1.3-1.3 2-1 4.4-1 6.4 0 1.2.5 1.8 1.8 1.3 3-.2.6-.7 1.1-1.3 1.3-1 .5-2.1.8-3.2.8m0-4.8c-.9 0-1.8.2-2.6.6-.7.2-1.1.8-.9 1.5.1.4.5.8.9.9 1.7.8 3.6.8 5.3 0 .7-.2 1.1-.8.9-1.5-.1-.4-.5-.8-.9-.9-.9-.4-1.8-.6-2.7-.6"/><path id="Path_2626" d="M26.2 16.8c9.1-5.3 24-5.3 33.1 0 3.9 2.2 6.1 5.1 6.7 8 .6-3.9-1.6-7.9-6.7-10.9-9.1-5.3-24-5.3-33.1 0-5.1 3-7.4 7-6.7 10.9.6-3 2.8-5.8 6.7-8" style="fill:#a3a3a3"/><path id="Path_2627" class="st9" d="M19.4 25.3h-.5l-.1-.5c-.7-4.3 1.8-8.5 7-11.4 9.3-5.4 24.4-5.4 33.7 0 5.2 3 7.7 7.2 7 11.4l-.1.5h-1l-.1-.5c-.6-2.9-2.8-5.5-6.4-7.6-9-5.2-23.6-5.2-32.6 0-3.6 2.1-5.8 4.7-6.4 7.6l-.1.5h-.4zm23.3-13c5.9-.1 11.7 1.3 16.8 4 2.4 1.3 4.4 3.1 5.8 5.4-.7-2.7-2.9-5.3-6.4-7.3-9-5.2-23.6-5.2-32.6 0-3.5 2-5.7 4.6-6.4 7.3 1.4-2.3 3.4-4.1 5.8-5.4 5.4-2.8 11.2-4.2 17-4"/></g></svg>