<svg version="1.1" id="Img" xmlns="http://www.w3.org/2000/svg" x="0" y="0" viewBox="0 0 150 150" style="enable-background:new 0 0 150 150" xml:space="preserve"><style>.st0{fill:#ed783f}.st1{fill:#c5c3c3}.st2{fill:#fff}.st3{fill:#414242}.st4{fill:#847d7d}.st6{fill:#3d3e3e}.st7{fill:#a3a3a3}.st8{fill:#d8d7d7}.st10{fill:#bf5623}.st13{fill:#feeedd}</style><g id="Group_4750"><path id="Path_281" class="st0" d="m8.8 97.6 47-27.4c1.2-.7 2.6-.7 3.8 0l85 49.6c.6.4.8 1.1.5 1.8-.1.2-.3.4-.5.5l-47 27.4c-1.2.7-2.6.7-3.8 0l-85-49.6c-.6-.4-.8-1.1-.5-1.7.1-.3.3-.5.5-.6"/><path id="Path_282" class="st1" d="M45 17.4 34.4 6.6l1-1.7c.1-.1 0-.2-.1-.3L28.7.7c-.1 0-.1-.1-.2-.1-1.5-.6-3.9.9-5.1 3.6l-16.1 35c-1.2 2.5-1.9 5.3-2 8.2v43.8c0 .6.2 1.1.6 1.5.1.1.2.1.3.2l7.1 4.1c.1.1.3 0 .3-.1v-.1c.3-1 1.1-4.2 2.3-8.8l28.5-16.5c1.5-1 2.5-2.6 2.6-4.4V23.3c.1-2.1-.6-4.2-2-5.9"/><path id="Path_283" class="st2" d="M46.6 20.6 35.9 9.8l1-1.7c.1-.1 0-.2-.1-.3L30.2 4c-.1 0-.1-.1-.2-.1-1.5-.8-3.9.8-5.1 3.5l-16.1 35c-.8 1.6-1.3 3.3-1.7 5l1.5.9 20.5 12.3-11 .4c1.4 1.6 2.1 3.7 2 5.9v22.9L46 74.7c1.5-1 2.5-2.6 2.6-4.4V26.5c.1-2.1-.6-4.3-2-5.9"/><path id="Path_284" class="st3" d="M13.4 97.6c-.1 0-.3 0-.4-.1l-7.1-4.1c-.1-.1-.3-.1-.4-.2-.6-.5-.8-1.2-.8-1.9V47.4c.1-2.9.8-5.8 2-8.4L22.9 4C23.6 2.3 25 .9 26.7.2c.7-.3 1.4-.2 2.1.1.1 0 .2.1.3.1l6.6 3.8c.3.2.5.6.3 1l-.8 1.3L45.5 17c1.5 1.7 2.3 4 2.1 6.2V67c-.1 2-1.1 3.8-2.8 4.9L16.4 88.4 14.2 97c-.1.3-.4.6-.8.6M27.7 1c-.2 0-.5 0-.7.1-1.4.7-2.6 1.8-3.2 3.3l-16.1 35c-1.2 2.5-1.9 5.2-1.9 7.9v43.8c0 .4.1.8.4 1.1.1.1.1.1.2.1l6.9 3.9 2.2-8.7 28.7-16.6c1.4-.9 2.2-2.4 2.3-4V23.3c.1-2-.5-4-1.8-5.5L33.8 6.7l1-1.7-6.4-3.7c-.1 0-.1-.1-.2-.1-.1-.1-.3-.2-.5-.2"/><path id="Path_285" class="st4" d="m30.5 8.4-16.1 35c-1.2 2.5-1.9 5.3-2 8.2v43.8c0 1.6 1.2 2.3 2.6 1.5l36.6-21.1c1.5-1 2.5-2.6 2.6-4.4V27.5c.1-2.1-.6-4.3-2-5.9L36.1 5.2c-1.4-1.4-4.2.2-5.6 3.2"/><path id="Path_286" class="st3" d="M13.9 97.7c-.3 0-.6-.1-.9-.2-.7-.5-1.1-1.3-1-2.1V51.6c.1-2.9.8-5.8 2-8.4l16.1-35c1-2.1 2.7-3.7 4.3-4 .8-.2 1.5.1 2.1.6l16.1 16.4c1.5 1.7 2.3 4 2.1 6.2v43.8c-.1 2-1.1 3.8-2.8 4.9L15.3 97.3c-.4.3-.9.4-1.4.4m21-92.5h-.3c-1.3.2-2.7 1.6-3.5 3.4L15 43.6c-1.2 2.5-1.9 5.2-1.9 7.9v43.8c-.2.6.2 1.2.7 1.3.4.1.8 0 1.1-.3l36.6-21.1c1.4-.9 2.2-2.4 2.3-4V27.5c.1-2-.5-4-1.8-5.5L35.7 5.5c-.2-.2-.5-.3-.8-.3"/><path id="Path_287" class="st2" d="m12.5 57.8 41.7-24.2 74.2 43.2L86.7 101 12.5 57.8"/><path id="Path_288" class="st3" d="m86.6 101.6-.3-.2-74.4-43.3v-.6l.3-.2 42-24.4.3.2 74.4 43.3v.6l-.3.1-42 24.5zM13.5 57.8l73.2 42.6 40.7-23.6-73.2-42.6-40.7 23.6z"/><path id="Path_289" class="st1" d="m20 58 34.7-20.1L121.3 77 86.7 97 20 58z"/><path id="Path_290" class="st3" d="M86.7 97.6 19 58l35.7-20.7L122.3 77 86.7 97.6zM21.1 58l65.6 38.5L120.3 77 54.7 38.4 21.1 58z"/><path id="Path_291" class="st4" d="M54.7 37.9v40.4L20.1 58l34.6-20.1c0-.1 0-.1 0 0 0-.1 0 0 0 0"/><path id="Path_292" class="st3" d="m54.7 78.9-.3-.2-34.9-20.4v-.6l.3-.2 34.9-20.3.5.3v41l-.5.4zM21.1 58l33.1 19.4V38.7L21.1 58z"/><path id="Path_293" d="M75.9 76.2c15.4 7 19.4 19 8.8 26.7s-31.5 8.4-46.9 1.4c-15.4-7-19.4-18.9-8.8-26.7s31.5-8.4 46.9-1.4" style="fill:#a2a2a2"/><path id="Path_294" class="st1" d="M70.2 73c14.1 6.4 17.8 17.4 8.1 24.5-9.7 7.1-29 7.7-43.1 1.3-14.2-6.4-17.8-17.4-8.1-24.5S56 66.6 70.2 73"/><path id="Path_295" class="st6" d="M56.8 103.7c-7.5 0-14.9-1.5-21.7-4.5-8.1-3.7-13.1-9-13.7-14.5-.4-4 1.5-7.7 5.5-10.7 9.7-7.2 29.3-7.8 43.5-1.3 8.1 3.7 13.1 9 13.7 14.5.4 4-1.5 7.7-5.5 10.7-5.3 3.8-13.3 5.8-21.8 5.8M48.5 69c-8.3 0-16.2 1.9-21.3 5.7-3.8 2.8-5.6 6.2-5.2 10 .6 5.3 5.4 10.3 13.2 13.9 14 6.4 33.2 5.8 42.7-1.3 3.8-2.8 5.6-6.2 5.2-10-.4-5.3-5.3-10.4-13.1-13.9-6.8-3-14.1-4.5-21.5-4.4"/><path id="Path_296" class="st7" d="m71.1 73.2 7 11.4s4.6 3 4.2 8.4c3.7-6.6-.4-14.6-11.2-19.8"/><path id="Path_297" class="st6" d="m81.7 94.7.2-1.8c.4-5.1-4-8-4-8l-.1-.1L70 72.2l1.2.6c6.5 3.2 10.9 7.5 12.3 12.1.9 2.8.5 5.8-1 8.3l-.8 1.5zm-3.4-10.4c2.3 1.6 3.9 4.2 4.3 7 .7-2 .8-4.1.2-6.1-1.2-4.1-5-7.9-10.7-10.9l6.2 10z"/><path id="Path_298" class="st7" d="M26.1 92.8c-2.7-4-2.7-9.3 0-13.3 1.4-2.2 1.4-3.9.6-5.2-6.9 5.2-6.7 12.5-.6 18.5"/><path id="Path_299" class="st6" d="M25.8 93.1c-3.3-3.2-4.9-6.8-4.6-10.3.2-3.3 2.1-6.3 5.3-8.8l.4-.3.2.4c.9 1.6.7 3.5-.6 5.6-2.6 3.9-2.6 9 0 12.9l-.7.5zm.8-18.2c-2.9 2.3-4.5 5-4.6 7.9-.1 2.7.8 5.3 2.4 7.4-1.3-3.7-.8-7.7 1.4-11 1-1.6 1.3-3.1.8-4.3"/><path id="Path_300" class="st1" d="M77.6 81.3s-6.3-25.1-28-26.3c-20.9-1.1-26.2 24.3-26.2 24.3-1.4 5.4 2.7 11.3 11.5 15.1 12.5 5.4 29.6 4.6 38.3-1.8 4.4-3.3 5.8-7.4 4.4-11.3"/><path id="Path_301" class="st8" d="M51.7 87.2c4.4-3.3 5.8-7.4 4.4-11.3 0 0-3.2-12.9-13-20.6C27.5 58.9 23.3 79 23.3 79c-1.2 4.7 1.8 9.8 8.4 13.6 7.8 0 15.2-1.9 20-5.4"/><path id="Path_302" class="st6" d="M53.1 98.4c-6.3 0-12.6-1.2-18.4-3.6C26.1 91 21.6 85.1 23 79.4v-.2c.1-.3 5.6-25.8 26.6-24.6C71.4 55.8 77.9 80.9 78 81.2c1.4 4.2-.2 8.5-4.6 11.7-4.9 3.6-12.4 5.5-20.3 5.5M23.9 78.9l-.1.5c-1.4 5.4 2.9 11 11.3 14.7 12.3 5.4 29.3 4.6 37.9-1.7 4.1-3.1 5.7-6.9 4.3-10.9l-.3-.6c-1-3.5-8-24.5-27.5-25.5-18.7-1.1-24.7 20-25.6 23.5"/><path id="Path_303" d="M71.5 69.3c-6-13.3-13.8-19.4-22-18.4-1.1.1-2.2.5-3.2.9l-7.5 3.8-.1 1.2L46 56l8.7 5 3.4 6.2 5.8 7.9L67 90.2l1.3 7h.1l7.2-4.9c.4-.3.6-.7.7-1.2.1-2.4.2-10.7-4.8-21.8" style="fill:#f0f0f0"/><path id="Path_304" class="st6" d="m68.4 97.7-.4-.2-.1-.2-1.3-7-3.1-15.1-5.8-7.9-3.4-6.1-8.5-4.8-7.7.8.2-1.9 7.7-3.9c1-.5 2.2-.8 3.3-1 8.6-1 16.6 5.6 22.4 18.6 5 11.2 4.9 19.7 4.8 22.1 0 .6-.3 1.1-.8 1.5l-7.3 5.1zM46 55.6l8.9 5.1 3.5 6.3 5.9 8 3.1 15.2 1.2 6.5 6.7-4.6c.3-.2.5-.5.5-.9.1-2.3.2-10.6-4.7-21.7-5.7-12.7-13.4-19.1-21.6-18.1-1.1.1-2.1.4-3.1.9L39.1 56l-.1.4 7-.8z"/><path id="Path_305" class="st1" d="m67.1 82.8-1.3 1.4 1.2 6 1.3 7h.1l7.2-4.9c.4-.3.6-.7.7-1.2.2-4.5-.4-9.1-1.7-13.4l-7.5 5.1z"/><path id="Path_306" class="st6" d="m68.5 97.7-.4-.2-.1-.2-1.3-7-1.3-6.2 1.5-1.6 7.9-5.4.1.5c1.3 4.4 1.9 9 1.7 13.6 0 .6-.3 1.1-.8 1.5l-7.3 5zm-2.3-13.4 1.2 5.8 1.2 6.5 6.7-4.6c.3-.2.5-.5.5-.9.2-4.3-.4-8.6-1.6-12.8l-6.9 4.8-1.1 1.2z"/><path id="Path_307" class="st7" d="M32.7 61.5s11.5-12.1 23 3.6 10.1 31.1 10.1 31.1l2.4 1.1h.1c.1-.9 1.1-11.4-4.6-24.1-6-13.3-13.8-19.4-22-18.4C32.4 55.9 27 69.6 27 69.6c1.5-2.9 3.5-5.6 5.7-8.1"/><path id="Path_308" class="st6" d="M68.3 97.7h-.2l-2.7-1.2v-.3c0-.2 1.3-15.5-10-30.8-3.6-4.9-7.6-7.6-11.8-7.8-6-.4-10.5 4.3-10.6 4.3-2.2 2.4-4.1 5.1-5.7 8l-.7-.3c.2-.6 5.6-14 15.1-15.1 8.6-1 16.6 5.6 22.4 18.6 5.7 12.7 4.7 23.2 4.6 24.3v.2l-.2.1h-.2m-2.1-1.8 1.8.8c.4-8.1-1.2-16.1-4.6-23.4C57.7 60.6 50 54.2 41.8 55.2c-3.9.5-7.2 3.3-9.6 6.3l.2-.2c.2-.2 4.8-5 11.2-4.6 4.5.3 8.6 3 12.4 8.2 6.8 8.9 10.4 19.8 10.2 31"/><path id="Rectangle_101" transform="rotate(-34.327 69.89 77.111)" class="st6" d="M65.4 76.7h8.9v.8h-8.9z"/><path id="Rectangle_102" transform="rotate(-25.84 48.113 52.748)" class="st6" d="M43.7 52.4h8.8v.8h-8.8z"/><path id="Path_309" class="st0" d="M91.7 20.2 87 16.7c-.1 0-.2-.1-.2 0L68.1 27.2l-4 1.7c-.6.3-1.1.8-1.4 1.3l-.1.1-4.5 2.6-.1.1-.9 1.3c-.1.1-.1.2 0 .3l4.8 3.6h.1c.3.1.7.1 1-.1l22.2-9.6c1-.4 1.8-1.1 2.5-1.9l3.3-3.5c.9-1 1.2-2.2.7-2.8v-.1z"/><path id="Path_310" class="st6" d="M91.7 23c-.1.1-.2.2-.3.4l-3.3 3.5c-.7.8-1.7 1.5-2.7 2l-22.2 9.6c-.4.2-.9.2-1.3 0l-.1-.1-4.8-3.6c-.3-.2-.3-.6-.1-.9l.9-1.3.2-.2 4.5-2.5c.4-.6.9-1.1 1.6-1.4l4-1.7 18.5-10.6c.2-.1.5-.1.7 0l4.8 3.5.2.2c.3 1.1.1 2.3-.6 3.1M62.2 37.8c.2.1.3.1.7 0l22.2-9.6c.9-.4 1.7-1 2.4-1.8l3.3-3.5c.8-.9 1-1.9.7-2.2l-.1-.1-4.6-3.4-18.5 10.4-4.1 1.8c-.5.3-.9.7-1.2 1.2-.1.1-.1.2-.2.2l-4.5 2.6-.8 1.1 4.7 3.3z"/><path id="Path_311" class="st10" d="m86.6 16.6-9 5.1L86 28c.6-.4 1.2-.9 1.7-1.4L91 23c.9-1 1.2-2.2.7-2.8l-.1-.1-4.7-3.5h-.3"/><path id="Path_312" class="st6" d="M91.6 23c-.1.1-.2.2-.3.4L88 26.9c-.5.6-1.1 1.1-1.7 1.5l-.3.1-9.2-6.8 9.5-5.4c.2-.1.5-.1.7 0l4.7 3.5.3.2c.5 1 .4 2.2-.4 3m-5.5 4.5c.5-.3.9-.7 1.4-1.2l3.3-3.5c.8-.9 1-1.9.7-2.2l-.1-.1-4.7-3.5-8.3 4.7 7.7 5.8z"/><path id="Path_313" d="m58.3 32.8-.2.1-.1.1-.9 1.3c-.1.1-.1.2 0 .3l4.8 3.6h.1c.3.1.7.1 1-.1l1.5-.7-6.2-4.6z" style="fill:#db9c17"/><path id="Path_314" class="st6" d="m65.4 37.6-2.2.9c-.4.2-.9.2-1.3 0l-.1-.1-4.8-3.6c-.3-.2-.3-.6-.1-.9l.9-1.3.2-.2.5-.3 6.9 5.5zm-3.2.2c.2.1.3.1.7 0l.9-.4-5.4-4-.8 1 4.6 3.4z"/><path id="Path_315" d="m81.4 15.7-22.2 9.6c-1 .5-1.7 1.5-1.9 2.6l-.6 5.5c-.1 1 .5 1.5 1.5 1.1l22.2-9.6c1-.4 1.8-1.1 2.5-1.9l3.3-3.5c1.1-1.2 1.3-2.7.4-3l-2.8-.9c-.9-.4-1.7-.3-2.4.1" style="fill:#f4e3cc"/><path id="Path_316" class="st0" d="m87.1 16.5-.2-.1c-.8-.2-1.6-.1-2.4.2l-22.2 9.6c-1 .5-1.7 1.5-1.9 2.6l-.5 4.6 20.6-8.9c1-.4 1.8-1.1 2.5-1.9l3.3-3.5c.7-.6 1-1.6.8-2.6"/><path id="Path_317" class="st6" d="M86.7 19.3c-.1.1-.2.2-.3.4l-3.3 3.6c-.8.8-1.7 1.5-2.7 2l-22.2 9.6c-.6.4-1.5.2-1.9-.5-.2-.3-.3-.7-.2-1.1l.6-5.5c.2-1.3 1-2.3 2.2-2.9l22.2-9.6c.8-.4 1.8-.5 2.7-.3l2.8.9c.4.1.7.5.8.9.1 1-.1 1.8-.7 2.5m-28.5 7.3c-.3.4-.5.8-.6 1.3l-.6 5.5c-.1.3 0 .6.3.8.2.1.4.1.6-.1l22.2-9.6c.9-.4 1.7-1 2.4-1.8l3.3-3.5c.6-.5.8-1.3.8-2 0-.1-.1-.3-.3-.3l-2.8-.9c-.7-.2-1.4-.1-2.1.2l-22.2 9.6c-.3.1-.7.4-1 .8"/><path id="Path_318" class="st0" d="M76.2 30.1c-.9-.6-2-.8-3-.5l-3.7 1.6c-.2.2-.5.4-.5.8v.3l-6.6 56.3s0 .1.1.1l7.8-1 .1-.1 6.5-55.4.1-.9c-.2-.5-.4-.9-.8-1.2"/><path id="Path_319" class="st13" d="m74.9 32.8.1-.8c0-.4.3-1.9-.2-2.3-.6-.5-2 .5-2.7.6l-2.6 1.1c-.3.1-.5.4-.6.7v.3l-6.6 56.3s0 .1.1.1l6-.8 6.5-55.2z"/><path id="Path_320" class="st6" d="m70.6 87.9-.4.1-8 1-.2-.2c-.1-.1-.2-.2-.1-.4l6.6-56.5c.1-.5.4-.8.8-1l3.7-1.6c1.1-.4 2.4-.2 3.4.5.5.3.8.9.8 1.5l-.1.8-6.5 55.8zm-7.8.2 7-.9 6.6-56c0-.1 0-.4-.4-.7-.7-.5-1.7-.7-2.5-.4l-3.7 1.6c-.1.1-.3.2-.3.4v.3l-6.7 55.7z"/><path id="Path_321" d="m69.6 88.3-3.7 1.6c-1 .3-2.1.1-3-.5-.8-.6-.8-1.4 0-1.7l3.7-1.6c1-.3 2.1-.1 3 .5.8.6.8 1.4 0 1.7" style="fill:#82cef0"/><path id="Path_322" class="st6" d="M70.4 88.2c-.2.2-.4.4-.6.5l-3.7 1.6c-1.1.4-2.4.2-3.4-.5-.5-.3-.8-.8-.8-1.4.1-.5.4-.9.8-1l3.7-1.6c1.1-.4 2.4-.2 3.4.5.5.3.8.8.8 1.4 0 .2-.1.4-.2.5m-.9-.2c.1-.1.3-.2.4-.4 0-.2-.1-.5-.5-.7-.7-.5-1.7-.7-2.5-.4l-3.7 1.6c-.1.1-.3.2-.4.4 0 .2.2.5.5.7.7.5 1.7.7 2.5.4l3.7-1.6z"/><path id="Rectangle_103" transform="rotate(-83.466 71.805 57.904)" class="st6" d="M43.4 57.5h56.8v.8H43.4z"/><path id="Path_323" class="st8" d="m105 40.9-45.6 60.9c-.2.2-.4.3-.7.3l-8.9-1.1c-.3 0-.4-.2-.2-.4l45.7-60.9c.2-.2.4-.3.7-.3l8.9 1.1c.1 0 .2.2.1.4"/><path id="Path_324" class="st0" d="M59.3 101.6 104 41.9l-7.5-.9c-.3 0-.5.1-.7.3l-44.7 59.6 7.5.9c.2 0 .5-.1.7-.2"/><path id="Path_325" class="st10" d="m97.8 50.2 6.1-8.1-7.5-.9c-.3 0-.5.1-.7.3l-5.8 7.7 7.9 1z"/><path id="Path_326" class="st13" d="m100.6 46.5 3.4-4.6-7.5-.9c-.3 0-.5.1-.7.3l-3.2 4.2 8 1z"/><path id="Path_327" d="m64 86.7-2-.2-9.7 13 7.5.9c.3 0 .5-.1.7-.3L70 87.3c-3.4-.3-5.9-.6-6-.6" style="fill:#edb43f"/><path id="Path_328" class="st6" d="M59.2 102.3c-.2.1-.4.1-.6.1l-8.9-1.1c-.3 0-.5-.2-.6-.4-.1-.2 0-.5.1-.6l45.6-60.9c.3-.3.7-.5 1.1-.4l8.9 1.1c.3 0 .5.2.6.4.1.2.1.5-.1.6L59.7 102c-.1.1-.3.2-.5.3m-9.2-1.8 8.7 1c.1 0 .2 0 .3-.1l45.5-60.6-8.7-1c-.1 0-.2 0-.3.1L50 100.5z"/><path id="Path_329" d="m63 88-2-.2-9.8 13 7.5.9c.3 0 .5-.1.7-.3L69 88.6c-3.5-.3-5.9-.6-6-.6" style="fill:#82cdef"/><path id="Rectangle_104" transform="rotate(-83.108 57.578 99.229)" class="st6" d="M57.3 95.9h.6v6.7h-.6z"/><path id="Path_330" class="st6" d="m66.2 92.8-4.9-.6.1-.6 4.9.6-.1.6z"/><path id="Rectangle_105" transform="rotate(-83.131 62.366 94.101)" class="st6" d="M62.1 91.6h.6v5h-.6z"/><path id="Path_331" class="st6" d="m62.1 98.2-4.9-.6.1-.6 4.9.6-.1.6z"/><path id="Rectangle_106" transform="rotate(-83.108 61.04 95.863)" class="st6" d="M60.7 93.4h.6v5h-.6z"/><path id="Rectangle_107" transform="rotate(-83.108 67.855 86.78)" class="st6" d="M67.5 84.3h.6v5h-.6z"/><path id="Path_332" class="st6" d="m68.9 89.3-4.9-.6.1-.6 4.9.6-.1.6z"/><path id="Path_333" class="st6" d="m67.5 91-4.9-.6.1-.6 4.9.6-.1.6z"/><path id="Path_334" class="st6" d="m76.8 78.7-4.9-.6.1-.6 4.9.6-.1.6z"/><path id="Rectangle_108" transform="rotate(-83.131 72.964 79.972)" class="st6" d="M72.6 77.5h.6v5h-.6z"/><path id="Rectangle_109" transform="rotate(-83.131 70.315 83.503)" class="st6" d="M70 81h.6v5H70z"/><path id="Rectangle_110" transform="rotate(-83.131 71.64 81.739)" class="st6" d="M71.3 79.3h.6v5h-.6z"/><path id="Rectangle_111" transform="rotate(-83.108 78.453 72.652)" class="st6" d="M78.1 70.2h.6v5h-.6z"/><path id="Rectangle_112" transform="rotate(-83.131 77.034 74.548)" class="st6" d="M76.7 72.1h.6v5h-.6z"/><path id="Path_335" class="st6" d="m78.1 76.9-4.9-.6.1-.6 4.9.6-.1.6z"/><path id="Path_336" class="st6" d="m87.4 64.6-5-.6.1-.6 4.9.6v.6z"/><path id="Rectangle_113" transform="rotate(-83.131 83.531 65.885)" class="st6" d="M83.2 63.4h.6v5h-.6z"/><path id="Rectangle_114" transform="rotate(-83.131 80.882 69.417)" class="st6" d="M80.6 66.9h.6v5h-.6z"/><path id="Rectangle_115" transform="rotate(-83.108 82.206 67.649)" class="st6" d="M81.9 65.2h.6v5h-.6z"/><path id="Rectangle_116" transform="rotate(-83.108 89.019 58.566)" class="st6" d="M88.7 56.1h.6v5h-.6z"/><path id="Rectangle_117" transform="rotate(-83.131 87.601 60.461)" class="st6" d="M87.3 58h.6v5h-.6z"/><path id="Rectangle_118" transform="rotate(-83.131 86.276 62.227)" class="st6" d="M86 59.7h.6v5H86z"/><path id="Rectangle_119" transform="rotate(-83.131 95.644 49.738)" class="st6" d="M95.3 47.3h.6v5h-.6z"/><path id="Path_337" class="st6" d="m96.7 52.2-4.9-.6.1-.6 4.9.6-.1.6z"/><path id="Path_338" class="st6" d="m94 55.8-4.9-.6.1-.6 4.9.6-.1.6z"/><path id="Path_339" class="st6" d="m95.3 54-4.9-.6.1-.6 4.9.6-.1.6z"/><path id="Rectangle_120" transform="rotate(-83.131 99.713 44.314)" class="st6" d="M99.4 41.8h.6v5h-.6z"/><path id="Rectangle_121" transform="rotate(-83.108 98.291 46.203)" class="st6" d="M98 43.7h.6v5H98z"/><path id="Rectangle_122" transform="rotate(-83.131 96.97 47.971)" class="st6" d="M96.7 45.5h.6v5h-.6z"/><path id="Rectangle_123" transform="rotate(-83.108 78.844 70.88)" class="st6" d="M78.5 67.5h.6v6.7h-.6z"/><path id="Rectangle_124" transform="rotate(-83.108 68.27 84.975)" class="st6" d="M68 81.6h.6v6.7H68z"/><path id="Rectangle_125" transform="rotate(-83.108 89.537 56.625)" class="st6" d="M89.2 53.3h.6V60h-.6z"/><path id="Rectangle_126" transform="rotate(-83.108 100.11 42.53)" class="st6" d="M99.8 39.2h.6v6.7h-.6z"/><path id="Path_340" class="st1" d="m113.2 74.5 5.3-9.6-81-47.2c-.9-.4-2-.3-2.8.3-2.3 1.5-3.7 4-3.9 6.7-.1.9.3 1.8 1 2.4l.2.2 81.2 47.2z"/><path id="Path_341" class="st2" d="M38.1 19.9c-.9-.4-2-.3-2.8.3-.8.5-1.5 1.1-2 1.8l78.2 45.6-2.2 4 4 2.3 4.2-7.7-79.4-46.3z"/><path id="Path_342" class="st3" d="m113.4 75.2-.5-.3-81.2-47.3-.3-.2c-.9-.7-1.3-1.7-1.2-2.8.1-2.9 1.7-5.6 4.1-7.1.8-.6 1.9-.7 2.8-.5l.4.2L119 64.7l-5.6 10.5zm-77-57.3c-.5 0-1 .2-1.5.5-2.1 1.4-3.5 3.7-3.6 6.2-.1.7.2 1.5.8 2l.2.1 80.7 47 4.8-8.7-80.2-46.6-.4-.2c-.3-.2-.6-.3-.8-.3"/><path id="Path_343" class="st1" d="m12.5 96.5 74.7 43.6-.6-39-74.1-43.3v38.7"/><path id="Path_344" class="st3" d="m87.2 140.7-.3-.1L12.2 97l-.2-.2V57.5l.5-.3.3.1 74.4 43.4v.3l.6 39.3-.6.4zM13 96.2l73.7 43-.5-37.9L13 58.7v37.5z"/><path id="Path_345" class="st2" d="m12.7 57.8 7.3.1L86.7 97v4l-74-43.1v-.1"/><path id="Path_346" class="st3" d="M87.2 101.9 12.1 58.2l.1-.5c.1-.3.3-.4.6-.4l7.5.1.1.1 66.8 39.2v5.2zM14.5 58.4l71.7 41.7v-2.8L19.9 58.5l-5.4-.1z"/><path id="Path_347" class="st1" d="m126.3 64.9-10.6-10.8 1-1.7c.1-.1 0-.2-.1-.3l-6.6-3.9c-.1 0-.1-.1-.2-.1-1.5-.8-3.9.8-5.1 3.5l-16.1 35c-1.2 2.5-1.9 5.3-2 8.2v43.8c0 .6.2 1.1.6 1.5.1.1.2.1.3.2l7.1 4.1c.1.1.3 0 .3-.1v-.1l2.3-8.8 28.5-16.5c1.5-1 2.5-2.6 2.6-4.4V70.8c.1-2.1-.6-4.2-2-5.9"/><path id="Path_348" class="st2" d="m127.8 68.1-10.6-10.8 1-1.7c.1-.1 0-.2-.1-.3l-6.6-3.9c-.1 0-.1-.1-.2-.1-1.5-.8-3.9.8-5.1 3.5L90 90c-.7 1.6-1.3 3.2-1.6 4.9l1.5.9 20.5 12.3-11 .4c1.4 1.6 2.1 3.7 2 5.9v22.9l25.8-14.9c1.5-1 2.5-2.6 2.6-4.4V74c.1-2.1-.6-4.2-2-5.9"/><path id="Path_349" class="st3" d="M94.7 145.1c-.1 0-.3 0-.4-.1l-7.1-4.1c-.1-.1-.3-.1-.4-.2-.6-.5-.8-1.2-.8-1.9V94.9c.1-2.9.8-5.8 2-8.4l16.1-35c.7-1.7 2.1-3.1 3.8-3.8.7-.3 1.4-.2 2.1.1.1 0 .2.1.3.1l6.6 3.8c.3.2.5.6.3 1l-.8 1.3 10.3 10.5c1.5 1.7 2.3 4 2.1 6.2v43.8c-.1 2-1.1 3.8-2.8 4.9l-28.3 16.4-2.2 8.6c-.1.4-.4.7-.8.7M109 48.6c-.2 0-.5 0-.7.1-1.4.7-2.6 1.8-3.2 3.3L89 87c-1.2 2.5-1.9 5.2-1.9 7.9v43.8c0 .4.1.8.4 1.1.1.1.1.1.2.1l6.9 3.9 2.2-8.7 28.7-16.6c1.4-.9 2.2-2.4 2.3-4V70.8c.1-2-.5-4-1.8-5.5l-10.9-11.1 1-1.7-6.4-3.7c-.1 0-.1-.1-.2-.1-.2-.1-.3-.1-.5-.1"/><path id="Path_350" class="st4" d="m111.8 55.9-16.1 35c-1.2 2.5-1.9 5.3-2 8.2v43.8c0 1.6 1.2 2.3 2.6 1.5l36.6-21.1c1.5-1 2.5-2.6 2.6-4.4V75c.1-2.1-.6-4.3-2-5.9l-16.1-16.4c-1.4-1.4-4.2.2-5.6 3.2"/><path id="Path_351" class="st3" d="M95.2 145.2c-.3 0-.6-.1-.9-.2-.7-.5-1.1-1.3-1-2.1V99.1c.1-2.9.8-5.8 2-8.4l16.1-35c1-2.1 2.7-3.7 4.3-4 .8-.2 1.5.1 2.1.6l16.1 16.4c1.5 1.7 2.3 4 2.1 6.2v43.8c-.1 2-1.1 3.8-2.8 4.9l-36.6 21.1c-.5.4-.9.5-1.4.5m20.9-92.5h-.3c-1.3.2-2.7 1.6-3.5 3.4l-16.1 35c-1.2 2.5-1.9 5.2-1.9 7.9v43.8c-.2.6.2 1.2.7 1.3.4.1.8 0 1.1-.3l36.6-21.1c1.4-.9 2.2-2.4 2.3-4V75c.1-2-.5-4-1.8-5.5L117 53.1c-.2-.3-.5-.4-.9-.4"/><path id="Path_352" d="M119.8 67.5c-.1 2.7-1.6 5.2-3.9 6.7-2.1 1.2-3.9.2-3.9-2.2.1-2.7 1.6-5.2 3.9-6.7 2.1-1.3 3.9-.3 3.9 2.2" style="fill:#a1a1a1"/><path id="Path_353" d="M117.6 66.3c-.1 2.7-1.6 5.2-3.9 6.7-2.1 1.2-3.9.2-3.9-2.2.1-2.7 1.6-5.2 3.9-6.7 2.2-1.3 3.9-.3 3.9 2.2" style="fill:#bab2b2"/><path id="Path_354" class="st3" d="M114.2 75.2c-.4 0-.9-.1-1.3-.3-1-.7-1.5-1.8-1.4-3 .1-2.9 1.7-5.6 4.1-7.1 1.2-1 3-.8 4 .4.5.6.8 1.5.6 2.3-.1 2.9-1.7 5.6-4.1 7.2-.6.3-1.2.5-1.9.5m3.4-10c-.5 0-1 .2-1.5.5-2.1 1.4-3.5 3.7-3.6 6.2-.2 1 .4 2 1.4 2.2.6.2 1.3 0 1.7-.5 2.1-1.4 3.5-3.7 3.6-6.3.1-.8-.2-1.6-.9-2.1-.2.1-.4 0-.7 0"/></g></svg>