<svg version="1.1" id="Layer_1" xmlns="http://www.w3.org/2000/svg" x="0" y="0" viewBox="0 0 150 150" style="enable-background:new 0 0 150 150" xml:space="preserve"><style>.st0{fill:#ec6a2b}.st2{fill:#c8c6c6}.st3{fill:#3d3e3e}.st4{fill:#cc5c25}.st5{fill:#fb8d58}.st6{fill:#f3e2cc}.st7{fill:#c5c3c3}.st8{fill:#c4c4c4}</style><path id="Path_230" class="st0" d="m56 117.3 14.7 8.5c1.6.9 4.5.8 6.4-.3l13.8-7.9c1.9-1.1 2.1-2.8.5-3.7l-6.3-3.6c-6.3-3.6-17.2-3.2-24.5 1l-4.1 2.4c-2 1-2.2 2.7-.5 3.6"/><path id="Path_231" d="M56.7 111.2v-6.9s0-.1.1-.1l12.7-.2c4-.9 8.1-1 12.1-.2l6.4-.1h6s.1 0 .1.1v7c.1.8-.4 1.6-1.6 2.3L78.9 121c-1.9 1.1-4.8 1.2-6.4.3l-14.7-8.5c-.6-.3-1.1-.9-1.1-1.6" style="fill:#bab2b2"/><path id="Path_232" class="st2" d="m73.8 114.3 7.5-10.8c.1 0 .3 0 .4.1l6.4-.1h6s.1 0 .1.1v7c.1.8-.4 1.6-1.6 2.3l-13.8 7.9c-1.6.9-3.4 1.1-5.2.7v-7l.2-.2"/><path id="Path_233" class="st3" d="M75.3 122.4c1.3 0 2.7-.3 3.9-1l13.8-7.9c1.2-.7 1.9-1.7 1.8-2.7v-6.9c0-.3-.3-.6-.6-.6h-6l-6.4.1c-4.1-.8-8.2-.7-12.3.2l-12.7.2c-.3 0-.6.3-.6.6v6.9c0 .9.6 1.6 1.3 2l14.7 8.5c1 .4 2 .7 3.1.6m18.4-18.1v6.6c.1.7-.4 1.3-1.3 1.8l-13.8 7.9c-1.7 1-4.5 1.1-5.9.3L58 112.4c-.5-.2-.8-.7-.9-1.2v-6.5l12.5-.2c3.9-.9 8-1 11.9-.2h.1l6.4-.1 5.7.1z"/><path id="Path_234" class="st4" d="m57.8 105.8 14.7 8.5c1.6.9 4.5.8 6.4-.3l13.8-7.9c1.9-1.1 2.1-2.8.5-3.7l-6.3-3.6c-6.3-3.6-17.2-3.2-24.5 1l-4.1 2.3c-1.9 1.1-2.1 2.7-.5 3.7"/><path id="Path_235" class="st3" d="M75.3 115.4c1.3 0 2.7-.3 3.9-1l13.8-7.9c1.1-.7 1.8-1.6 1.8-2.5 0-.9-.6-1.6-1.3-2l-6.3-3.6c-6.4-3.7-17.6-3.2-25 1l-4.1 2.4c-1.1.7-1.8 1.6-1.8 2.5 0 .9.6 1.6 1.3 2l14.7 8.5c.9.4 1.9.6 3 .6m.9-18.7c3.9 0 7.6.8 10.4 2.4l6.3 3.6c.5.2.8.7.9 1.2 0 .6-.5 1.2-1.3 1.7l-13.8 7.9c-1.7 1-4.5 1.1-5.9.3L58 105.4c-.5-.2-.8-.7-.9-1.2 0-.6.5-1.2 1.3-1.7l4.1-2.4c4.3-2.2 8.9-3.4 13.7-3.4"/><path id="Path_236" class="st0" d="M68.7 100.6c-3.7 2.2-3.7 5.7 0 7.8 3.7 2.2 9.8 2.2 13.5 0 3.7-2.2 3.7-5.7 0-7.8-3.7-2.2-9.8-2.2-13.5 0"/><path id="Path_237" class="st3" d="M75.5 110.5c2.4 0 4.9-.5 7-1.7 2-1.1 3-2.7 3-4.3 0-1.7-1.1-3.2-3-4.3-3.9-2.2-10.1-2.2-14 0-2 1.1-3 2.7-3 4.3s1.1 3.2 3 4.3c2.1 1.1 4.5 1.7 7 1.7m0-11.1c2.3 0 4.5.5 6.5 1.6 1.7 1 2.6 2.2 2.6 3.5s-1 2.5-2.6 3.5c-3.6 2.1-9.5 2.1-13.1 0-1.7-1-2.6-2.2-2.6-3.5s.9-2.5 2.6-3.5c2-1.1 4.3-1.6 6.6-1.6"/><path id="Path_238" class="st5" d="M79.5 101.6c-2.6-.8-5.4-.8-8.1 0-2.9.8-4.7 2.3-5.3 3.8H66c-.7-2.3 1.2-4.7 5.4-6 2.6-.7 5.4-.7 8 0 4.3 1.2 6.1 3.7 5.4 6 0 0 0 .1-.1 0-.5-1.5-2.3-2.9-5.2-3.8"/><path id="Path_239" class="st3" d="M66.1 105.9c.2 0 .4-.1.5-.3.6-1.5 2.4-2.8 5-3.5 2.6-.7 5.3-.7 7.8 0 2.6.7 4.4 2 5 3.5l.1.3h.4c.2 0 .4-.2.5-.4.3-1 .2-2.1-.4-3-.9-1.6-2.8-2.8-5.4-3.6-2.7-.8-5.6-.8-8.3 0-2.6.7-4.5 2-5.4 3.6-.5.9-.7 2-.4 3l.1.3.5.1zm9.4-5.3c-1.4 0-2.8.2-4.2.6-2.2.6-3.9 1.6-4.9 2.9.1-.3.2-.7.4-1 .7-1.3 2.5-2.4 4.8-3.1 2.5-.7 5.2-.7 7.7 0 2.4.7 4.1 1.8 4.8 3.1.2.3.3.6.4 1-1-1.2-2.7-2.2-4.9-2.9-1.3-.4-2.7-.6-4.1-.6"/><path id="Path_240" class="st6" d="m76.9 115.3.5-.3c.1-.1.3-.1.4 0h3.3c.1 0 .1 0 .1.1l-2.9 7.6c0 .1-.1.1-.1.1-.4-.2-1.6-.9-1.6-.9-.2-.1-.3-.4-.3-.6v-4.7c0-.6.2-1 .6-1.3"/><path id="Path_241" class="st3" d="m78.1 123.3.3-.1c.2-.1.3-.2.4-.3l2.9-7.6c.1-.2 0-.4-.1-.5-.1-.2-.3-.2-.5-.2h-3.2c-.2 0-.5 0-.7.1l-.5.3c-.6.4-.9 1-.9 1.7v4.7c0 .4.2.7.4.9.2.2.6.4 1.5.9l.4.1zm2.4-7.9-2.6 6.7c-.4-.2-1-.6-1.2-.7-.1-.1-.1-.1-.1-.2v-4.7c0-.3.2-.6.4-.9l.5-.3h.2l2.8.1z"/><path id="Path_242" class="st4" d="m78.8 122.9 2.1-1.3c.4-.3.7-.8.7-1.3v-4.8c0-.5-.3-.7-.7-.5l-2.1 1.3c-.4.3-.7.8-.7 1.3v4.8c.1.5.4.7.7.5"/><path id="Path_243" class="st3" d="M78.6 123.4c.2 0 .4-.1.5-.1l2.1-1.3c.6-.4.9-1 .9-1.7v-4.8c0-.4-.2-.7-.5-1-.3-.2-.6-.1-.9 0l-2.1 1.4c-.6.4-.9 1-.9 1.7v4.8c0 .4.2.7.5 1h.4m2.5-8c0 .1 0 .1 0 0v4.8c0 .3-.2.6-.4.9l-2.1 1.3V117.5c0-.3.2-.6.4-.9l2.1-1.2z"/><path id="Path_244" class="st7" d="M58 110.1c0 .7.4 1.3 1 1.7.5.3 1 .1 1-.6s-.4-1.3-1-1.7c-.6-.3-1 0-1 .6"/><path id="Path_245" class="st3" d="M59.4 112.4c.2 0 .3 0 .5-.1.4-.2.6-.6.5-1.1 0-.9-.5-1.7-1.2-2.1-.5-.4-1.1-.3-1.5.2-.2.2-.2.5-.2.8 0 .9.5 1.7 1.2 2.1.2.2.5.2.7.2m-.9-2.5c.1 0 .1 0 .2.1.4.3.7.8.8 1.3 0 .1 0 .2-.1.2s-.2 0-.2-.1c-.4-.3-.7-.8-.8-1.3 0-.1.1-.2.1-.2"/><path id="Path_246" class="st3" d="M51.4 118c1.5 0 3-.3 4.3-1 2.4-1.2 3.9-3.7 3.7-6.4l-.9.1c0 .1.4 3.4-3.2 5.4-2.8 1.5-6.4.9-7.4.1-.3-.2-.9-.8-.7-1.4.1-.3.7-1.4 4.6-1.7 2.3-.2 3.9-.8 4.8-1.9.4-.5.7-1.2.6-1.9l-.9.1c0 .4-.2.9-.5 1.2-.5.6-1.6 1.3-4.1 1.5-3.9.3-5.1 1.5-5.4 2.4-.3.8.1 1.7 1 2.4.7.7 2.3 1.1 4.1 1.1"/><path id="Rectangle_91" class="st3" d="M69 100.2h1v2.2h-1z"/><path id="Rectangle_92" class="st3" d="M83.1 101.5h1v2.2h-1z"/><path id="Path_379" class="st0" d="M-.1 84c0-.3.2-.6.4-.7l.2-.2C3.1 82 23.6 73.4 35.6 64v-4l-1.7-1c-.8-.4-1.4-1.2-1.4-2.1v-9.4L29.9 46c-1.1-.5-1.7-1.8-1.7-3.5 0-.7.1-1.4.3-2.1l-.2-.1c-.8-.4-1.2-1.3-1.2-2.5 0-2 1.2-4.2 2.7-5.1l5.3-3.1c.6-.4 1.4-.5 2.1-.1l2.1 1.3.9-.5c.9-.6 2-.7 2.9-.2l3.2 1.9 2.8-1.6c1.9-1 4.2-1 6.2 0l6.9 4c.6.3 1.3.3 1.8 0 .9-.5 1.9-.5 2.8 0l1 .6c1.8-.9 4.3-1 5.8-.1L91.4 45c.4.2.8.6 1 1h.2v.4c0 .1.1.3.1.4 0 .1 0 .2-.1.3v2l2.1 1.2c.6.3.9.9.6 1.5-.1.3-.3.5-.6.6-.2.1-.2.2-.2.2s.1.2.2.2l28.5 16.5c1 .4 1.6 1.4 1.7 2.4v6.2l5.4 3.3.1.1c1 .6 1.5 2 1.5 3.7 0 1.1-.2 2.2-.6 3.2l.4.4c.6.5.8 1.2.8 1.9 0 .2 0 .5-.1.7l10.9 6c1 .6 1.4 1.9.8 2.9-.3.5-.7.9-1.3 1-.2.1-.4.1-.6.1-.4 0-.7-.1-1-.3l-11-6.1c-.2.1-.4.3-.6.4-.4.3-.9.4-1.4.4-.2 0-.5-.1-.7-.1l-2.9-.8-6 3.5c-.6.3-1.2.5-1.9.6-.3 0-.6-.1-.9-.2v.1l-.4-.2-3.6-2.2-2.8 1.6c-2.3 1.2-5.1 1.2-7.4 0l-22-12.5c-.7.1-1.3.2-2 .2-1.8 0-3.5-.4-5.1-1.2L70 82.9c-.6.1-1.2.4-1.7.7-2.9 1.5-6.3 1.5-9.2 0L56.3 82c-2.4 3.8-8.9 12-24 21.8-2.4 1.6-5.2 2.4-8.1 2.4-2.7 0-5.3-.7-7.7-2.1L-.2 94.3-.1 84z"/><path id="Path_380" class="st0" d="M34 36.4c0-2.8 1.7-6 3.8-7.2l8.1-4.7c.7-.5 1.6-.6 2.4-.2l6.4 3.9-12.9 15.1-6.4-3.9c-.8-.4-1.4-1.4-1.4-3"/><path id="Path_381" class="st3" d="m41.9 43.9.3-.3 13-15.2-.1-.5-.2-.1-6.4-3.9c-.9-.4-2-.4-2.9.2l-8.1 4.7c-2.2 1.3-4 4.6-4 7.6 0 1.7.6 3 1.7 3.5l6.7 4zm12-15.6L41.7 42.7l-6-3.7c-.7-.4-1.2-1.3-1.2-2.7 0-2.6 1.6-5.6 3.5-6.8l8.1-4.7c.6-.4 1.3-.5 1.9-.2l5.9 3.7z"/><path id="Path_382" class="st7" d="m97.3 40.4.1 6.3-8.5-4.1 3.4-2.2h5c0-.1 0 0 0 0"/><path id="Path_383" class="st3" d="m97.4 47.3.5-.3v-6.3l-.6-.9h-5.2l-.1.1-3.6 2.3v.6l.3.2 8.7 4.3zm-.5-6.5v5.1l-7.1-3.5 2.6-1.7 4.5.1z"/><path id="Path_384" class="st3" d="m100.2 52.2.5-.3v-6.6l-.6-.5h-5.2l-.1.1-3.6 2.3v.6l.3.2 8.7 4.2zm-.5-6.4v5.1l-7.1-3.5 2.6-1.7 4.5.1z"/><path id="Path_385" class="st8" d="m38.3 35.1 6.9-.2 3.6 7 5.9-3.4c1.8-.9 3.9-.9 5.7 0l6.9 4c.7.4 1.6.4 2.3 0 .7-.4 1.6-.4 2.3 0l27.8 16.1c.4.1.6.5.4.9-.1.2-.2.4-.4.4-.4.1-.6.5-.4.9.1.2.2.4.4.4l15.1 8.7 2.3-3.8h12.5v15.5c-.1.9-.6 1.6-1.4 2l-14 8.1c-2.2 1.1-4.7 1.1-6.9 0L82 77c-2.7-1.4-6-1.4-8.7 0-2.7 1.4-6 1.4-8.7 0L43.1 64.7c-2.4-1.4-2.4-3.6 0-5s2.4-3.6 0-5l-3.7-2.1c-.7-.3-1.1-.9-1.2-1.6l.1-15.9z"/><path id="Path_386" class="st3" d="M110.7 93c1.3 0 2.6-.3 3.7-.9l14-8.1c1-.4 1.6-1.4 1.7-2.4v-16h-13.2l-2.2 3.6-14.7-8.5c-.2-.1-.2-.2-.2-.2 0-.1.1-.2.2-.2.6-.3.9-.9.6-1.5-.1-.3-.3-.5-.6-.6L72.2 42c-.9-.5-1.9-.5-2.8 0-.6.3-1.3.3-1.8 0l-6.9-4c-1.9-1-4.2-1-6.2 0L49 41.2l-3.5-6.8-7.7.2v16.2c.1.9.6 1.7 1.4 2.1l3.7 2.1c1 .6 1.6 1.3 1.6 2.1s-.6 1.5-1.6 2.1c-1.3.8-2 1.8-2 2.9s.7 2.2 2 2.9l21.4 12.4c2.9 1.5 6.3 1.5 9.2 0 2.6-1.3 5.6-1.3 8.2 0L107 92c1.2.7 2.4 1 3.7 1m18.5-26.5v15c-.1.7-.5 1.3-1.2 1.6l-14 8.1c-2 1-4.4 1-6.4 0L82.2 76.6c-2.9-1.5-6.3-1.5-9.2 0-2.6 1.3-5.6 1.3-8.2 0L43.4 64.2c-1-.6-1.6-1.3-1.6-2.1s.6-1.5 1.6-2.1c1.3-.8 2-1.8 2-2.9s-.7-2.2-2-2.9l-3.7-2.1c-.5-.2-.9-.7-.9-1.2V35.6l6.2-.2 3.7 7.2 6.4-3.7c1.6-.8 3.6-.8 5.2 0l6.9 4c.9.5 1.9.5 2.8 0 .6-.3 1.3-.3 1.8 0L99.6 59c.2.1.2.2.2.2 0 .1-.1.2-.2.2-.6.3-.9.9-.6 1.5.1.3.3.5.6.6l15.5 9 2.5-4h11.6z"/><path id="Path_387" d="M41.3 46.3v16l7.4-1-7.4-15z" style="fill:#d7d7d7"/><path id="Path_388" class="st3" d="m40.9 62.8 8-1.1-.1-1-6.9.9V46.3h-1v16.5z"/><path id="Path_389" class="st2" d="m60.4 24.7 6.9 4c.7.4 1.6.4 2.3 0 .7-.4 1.6-.4 2.3 0l27.8 16.1c.4.1.6.5.4.9-.1.2-.2.4-.4.4-.4.1-.6.5-.4.9.1.2.2.4.4.4l28.5 16.5c1.9 1.1 1.9 2.9 0 4l-14 8.1c-2.2 1.1-4.7 1.1-6.9 0L82 61.3c-2.7-1.4-6-1.4-8.7 0-2.7 1.4-6 1.4-8.7 0L43.1 48.9c-2.4-1.4-2.4-3.6 0-5s2.4-3.6 0-5l-3.7-2.1c-1.6-.9-1.6-2.4 0-3.3l15.3-8.8c1.8-1 3.9-1 5.7 0"/><path id="Path_390" class="st3" d="M110.7 77.2c1.3 0 2.6-.3 3.7-.9l14-8.1c1.3-.5 2-2 1.5-3.3-.3-.7-.8-1.2-1.5-1.5L100 46.9c-.2-.1-.2-.2-.2-.2s.1-.2.2-.2c.6-.3.9-.9.6-1.5-.1-.3-.3-.5-.6-.6L72.2 28.2c-.9-.5-1.9-.5-2.8 0-.6.3-1.3.3-1.8 0l-6.9-4c-1.9-1-4.2-1-6.2 0L39.2 33c-1.1.4-1.7 1.7-1.3 2.8.2.6.7 1.1 1.3 1.3l3.7 2.1c1 .6 1.6 1.3 1.6 2.1s-.6 1.5-1.6 2.1c-1.3.8-2 1.8-2 2.9 0 1.1.7 2.2 2 2.9l21.4 12.4c2.9 1.5 6.3 1.5 9.2 0 2.6-1.3 5.6-1.3 8.2 0L107 76.3c1.2.6 2.4.9 3.7.9M70.8 28.8c.3 0 .6.1.9.2l27.8 16.1c.2.1.2.2.2.2s-.1.2-.2.2c-.6.3-.9.9-.6 1.5.1.3.3.5.6.6L128 64.2c.9.2 1.4 1.2 1.1 2-.2.5-.6 1-1.1 1.1l-14 8.1c-2 1-4.4 1-6.4 0L82.2 60.9c-2.9-1.5-6.3-1.5-9.2 0-2.6 1.3-5.6 1.3-8.2 0L43.4 48.5c-1-.6-1.6-1.3-1.6-2.1s.6-1.5 1.6-2.1c1.3-.8 2-1.8 2-2.9 0-1.1-.7-2.2-2-2.9l-3.7-2.1c-.7-.2-1.1-.9-.9-1.6.1-.4.5-.8.9-.9L55 25.1c1.6-.8 3.6-.8 5.2 0l6.9 4c.9.5 1.9.5 2.8 0 .2-.2.5-.3.9-.3"/><path id="Path_391" d="M65.1 43.2 54 36.7c-1-.6-1-1.6 0-2.1l7.3-4.2c1.2-.6 2.5-.6 3.7 0l17.7 10.2c1 .6 1 1.6 0 2.1l-11 6.3c-1.2.6-2.5.6-3.7 0l-2.8-1.6c-1-.6-1-1.6 0-2.1 1-.6 1-1.5-.1-2.1" style="fill:#1e262e"/><path id="Path_392" class="st3" d="M69.8 50c.7 0 1.5-.2 2.1-.5l11-6.3c.8-.3 1.2-1.3.9-2.1-.2-.4-.5-.7-.9-.9L65.2 30c-1.3-.7-2.9-.7-4.2 0l-7.2 4.2c-.8.3-1.2 1.3-.9 2.1.2.4.5.7.9.9L65 43.7c.3.2.5.4.5.7 0 .2-.2.5-.5.6-.8.3-1.2 1.3-.9 2.1.2.4.5.7.9.9l2.8 1.6c.6.3 1.3.4 2 .4m-6.7-19.6c.6 0 1.1.1 1.6.4L82.4 41c.3.2.5.4.5.6 0 .2-.2.5-.5.7l-11 6.3c-1 .5-2.2.5-3.2 0L65.4 47c-.3-.2-.5-.4-.5-.6s.2-.5.5-.6c.8-.3 1.2-1.3.9-2.1-.2-.4-.5-.7-.9-.9l-11.2-6.5c-.3-.2-.5-.4-.5-.6 0-.2.2-.5.5-.6l7.2-4.2c.6-.3 1.1-.5 1.7-.5"/><path id="Path_393" class="st5" d="m82.6 42.8-.6.3-17.1-9.9c-1.2-.6-2.5-.6-3.7 0l-6.7 3.9-.5-.4c-1-.6-1-1.5 0-2.1l7.3-4.2c1.2-.6 2.5-.6 3.7 0l17.7 10.2c1 .6 1 1.6-.1 2.2"/><path id="Path_394" class="st3" d="m82.1 43.7.8-.5c.8-.3 1.2-1.3.9-2.1-.2-.4-.5-.7-.9-.9L65.2 30c-1.3-.7-2.9-.7-4.2 0l-7.2 4.2c-.8.3-1.2 1.3-.9 2.1.2.4.5.7.9.9l.8.5 6.9-4c1-.5 2.2-.5 3.2 0l17.4 10zm-19-13.3c.6 0 1.1.1 1.6.4L82.4 41c.3.2.5.4.5.6 0 .2-.2.5-.5.7l-.3.2-16.9-9.8c-1.3-.7-2.9-.7-4.2 0l-6.4 3.7-.3-.2c-.3-.2-.5-.4-.5-.6s.2-.5.5-.6l7.2-4.2c.5-.2 1-.4 1.6-.4"/><path id="Path_395" class="st6" d="M65.8 43.8c.8.5.6 3.9-.2 3.9l-.5-.3c-.8-.5-1-1.2-.5-1.8l1.2-1.8z"/><path id="Path_396" class="st3" d="M65.5 48.2h.1c.3 0 .8-.2 1-1.1.3-1 .3-3.2-.6-3.7l-.4-.2-1.4 2.3c-.3.3-.4.7-.3 1.2.1.5.5 1 1 1.3l.6.2zm.3-3.4c0 .2.1.4.1.5 0 .6 0 1.2-.2 1.8l-.3-.1c-.2-.1-.4-.3-.5-.6 0-.2 0-.3.2-.4l.7-1.2z"/><path id="Path_397" class="st0" d="M73.2 29.3 96 42.5c1.7-1 1.8-2.4.4-3.2L78.8 29.1c-1.5-.8-4-.7-5.6.2"/><path id="Path_398" class="st3" d="m96 43.1.2-.1c.9-.4 1.5-1.3 1.6-2.2 0-.8-.5-1.5-1.2-1.8L79 28.7c-1.6-.9-4.3-.8-6.1.2l-.7.4L96 43.1zM76.3 29c.8 0 1.5.1 2.2.5l17.7 10.2c.4.2.7.5.7 1-.1.5-.4 1-.9 1.3L74.2 29.4c.7-.2 1.4-.4 2.1-.4"/><path id="Path_399" class="st0" d="m71.9 65.7 6.6 4.5 4.5.9 5.3-2 .9-.4 1.3.4.1.1V76l-2.9 1.7c-3 1.6-6.6 1.6-9.6 0l-8.6-4.9V66c0-.1 0-.1.1-.1l2.3-.2z"/><path id="Path_400" class="st3" d="M82.8 79.4c1.8 0 3.5-.4 5.1-1.2l3.2-1.8v-7.1c0-.3-.2-.5-.4-.6l-1.5-.4-1.1.4-5.1 1.9-4.3-.9-6.7-4.5-2.4.3-.1-.1-.3.2c-.2.1-.2.3-.2.5v7.1l8.8 5.1c1.5.7 3.3 1.2 5 1.1m7.3-3.6-2.7 1.5c-2.9 1.5-6.3 1.5-9.1 0L70 72.5v-6.1l1.8-.2 6.6 4.5 4.6 1 6.2-2.3.9.2v6.2z"/><path id="Path_401" class="st5" d="M82.8 72c1.7 0 3.3-.4 4.8-1.2l2.9-1.6-1.9-1.1-1.9 1.1c-2.4 1.2-5.3 1.2-7.7 0l-6.2-3.6-3.3.3 8.5 4.9c1.5.9 3.1 1.3 4.8 1.2"/><path id="Path_402" class="st3" d="M82.8 72.5c1.8 0 3.5-.4 5.1-1.2l3.1-1.8v-.6l-.3-.2-2.2-1.3-.3.1-1.9 1.1c-2.3 1.1-4.9 1.1-7.2 0L72.8 65h-.2l-3.6.3v.9l8.8 5.1c1.5.8 3.3 1.3 5 1.2m6.8-3.3-2.2 1.2c-2.9 1.5-6.3 1.5-9.1 0L71 66.3l1.7-.2 6 3.5c2.6 1.3 5.6 1.3 8.1 0l1.7-1 1.1.6z"/><path id="Path_403" class="st0" d="m46.3 62.2 8.1 4.7 8-3.9v10.4s-4.3 10.4-25.1 23.8c-4.6 3-10.5 3.1-15.2.3L5.6 87.8v-9.9c0-.1.1-.3.2-.3 2.9-.4 30.5-4.4 40.5-15.4"/><path id="Path_404" class="st3" d="M29.5 100c2.9 0 5.7-.8 8.1-2.4 20.8-13.4 25.3-23.9 25.3-24V62.7l-.5-.3-.3.1-7.7 3.7-8.3-4.7-.3.2c-9.7 11-36.9 15-40 15.4-.4.1-.7.4-.7.8v10.2l16.7 9.8c2.4 1.4 5 2.1 7.7 2.1M62 73.3c-.5 1-5.4 11-24.9 23.5-4.5 2.9-10.2 3-14.7.3L6.1 87.5V78c3.8-.5 30.1-4.5 40.3-15.3l7.9 4.6h.4l7.3-3.5v9.5z"/><path id="Path_405" class="st5" d="M62.4 63c-.1.2-4.5 10.5-25.2 23.8-4.6 2.9-10.4 3.1-15.1.3L6 77.8c-.1-.1-.1-.2-.1-.3l.1-.1C9.5 76 36.3 64.7 46.3 53.7L62.4 63"/><path id="Path_406" class="st3" d="M29.4 89.6c2.9 0 5.7-.8 8.1-2.4 20.7-13.3 25.2-23.6 25.4-24.1l.1-.1-.2-.4-.2-.1L46.2 53l-.3.3C36 64.3 8.9 75.8 5.8 77c-.4.1-.5.5-.4.9.1.1.2.3.3.3l16.2 9.3c2.3 1.4 4.9 2.1 7.5 2.1m32.4-26.4c-1 2-6.5 11.5-24.8 23.2-4.4 2.9-10.1 3-14.6.3l-15.7-9c4.8-2 29.8-12.8 39.7-23.4l15.4 8.9z"/><path id="Path_407" class="st3" d="M25.8 78.5c1.2 0 2.4-.3 3.4-.9l5.8-3.4c1.1-.5 1.8-1.6 1.9-2.8 0-1-.6-2-1.6-2.5l-.3-.1c-1.7-1-4.4-.9-6.2.2L23 72.4c-1.1.5-1.8 1.6-1.9 2.8 0 1 .6 2 1.6 2.5l.3.2c.8.4 1.8.6 2.8.6m8.1-7c-.1.1-.2.2-.3.2l-5.8 3.4c-1 .6-2.2.6-3.3.2l-.3-.2c.1-.1.2-.2.3-.2l5.8-3.4c1-.6 2.2-.6 3.3-.2l.3.2z"/><path id="Path_408" class="st5" d="M50.9 44.2v-2.1c0-.1.1-.2.2-.2h.1L61 45c.1 0 .2.1.2.2v2.2c0 .4-.3.8-.7.9-.9.5-1.9.5-2.8.1l-6.4-3.7c-.2-.1-.3-.3-.4-.5"/><path id="Path_409" class="st3" d="M58.9 49.2c.6 0 1.3-.2 1.8-.5.5-.2.9-.8.9-1.4v-2.2c0-.3-.2-.6-.5-.7l-9.8-3.1c-.4-.1-.8.1-.9.5v2.4c.1.4.3.7.7.9l6.4 3.7c.4.3.9.4 1.4.4m1.8-3.9v2c0 .1-.1.3-.4.5-.7.4-1.5.4-2.3.1l-6.4-3.7c-.1 0-.2-.1-.2-.2V42.3l9.3 3z"/><path id="Path_410" class="st4" d="m51.4 42.3 6.4 3.7c.9.4 1.9.4 2.8-.1.8-.5.9-1.2.2-1.6l-6.4-3.7c-.9-.4-1.9-.4-2.8.1-.9.5-.9 1.2-.2 1.6"/><path id="Path_411" class="st3" d="M58.9 46.8c.6 0 1.3-.2 1.8-.5.5-.2.9-.7.9-1.3 0-.5-.3-.9-.7-1.1l-6.4-3.7c-1-.5-2.2-.4-3.3.1-.5.2-.9.7-.9 1.3 0 .5.3.9.7 1.1l6.4 3.7c.5.3 1 .4 1.5.4m-5.8-6c.3 0 .7.1 1 .2l6.4 3.7c.1 0 .2.1.2.3 0 .1-.1.3-.4.5-.7.4-1.5.4-2.3.1l-6.4-3.7c-.1 0-.2-.1-.2-.3 0-.1.1-.3.4-.5.4-.2.9-.3 1.3-.3"/><path id="Path_412" class="st0" d="M111.7 62.6v-2.1c0-.1.1-.2.2-.2h.1l9.8 3.1c.1 0 .2.1.2.2v2.2c0 .4-.3.8-.7.9-.9.5-1.9.5-2.8.1l-6.4-3.7c-.1 0-.3-.2-.4-.5"/><path id="Path_413" class="st3" d="M119.8 67.6c.6 0 1.3-.2 1.8-.5.5-.2.9-.8.9-1.4v-2.2c0-.3-.2-.6-.5-.7l-9.8-3.1c-.4-.1-.8.1-.9.5v2.4c.1.4.3.7.7.9l6.4 3.7c.4.3.9.4 1.4.4m1.7-3.8v2c0 .1-.1.3-.4.5-.7.4-1.5.4-2.3.1l-6.4-3.7c-.1 0-.2-.1-.2-.2v-1.7l9.3 3z"/><path id="Path_414" class="st4" d="m112.2 60.8 6.4 3.7c.9.4 1.9.4 2.8-.1.8-.5.9-1.2.2-1.6l-6.4-3.7c-.9-.4-1.9-.4-2.8.1-.8.5-.9 1.2-.2 1.6"/><path id="Path_415" class="st3" d="M119.8 65.2c.6 0 1.2-.2 1.8-.5.5-.2.9-.7.9-1.3 0-.5-.3-.9-.7-1.1l-6.4-3.7c-1-.5-2.2-.4-3.2.1-.5.2-.9.7-.9 1.3 0 .5.3.9.7 1.1l6.4 3.7c.4.3.9.4 1.4.4m-5.8-5.9c.3 0 .7.1.9.2l6.4 3.7c.1 0 .2.1.2.3 0 .1-.1.3-.4.5-.7.4-1.5.4-2.3.1l-6.4-3.7c-.1 0-.2-.1-.2-.3 0-.1.1-.3.4-.5.5-.2.9-.3 1.4-.3"/><path id="Path_416" class="st0" d="M106.6 65.6v-2.1c0-.1.1-.2.2-.2h.1l9.8 3.1c.1 0 .2.1.2.2v2.2c0 .4-.3.8-.7.9-.9.5-1.9.5-2.8.1l-6.4-3.7c-.2-.1-.3-.2-.4-.5"/><path id="Path_417" class="st3" d="M114.6 70.6c.6 0 1.3-.2 1.8-.5.5-.2.9-.8.9-1.4v-2.2c0-.3-.2-.6-.5-.7l-9.8-3.1c-.2-.1-.4 0-.6.1-.2.1-.3.3-.3.6v2.2c.1.4.3.7.7.9l6.4 3.7c.4.3.9.4 1.4.4m1.8-3.8v2c0 .1-.1.3-.4.5-.7.4-1.5.4-2.3.1l-6.4-3.7c-.1 0-.2-.1-.2-.2v-1.7l9.3 3z"/><path id="Path_418" class="st4" d="m107.1 63.8 6.4 3.7c.9.4 1.9.4 2.8-.1.8-.5.9-1.2.2-1.6L110 62c-.9-.4-1.9-.4-2.8.1-.8.5-.9 1.3-.1 1.7"/><path id="Path_419" class="st3" d="M114.6 68.2c.6 0 1.3-.2 1.8-.5.5-.2.9-.7.9-1.3 0-.5-.3-.9-.7-1.1l-6.4-3.7c-1-.5-2.2-.4-3.3.1-.5.2-.9.7-.9 1.3 0 .5.3.9.7 1.1l6.4 3.7c.5.3 1 .4 1.5.4m-5.8-5.9c.3 0 .7.1 1 .2l6.4 3.7c.1 0 .2.1.2.3 0 .1-.1.3-.4.5-.7.4-1.5.4-2.3.1l-6.4-3.7c-.1 0-.2-.1-.2-.3 0-.1.1-.3.4-.5.4-.2.9-.3 1.3-.3"/><path id="Path_420" class="st0" d="M101.4 68.6v-2.1c0-.1.1-.2.2-.2h.1l9.8 3.1c.1 0 .2.1.2.2v2.2c0 .4-.3.8-.7.9-.9.5-1.9.5-2.8.1l-6.4-3.7c-.1-.1-.3-.3-.4-.5"/><path id="Path_421" class="st3" d="M109.5 73.6c.6 0 1.3-.2 1.8-.5.5-.2.9-.8.9-1.4v-2.2c0-.3-.2-.6-.5-.7l-9.8-3.1c-.2-.1-.5 0-.6.1-.2.1-.3.3-.3.6v2.2c.1.4.3.7.7.9l6.4 3.7c.4.3.9.4 1.4.4m1.7-3.9v2c0 .1-.1.3-.4.5-.7.4-1.5.4-2.3.1l-6.4-3.7c-.1 0-.2-.1-.2-.2V66.7l9.3 3z"/><path id="Path_422" class="st4" d="m101.9 66.7 6.4 3.7c.9.4 1.9.4 2.8-.1.8-.5.9-1.2.2-1.6l-6.4-3.7c-.9-.4-1.9-.4-2.8.1-.8.5-.9 1.2-.2 1.6"/><path id="Path_423" class="st3" d="M109.5 71.2c.6 0 1.3-.2 1.8-.5.5-.2.9-.7.9-1.3 0-.5-.3-.9-.7-1.1l-6.4-3.7c-1-.5-2.2-.4-3.3.1-.5.2-.9.7-.9 1.3 0 .5.3.9.7 1.1l6.4 3.7c.5.3 1 .4 1.5.4m-5.8-6c.3 0 .7.1 1 .2l6.4 3.7c.1 0 .2.1.2.3 0 .1-.1.3-.4.5-.7.4-1.5.4-2.3.1l-6.4-3.7c-.1 0-.2-.1-.2-.3 0-.1.1-.3.4-.5.4-.2.8-.3 1.3-.3"/><path id="Path_424" class="st7" d="M112.7 84.6c0-3 1.8-6.5 4.1-7.9l8.8-5.1c.8-.5 1.8-.6 2.6-.2l7 4.2-14.1 16.5-7-4.2c-.8-.4-1.4-1.5-1.4-3.3"/><path id="Path_425" class="st3" d="m121.3 92.9.3-.3 14.2-16.7-.1-.5-.2-.1-7-4.2c-1-.5-2.2-.4-3.1.2l-8.8 5.1c-2.4 1.4-4.4 5.1-4.4 8.3 0 1.9.7 3.2 1.8 3.8l7.3 4.4zm13.3-17.1-13.5 15.8-6.6-4c-.8-.4-1.3-1.5-1.3-3 0-2.9 1.7-6.2 3.9-7.4l8.8-5.1c.6-.5 1.5-.5 2.2-.2l6.5 3.9z"/><path id="Path_426" class="st8" d="m123.8 92 8.8-5.1c2.3-1.3 4.1-4.8 4.1-7.9 0-3-1.8-4.4-4.1-3.1l-8.8 5.1c-2.3 1.3-4.1 4.8-4.1 7.9 0 3 1.9 4.4 4.1 3.1"/><path id="Path_427" class="st3" d="M122.2 93c.7 0 1.3-.2 1.9-.6l8.8-5.1c2.4-1.4 4.4-5.1 4.4-8.3 0-1.8-.6-3.1-1.7-3.7-1-.5-2.2-.4-3.2.2l-8.8 5.1c-2.4 1.4-4.4 5.1-4.4 8.3 0 1.8.6 3.1 1.7 3.7.4.3.8.4 1.3.4m1.4-1.4c-.6.5-1.5.6-2.2.2-.7-.4-1.2-1.5-1.2-2.9 0-2.9 1.7-6.2 3.9-7.4l8.8-5.1c.6-.5 1.5-.6 2.2-.2.7.4 1.2 1.5 1.2 2.9 0 2.9-1.7 6.2-3.9 7.4l-8.8 5.1z"/><path id="Path_428" class="st5" d="M126.9 85.6c.1-2.5 1.5-4.8 3.5-6.1 1.3-.8 2.5-.6 3.1.3l3.1 3.2-3.6 6.2-4.2-1.1c-1.1 0-1.9-.9-1.9-2.5"/><path id="Path_429" class="st3" d="m133.3 89.8 4-6.9-3.4-3.5c-.7-1.1-2.2-1.3-3.7-.4-2.3 1.4-3.7 3.9-3.8 6.6 0 1.8.9 3 2.4 3l4.5 1.2zm2.8-6.7-3.2 5.6-4-1.1c-.9 0-1.5-.8-1.5-2 .1-2.3 1.4-4.5 3.3-5.7 1.1-.6 2-.5 2.4.2l3 3z"/><path id="Path_430" class="st0" d="M132.3 87.6c0 1.6 1.1 2.3 2.5 1.5 1.5-1 2.5-2.6 2.5-4.4 0-1.6-1.1-2.3-2.5-1.5-1.5.9-2.4 2.6-2.5 4.4"/><path id="Path_431" class="st3" d="M133.7 89.9c.5 0 1-.2 1.4-.4a6.1 6.1 0 0 0 2.8-4.8c.2-1.1-.6-2.1-1.7-2.3-.6-.1-1.1.1-1.6.4a6.1 6.1 0 0 0-2.8 4.8c-.1.8.3 1.6 1 2.1.3.1.6.2.9.2m2.3-6.6c.1 0 .3 0 .4.1.4.3.6.8.5 1.2-.1 1.6-1 3.1-2.3 4-.4.4-1.1.4-1.5 0-.3-.3-.4-.7-.3-1 .1-1.6 1-3.1 2.3-4 .3-.2.6-.3.9-.3"/><path id="Path_432" class="st5" d="M149.2 94.1c.4-.8.2-1.8-.7-2.3l-11.2-6.2c-.8-.4-1.8-.2-2.3.7-.4.8-.2 1.8.7 2.3l11.2 6.2c.8.4 1.8.1 2.3-.7"/><path id="Path_433" class="st3" d="M147.7 95.4c.8 0 1.5-.4 1.9-1.1.6-1 .2-2.4-.8-2.9l-11.2-6.2c-1-.6-2.4-.2-2.9.8s-.2 2.4.8 2.9l11.2 6.2c.3.2.6.3 1 .3m-11.2-9.5c.2 0 .4.1.6.1l11.2 6.2c.6.3.8 1 .5 1.6-.3.6-1 .8-1.6.5L136 88.1c-.3-.2-.5-.4-.6-.7-.1-.3-.1-.6.1-.9.2-.4.6-.6 1-.6"/><path id="Path_436" class="st3" d="m140.4 91.3 1-.2-.8-4.3-1 .2.8 4.3z"/><path id="Path_437" class="st3" d="m138.1 90.1 1-.2-.8-4.3-1 .2.8 4.3z"/><path id="Rectangle_131" class="st3" d="M110.2 76.7h1v16h-1z"/><path id="Rectangle_132" class="st3" d="M107.5 76.1h1v16h-1z"/><path id="Rectangle_133" class="st3" d="M66.3 62.1h1v16h-1z"/><path id="Rectangle_134" class="st3" d="M29.7 89.1h1v10.4h-1z"/><path id="Rectangle_135" class="st3" d="M8.7 79.5h1v10.4h-1z"/><path id="Rectangle_136" class="st3" d="M24.9 88.8h1v10.4h-1z"/><path id="Rectangle_137" class="st3" d="M81.7 72h1v7.1h-1z"/><path id="Rectangle_138" class="st3" d="M78.6 71.4h1v7.1h-1z"/><path id="Path_438" class="st3" d="m119.5 89.3.5-.8-7-4.3-.5.8 7 4.3z"/><path id="Path_439" class="st3" d="m121.8 82.8.5-.8-7-4.3-.5.8 7 4.3z"/><path id="Rectangle_139" class="st3" d="M59.1 67.5h1v10.4h-1z"/><path id="Rectangle_140" transform="rotate(-61.523 37.538 32.429)" class="st3" d="M37.1 30.2h1v4.4h-1z"/></svg>