<svg version="1.1" id="Layer_1" xmlns="http://www.w3.org/2000/svg" x="0" y="0" viewBox="0 0 150 150" style="enable-background:new 0 0 150 150" xml:space="preserve"><style>.st0{fill:#ec6a2b}.st2{fill:#3d3e3e}</style><g id="Img"><path id="Path_2628" class="st0" d="M142.3 64.3c10.3-6 10.3-15.6 0-21.6-.6-.3-1.2-.7-1.8-1L135 53.4s0 .1-.1.1l-.3.7c-.9 1.5-2.7 2.9-5.7 3.7-3.4.9-7 .8-10.4-.4-4.2-1.6-5.7-4.3-4.7-6.8l5.8-12.3v-.1c-5.1.4-10 1.8-14.5 4.3-5.3 3.1-7.9 7.2-7.7 11.2.3 5.3-3.2 10.4-9.6 14.1L5.2 115.6c-3.7 2.1-3.7 5.7 0 7.8 4.3 2.1 9.3 2.1 13.5 0L104 74.2c5.8-3.3 13.5-5.1 21.7-5.5 5.8-.2 11.5-1.7 16.6-4.4"/><path id="Path_2629" d="M141.1 50.2c0 .2.1-10.1.1-10.1l-4.8.5-.1.1c-.8-.6-1.6-1.2-2.4-1.7l-1.8-.9-4.8 10.3c-2 1.7-4.1 3.4-6.1 5.1-3.3.9-6.8.8-10-.3-4-1.5-5.5-4.1-4.5-6.4l5.6-11.8v-9s0-.1-.1-.1l-6.8 3.9-3.6 7.7c-1.2.5-2.3 1-3.4 1.6-4.9 2.8-7.3 6.6-7.3 10.3L43.6 85.2l-31.4 18.1-11.4-.4v9.2c.2 1.6 1.2 3.1 2.7 3.7 4 2.1 8.8 2.1 12.9 0l81-46.8c5.5-3.2 12.9-4.9 20.6-5.2 5.5-.1 10.9-1.6 15.8-4.2 4.4-2.6 6.8-5.8 7.3-9.2v-.2z" style="fill:#bcb8b8"/><path id="Path_2630" class="st2" d="M9.9 118.2c-2.4 0-4.7-.5-6.8-1.7-1.8-.8-2.9-2.5-3.1-4.4v-10l12 .5 31.2-18 47-35.6c.2-4 2.9-7.8 7.7-10.6 1-.6 2.1-1.1 3.2-1.5l3.6-7.7 7.5-4.2.9.5v9.8l-5.6 11.9c-.3.7-.3 1.5 0 2.3.9 1.5 2.3 2.7 4 3.1 3 1 6.3 1.1 9.4.3 1.9-1.6 3.9-3.3 5.8-4.9l5.1-10.8.7.4 1.8.9c.8.4 1.5.9 2.2 1.4l5.6-.6v.9c0 3.1-.1 7.5-.1 9.3l-.1 1.5c-.6 3.6-3.3 6.9-7.6 9.4-5 2.7-10.5 4.1-16.1 4.3-8 .4-15.2 2.2-20.3 5.1l-81.1 46.8c-2.1 1.1-4.5 1.6-6.9 1.6m-8.3-14.4v8.3c.2 1.3 1 2.5 2.3 3 3.8 1.9 8.3 1.9 12.1 0l81-46.8c5.4-3.1 12.7-5 21-5.3 5.4-.1 10.6-1.5 15.4-4.1 4-2.3 6.5-5.4 6.9-8.6l.1-.4c-.1-1.2-.1-3.7 0-8.8l-3.7.4-.3.3-.6-.3c-.7-.6-1.5-1.1-2.3-1.6-.3-.2-.6-.4-1-.5l-4.7 9.8c-2 1.7-4.1 3.4-6.1 5.1l-.3.2c-3.5.9-7.1.8-10.5-.4-2.1-.6-3.9-2.1-4.9-4-.4-.8-.5-1.7-.3-2.6h-.2l.4-1 5.5-11.6v-7.6l-5.5 3.1-3.6 7.8-.3.1c-1.1.4-2.2 1-3.3 1.6-4.5 2.6-6.9 6-6.9 9.6v.4l-.3.1-47.4 35.9-31.7 18.3-10.8-.4z"/><path id="Path_2631" d="M133.8 50.4c9.8-5.7 9.8-14.8 0-20.5L132 29l-5.2 11.1s0 .1-.1.1l-.3.7c-.8 1.4-2.5 2.7-5.4 3.5-3.3.8-6.7.7-9.9-.4-4-1.5-5.5-4.1-4.5-6.4l5.5-11.7v-.1c-4.8.4-9.5 1.7-13.8 4-5.1 2.9-7.5 6.8-7.3 10.7.2 5-3 9.9-9.1 13.4L3.5 99.2c-3.5 2-3.5 5.4 0 7.4 4 2 8.8 2 12.9 0l81.1-46.8c5.5-3.2 12.9-4.9 20.6-5.2 5.5-.1 10.9-1.6 15.7-4.2" style="fill:#c8c6c6"/><path id="Path_2632" class="st2" d="M9.9 109c-2.4 0-4.7-.5-6.8-1.6-2.4-.9-3.7-3.6-2.8-6.1.5-1.3 1.5-2.3 2.8-2.8l78.3-45.2c5.8-3.3 9-8 8.7-12.7-.2-4.3 2.6-8.4 7.7-11.4 4.4-2.4 9.2-3.8 14.1-4.2h.5l.6.8-.2.5-5.5 11.7c-.3.7-.3 1.5 0 2.2.9 1.5 2.3 2.7 4 3.1 3 1 6.3 1.2 9.4.3 2-.4 3.8-1.5 5-3.1l.3-.6 5.6-12 .7.4 1.8.9c5 2.9 7.8 6.8 7.8 10.9s-2.8 8.1-7.8 11c-5 2.7-10.5 4.1-16.1 4.3-8 .4-15.2 2.2-20.3 5.1l-81.1 46.8c-2 1.2-4.3 1.7-6.7 1.7m100.9-82.2c-4.3.5-8.4 1.7-12.1 3.8-4.7 2.7-7.1 6.2-6.9 9.9.3 5.3-3.2 10.5-9.5 14.1L3.9 99.9c-1.7.5-2.6 2.2-2.1 3.9.3 1 1.1 1.8 2.1 2.1 3.8 1.9 8.3 1.9 12.1 0l81-46.8c5.4-3.1 12.7-5 21-5.3 5.4-.1 10.6-1.5 15.4-4.1 4.5-2.6 7-6 7-9.6s-2.5-7-7-9.6c-.3-.2-.6-.4-1-.5l-5.5 11.8h-.1c-1.4 1.7-3.4 2.9-5.6 3.4-3.4.9-7 .8-10.4-.4-2.1-.6-3.9-2.1-4.9-4-.5-1.1-.5-2.4 0-3.5l4.9-10.5z"/><path id="Path_2633" d="M92.8 57.9c-1.6.8-3.4.8-5 0-.8-.3-1.2-1.1-1-1.9.2-.5.5-.8 1-1 1.6-.8 3.4-.8 5 0 .8.3 1.2 1.1 1 1.9-.2.5-.5.9-1 1" style="fill:#feeedd"/><path id="Path_2634" class="st2" d="M90.3 59.3c-1 0-2-.2-2.9-.7-1.2-.5-1.8-1.8-1.3-3 .2-.6.7-1 1.3-1.3 1.8-.9 4-.9 5.8 0 1.2.5 1.8 1.8 1.3 3-.2.6-.7 1-1.3 1.3-.9.5-1.9.8-2.9.7m0-4.1c-.7 0-1.5.2-2.1.5-.4.2-.6.5-.6.8s.2.5.6.8c1.3.7 2.9.7 4.2 0 .4-.2.6-.5.6-.8s-.2-.5-.6-.8c-.6-.3-1.4-.5-2.1-.5"/><path id="Path_2635" class="st0" d="m83.5 60.5-.3-.2c-1.6-.7-3.4-.6-4.9.2L16.4 96.2c-1.5.8-1.6 2.1-.4 2.8l.3.2c1.6.7 3.4.6 4.9-.2L83 63.3c1.6-.8 1.8-2 .5-2.8"/><path id="Path_2636" class="st2" d="M18.6 100.6c-.9 0-1.8-.2-2.6-.6l-.3-.2c-.7-.4-1.2-1.1-1.3-1.9.1-1 .7-1.9 1.6-2.3l61.8-35.7c1.8-1 3.9-1.1 5.7-.2l.3.2c.7.4 1.2 1.1 1.3 1.9-.1 1-.7 1.9-1.6 2.3L21.7 99.8c-.9.5-2 .8-3.1.8m62.5-40c-.8 0-1.7.2-2.4.6L16.8 96.9c-.6.3-.8.7-.8.9 0 .2.3.4.4.5l.3.2c1.3.6 2.9.5 4.1-.2l61.8-35.7c.6-.3.8-.7.8-.9 0-.2-.3-.4-.4-.5l-.2-.2c-.5-.3-1.1-.4-1.7-.4"/><path id="Rectangle_1151" class="st2" d="M104.9 56.5h1.6v9.3h-1.6z"/><path id="Rectangle_1152" class="st2" d="M136.9 47.1h1.6v9.3h-1.6z"/></g></svg>